{
.appVersion = "1064";
copyright = "Copyright (c) 2014 by Matthieu Cortat. All rights reserved.";
customParameters = (
{
name = vendorID;
value = "";
},
{
name = panose;
value = (
2,
11,
6,
9,
3,
0,
4,
2,
0,
4
);
},
{
name = unicodeRanges;
value = (
0,
1
);
},
{
name = codePageRanges;
value = (
1252,
1254
);
},
{
name = glyphOrder;
value = (
.notdef,
uni0000,
uni000D,
space,
exclam,
quotedbl,
numbersign,
dollar,
percent,
ampersand,
quotesingle,
parenleft,
parenright,
asterisk,
plus,
comma,
hyphen,
period,
slash,
zero,
one,
two,
three,
four,
five,
six,
seven,
eight,
nine,
colon,
semicolon,
less,
equal,
greater,
question,
at,
A,
B,
C,
D,
E,
F,
G,
H,
I,
J,
K,
L,
M,
N,
O,
P,
Q,
R,
S,
T,
U,
V,
W,
X,
Y,
Z,
bracketleft,
backslash,
bracketright,
asciicircum,
underscore,
grave,
a,
b,
c,
d,
e,
f,
g,
h,
i,
j,
k,
l,
m,
n,
o,
p,
q,
r,
s,
t,
u,
v,
w,
x,
y,
z,
braceleft,
bar,
braceright,
asciitilde,
exclamdown,
cent,
sterling,
yen,
brokenbar,
section,
dieresis,
copyright,
ordfeminine,
guillemotleft,
logicalnot,
uni00AD,
registered,
macron,
degree,
plusminus,
twosuperior,
threesuperior,
acute,
mu,
paragraph,
periodcentered,
cedilla,
onesuperior,
ordmasculine,
guillemotright,
onequarter,
onehalf,
threequarters,
questiondown,
Agrave,
Aacute,
Acircumflex,
Atilde,
Adieresis,
Aring,
AE,
Ccedilla,
Egrave,
Eacute,
Ecircumflex,
Edieresis,
Igrave,
Iacute,
Icircumflex,
Idieresis,
Eth,
Ntilde,
Ograve,
Oacute,
Ocircumflex,
Otilde,
Odieresis,
multiply,
Oslash,
Ugrave,
Uacute,
Ucircumflex,
Udieresis,
Yacute,
Thorn,
germandbls,
agrave,
aacute,
acircumflex,
atilde,
adieresis,
aring,
ae,
ccedilla,
egrave,
eacute,
ecircumflex,
edieresis,
igrave,
iacute,
icircumflex,
idieresis,
eth,
ntilde,
ograve,
oacute,
ocircumflex,
otilde,
odieresis,
divide,
oslash,
ugrave,
uacute,
ucircumflex,
udieresis,
yacute,
thorn,
ydieresis,
Gbreve,
gbreve,
dotlessI,
dotlessi,
Lslash,
lslash,
OE,
oe,
Scedilla,
scedilla,
Scaron,
scaron,
Ydieresis,
Zcaron,
zcaron,
florin,
NJ,
dotlessj,
circumflex,
caron,
breve,
dotaccent,

glyphs = (
{
glyphname = exclam;
lastChange = "2017-11-01 11:12:47 +0000";
layers = (
{
layerId = "21C067DE-0135-4A31-BCA0-37E1E4C9B62B";
paths = (
{
closed = 1;
nodes = (
"315 197 LINE",
"366 197 LINE",
"391 714 LINE",
"290 714 LINE"
);
},
{
closed = 1;
nodes = (
"282 14 OFFCURVE",
"309 -10 OFFCURVE",
"341 -10 CURVE SMOOTH",
"372 -10 OFFCURVE",
"398 14 OFFCURVE",
"398 49 CURVE SMOOTH",
"398 85 OFFCURVE",
"372 108 OFFCURVE",
"341 108 CURVE SMOOTH",
"309 108 OFFCURVE",
"282 85 OFFCURVE",
"282 49 CURVE SMOOTH"
);
}
);
width = 680;
}
);
note = exclam;
unicode = 0021;
},
{
glyphname = quotedbl;
lastChange = "2017-11-01 11:12:47 +0000";
layers = (
{
layerId = "21C067DE-0135-4A31-BCA0-37E1E4C9B62B";
paths = (
{
closed = 1;
nodes = (
"281 466 LINE",
"303 714 LINE",
"208 714 LINE",
"231 466 LINE"
);
},
{
closed = 1;
nodes = (
"450 466 LINE",
"472 714 LINE",
"377 714 LINE",
"400 466 LINE"
);
}
);
width = 680;
}
);
note = quotedbl;
unicode = 0022;
},
{
glyphname = numbersign;
lastChange = "2017-11-01 11:12:47 +0000";
layers = (
{
layerId = "21C067DE-0135-4A31-BCA0-37E1E4C9B62B";
paths = (
{
closed = 1;
nodes = (
"512 502 LINE",
"551 714 LINE",
"479 714 LINE",
"438 502 LINE",
"298 502 LINE",
"338 714 LINE",
"262 714 LINE",
"224 502 LINE",
"78 502 LINE",
"78 434 LINE",
"212 434 LINE",
"179 278 LINE",
"40 278 LINE",
"40 208 LINE",
"167 208 LINE",
"127 0 LINE",
"203 0 LINE",
"243 208 LINE",
"381 208 LINE",
"340 0 LINE",
"414 0 LINE",
"454 208 LINE",
"604 208 LINE",
"604 278 LINE",
"467 278 LINE",
"500 434 LINE",
"640 434 LINE",
"640 502 LINE"
);
},
{
closed = 1;
nodes = (
"391 278 LINE",
"253 278 LINE",
"285 434 LINE",
"424 434 LINE"
);
}
);
width = 680;
}
);
note = numbersign;
unicode = 0023;
},
{
glyphname = dollar;
lastChange = "2017-11-01 11:12:47 +0000";
layers = (
{
layerId = "21C067DE-0135-4A31-BCA0-37E1E4C9B62B";
paths = (
{
closed = 1;
nodes = (
"381 -6 LINE",
"513 10 OFFCURVE",
"587 82 OFFCURVE",
"587 185 CURVE SMOOTH",
"587 282 OFFCURVE",
"542 343 OFFCURVE",
"419 383 CURVE SMOOTH",
"381 395 LINE",
"381 647 LINE",
"437 643 OFFCURVE",
"492 625 OFFCURVE",
"547 594 CURVE",
"565 681 LINE",
"510 706 OFFCURVE",
"449 720 OFFCURVE",
"381 723 CURVE",
"381 853 LINE",
"313 853 LINE",
"313 722 LINE",
"181 710 OFFCURVE",
"102 632 OFFCURVE",
"102 531 CURVE SMOOTH",
"102 444 OFFCURVE",
"155 383 OFFCURVE",
"262 346 CURVE SMOOTH",
"313 328 LINE",
"313 66 LINE",
"242 67 OFFCURVE",
"172 88 OFFCURVE",
"103 129 CURVE",
"93 40 LINE",
"156 7 OFFCURVE",
"229 -9 OFFCURVE",
"313 -10 CURVE",
"313 -140 LINE",
"381 -140 LINE"
);
},
{
closed = 1;
nodes = (
"186 592 OFFCURVE",
"229 635 OFFCURVE",
"313 646 CURVE",
"313 418 LINE",
"294 424 LINE SMOOTH",
"221 448 OFFCURVE",
"186 479 OFFCURVE",
"186 532 CURVE SMOOTH"
);
},
{
closed = 1;
nodes = (
"475 273 OFFCURVE",
"501 239 OFFCURVE",
"501 188 CURVE SMOOTH",
"501 127 OFFCURVE",
"458 84 OFFCURVE",
"381 71 CURVE",
"381 305 LINE",
"403 298 LINE SMOOTH"
);
}
);
width = 680;
}
);
note = dollar;
unicode = 0024;
},
{
glyphname = percent;
lastChange = "2017-11-01 11:12:47 +0000";
layers = (
{
layerId = "21C067DE-0135-4A31-BCA0-37E1E4C9B62B";
paths = (
{
closed = 1;
nodes = (
"565 609 LINE",
"72 161 LINE",
"113 109 LINE",
"609 559 LINE"
);
},
{
closed = 1;
nodes = (
"153 650 OFFCURVE",
"173 659 OFFCURVE",
"199 659 CURVE SMOOTH",
"250 659 OFFCURVE",
"281 617 OFFCURVE",
"281 561 CURVE SMOOTH",
"281 504 OFFCURVE",
"250 462 OFFCURVE",
"199 462 CURVE SMOOTH",
"147 462 OFFCURVE",
"120 502 OFFCURVE",
"120 561 CURVE SMOOTH",
"120 590 OFFCURVE",
"127 614 OFFCURVE",
"140 632 CURVE SMOOTH"
);
},
{
closed = 1;
nodes = (
"351 657 OFFCURVE",
"288 724 OFFCURVE",
"199 724 CURVE SMOOTH",
"108 724 OFFCURVE",
"50 662 OFFCURVE",
"50 561 CURVE SMOOTH",
"50 462 OFFCURVE",
"112 396 OFFCURVE",
"199 396 CURVE SMOOTH",
"291 396 OFFCURVE",
"351 460 OFFCURVE",
"351 561 CURVE SMOOTH"
);
},
{
closed = 1;
nodes = (
"432 245 OFFCURVE",
"452 254 OFFCURVE",
"478 254 CURVE SMOOTH",
"529 254 OFFCURVE",
"560 212 OFFCURVE",
"560 156 CURVE SMOOTH",
"560 99 OFFCURVE",
"529 57 OFFCURVE",
"478 57 CURVE SMOOTH",
"426 57 OFFCURVE",
"399 97 OFFCURVE",
"399 156 CURVE SMOOTH",
"399 185 OFFCURVE",
"406 209 OFFCURVE",
"419 227 CURVE SMOOTH"
);
},
{
closed = 1;
nodes = (
"630 252 OFFCURVE",
"567 319 OFFCURVE",
"478 319 CURVE SMOOTH",
"387 319 OFFCURVE",
"329 257 OFFCURVE",
"329 156 CURVE SMOOTH",
"329 57 OFFCURVE",
"391 -9 OFFCURVE",
"478 -9 CURVE SMOOTH",
"570 -9 OFFCURVE",
"630 55 OFFCURVE",
"630 156 CURVE SMOOTH"
);
}
);
width = 680;
}
);
note = percent;
unicode = 0025;
},
{
glyphname = ampersand;
lastChange = "2017-11-01 11:12:47 +0000";
layers = (
{
layerId = "21C067DE-0135-4A31-BCA0-37E1E4C9B62B";
paths = (
{
closed = 1;
nodes = (
"513 144 LINE",
"554 207 OFFCURVE",
"597 300 OFFCURVE",
"608 369 CURVE",
"522 369 LINE",
"512 314 OFFCURVE",
"492 258 OFFCURVE",
"461 203 CURVE",
"306 380 LINE",
"338 398 LINE SMOOTH",
"417 442 OFFCURVE",
"451 491 OFFCURVE",
"451 560 CURVE SMOOTH",
"451 652 OFFCURVE",
"383 724 OFFCURVE",
"283 724 CURVE SMOOTH",
"180 724 OFFCURVE",
"108 656 OFFCURVE",
"108 561 CURVE SMOOTH",
"108 514 OFFCURVE",
"131 463 OFFCURVE",
"178 408 CURVE SMOOTH",
"187 397 LINE",
"91 351 OFFCURVE",
"43 282 OFFCURVE",
"43 191 CURVE SMOOTH",
"43 76 OFFCURVE",
"130 -10 OFFCURVE",
"266 -10 CURVE SMOOTH",
"339 -10 OFFCURVE",
"404 20 OFFCURVE",
"461 79 CURVE",
"529 0 LINE",
"638 0 LINE"
);
},
{
closed = 1;
nodes = (
"183 66 OFFCURVE",
"129 125 OFFCURVE",
"129 193 CURVE SMOOTH",
"129 257 OFFCURVE",
"164 307 OFFCURVE",
"234 342 CURVE",
"411 137 LINE",
"368 90 OFFCURVE",
"319 66 OFFCURVE",
"266 66 CURVE SMOOTH"
);
},
{
closed = 1;
nodes = (
"190 616 OFFCURVE",
"228 648 OFFCURVE",
"284 648 CURVE SMOOTH",
"335 648 OFFCURVE",
"367 609 OFFCURVE",
"367 560 CURVE SMOOTH",
"367 511 OFFCURVE",
"346 483 OFFCURVE",
"295 454 CURVE SMOOTH",
"260 434 LINE",
"246 450 LINE SMOOTH",
"209 494 OFFCURVE",
"190 531 OFFCURVE",
"190 561 CURVE SMOOTH"
);
}
);
width = 680;
}
);
note = ampersand;
unicode = 0026;
},
{
glyphname = quotesingle;
lastChange = "2017-11-01 11:12:47 +0000";
layers = (
{
layerId = "21C067DE-0135-4A31-BCA0-37E1E4C9B62B";
paths = (
{
closed = 1;
nodes = (
"365 466 LINE",
"387 714 LINE",
"292 714 LINE",
"315 466 LINE"
);
}
);
width = 680;
}
);
note = quotesingle;
unicode = 0027;
},
{
glyphname = parenleft;
lastChange = "2017-11-01 11:12:47 +0000";
layers = (
{
layerId = "21C067DE-0135-4A31-BCA0-37E1E4C9B62B";
paths = (
{
closed = 1;
nodes = (
"289 464 OFFCURVE",
"365 620 OFFCURVE",
"518 741 CURVE",
"430 741 LINE",
"278 621 OFFCURVE",
"202 464 OFFCURVE",
"202 271 CURVE SMOOTH",
"202 77 OFFCURVE",
"278 -80 OFFCURVE",
"430 -200 CURVE",
"518 -200 LINE",
"365 -78 OFFCURVE",
"289 79 OFFCURVE",
"289 272 CURVE SMOOTH"
);
}
);
width = 680;
}
);
note = parenleft;
unicode = 0028;
},
{
glyphname = parenright;
lastChange = "2017-11-01 11:12:47 +0000";
layers = (
{
layerId = "21C067DE-0135-4A31-BCA0-37E1E4C9B62B";
paths = (
{
closed = 1;
nodes = (
"391 79 OFFCURVE",
"315 -78 OFFCURVE",
"162 -200 CURVE",
"250 -200 LINE",
"402 -80 OFFCURVE",
"478 77 OFFCURVE",
"478 271 CURVE SMOOTH",
"478 464 OFFCURVE",
"402 621 OFFCURVE",
"250 741 CURVE",
"162 741 LINE",
"315 620 OFFCURVE",
"391 464 OFFCURVE",
"391 272 CURVE SMOOTH"
);
}
);
width = 680;
}
);
note = parenright;
unicode = 0029;
},
{
glyphname = asterisk;
lastChange = "2017-11-01 11:12:47 +0000";
layers = (
{
layerId = "21C067DE-0135-4A31-BCA0-37E1E4C9B62B";
paths = (
{
closed = 1;
nodes = (
"111 446 LINE",
"96 357 LINE",
"293 342 LINE",
"167 173 LINE",
"253 127 LINE",
"337 315 LINE",
"429 127 LINE",
"513 173 LINE",
"384 342 LINE",
"583 357 LINE",
"569 446 LINE",
"364 390 LINE",
"386 594 LINE",
"291 594 LINE",
"313 390 LINE"
);
}
);
width = 680;
}
);
note = asterisk;
unicode = 002A;
},
{
glyphname = plus;
lastChange = "2017-11-01 11:12:47 +0000";
layers = (
{
layerId = "21C067DE-0135-4A31-BCA0-37E1E4C9B62B";
paths = (
{
closed = 1;
nodes = (
"305 391 LINE",
"105 391 LINE",
"105 324 LINE",
"305 324 LINE",
"305 116 LINE",
"373 116 LINE",
"373 324 LINE",
"574 324 LINE",
"574 391 LINE",
"373 391 LINE",
"373 600 LINE",
"305 600 LINE"
);
}
);
width = 680;
}
);
note = plus;
unicode = 002B;
},
{
glyphname = comma;
lastChange = "2017-11-01 11:12:47 +0000";
layers = (
{
layerId = "21C067DE-0135-4A31-BCA0-37E1E4C9B62B";
paths = (
{
closed = 1;
nodes = (
"315 -138 LINE",
"405 118 LINE",
"306 118 LINE",
"255 -138 LINE"
);
}
);
width = 680;
}
);
note = comma;
unicode = 002C;
},
{
glyphname = hyphen;
lastChange = "2017-11-01 11:12:47 +0000";
layers = (
{
layerId = "21C067DE-0135-4A31-BCA0-37E1E4C9B62B";
paths = (
{
closed = 1;
nodes = (
"190 305 LINE",
"190 231 LINE",
"490 231 LINE",
"490 305 LINE"
);
}
);
width = 680;
}
);
note = hyphen;
unicode = 002D;
},
{
glyphname = period;
lastChange = "2017-11-01 11:12:47 +0000";
layers = (
{
layerId = "21C067DE-0135-4A31-BCA0-37E1E4C9B62B";
paths = (
{
closed = 1;
nodes = (
"309 -4 OFFCURVE",
"324 -10 OFFCURVE",
"341 -10 CURVE SMOOTH",
"374 -10 OFFCURVE",
"404 16 OFFCURVE",
"404 55 CURVE SMOOTH",
"404 94 OFFCURVE",
"374 120 OFFCURVE",
"341 120 CURVE SMOOTH",
"306 120 OFFCURVE",
"276 94 OFFCURVE",
"276 55 CURVE SMOOTH",
"276 36 OFFCURVE",
"283 20 OFFCURVE",
"296 8 CURVE SMOOTH"
);
}
);
width = 680;
}
);
note = period;
unicode = 002E;
},
{
glyphname = slash;
lastChange = "2017-11-01 11:12:47 +0000";
layers = (
{
layerId = "21C067DE-0135-4A31-BCA0-37E1E4C9B62B";
paths = (
{
closed = 1;
nodes = (
"165 0 LINE",
"604 714 LINE",
"515 714 LINE",
"76 0 LINE"
);
}
);
width = 680;
}
);
note = slash;
unicode = 002F;
},
{
glyphname = zero;
lastChange = "2017-11-01 11:12:47 +0000";
layers = (
{
layerId = "21C067DE-0135-4A31-BCA0-37E1E4C9B62B";
paths = (
{
closed = 1;
nodes = (
"579 599 OFFCURVE",
"491 724 OFFCURVE",
"340 724 CURVE SMOOTH",
"189 724 OFFCURVE",
"101 599 OFFCURVE",
"101 358 CURVE SMOOTH",
"101 115 OFFCURVE",
"189 -10 OFFCURVE",
"340 -10 CURVE SMOOTH",
"491 -10 OFFCURVE",
"579 115 OFFCURVE",
"579 358 CURVE SMOOTH"
);
},
{
closed = 1;
nodes = (
"494 158 OFFCURVE",
"436 66 OFFCURVE",
"340 66 CURVE SMOOTH",
"299 66 OFFCURVE",
"265 83 OFFCURVE",
"240 117 CURVE",
"475 525 LINE",
"488 480 OFFCURVE",
"494 424 OFFCURVE",
"494 358 CURVE SMOOTH"
);
},
{
closed = 1;
nodes = (
"187 551 OFFCURVE",
"238 648 OFFCURVE",
"341 648 CURVE SMOOTH",
"382 648 OFFCURVE",
"415 632 OFFCURVE",
"439 599 CURVE",
"205 193 LINE",
"193 236 OFFCURVE",
"187 291 OFFCURVE",
"187 358 CURVE SMOOTH"
);
}
);
width = 680;
}
);
note = zero;
unicode = 0030;
},
{
glyphname = one;
lastChange = "2017-11-01 11:12:47 +0000";
layers = (
{
layerId = "21C067DE-0135-4A31-BCA0-37E1E4C9B62B";
paths = (
{
closed = 1;
nodes = (
"151 544 LINE",
"196 482 LINE",
"267 537 LINE",
"364 616 LINE",
"364 0 LINE",
"446 0 LINE",
"446 714 LINE",
"370 714 LINE"
);
}
);
width = 680;
}
);
note = one;
unicode = 0031;
},
{
glyphname = two;
lastChange = "2017-11-01 11:12:47 +0000";
layers = (
{
layerId = "21C067DE-0135-4A31-BCA0-37E1E4C9B62B";
paths = (
{
closed = 1;
nodes = (
"204 625 OFFCURVE",
"266 646 OFFCURVE",
"327 646 CURVE SMOOTH",
"408 646 OFFCURVE",
"461 598 OFFCURVE",
"461 519 CURVE SMOOTH",
"461 483 OFFCURVE",
"450 448 OFFCURVE",
"429 414 CURVE SMOOTH",
"407 379 OFFCURVE",
"362 328 OFFCURVE",
"293 259 CURVE SMOOTH",
"105 70 LINE",
"105 0 LINE",
"574 0 LINE",
"574 74 LINE",
"207 74 LINE",
"363 222 LINE SMOOTH",
"510 362 OFFCURVE",
"547 421 OFFCURVE",
"547 517 CURVE SMOOTH",
"547 640 OFFCURVE",
"456 724 OFFCURVE",
"327 724 CURVE SMOOTH",
"252 724 OFFCURVE",
"186 704 OFFCURVE",
"129 665 CURVE",
"141 582 LINE"
);
}
);
width = 680;
}
);
note = two;
unicode = 0032;
},
{
glyphname = three;
lastChange = "2017-11-01 11:12:47 +0000";
layers = (
{
layerId = "21C067DE-0135-4A31-BCA0-37E1E4C9B62B";
paths = (
{
closed = 1;
nodes = (
"171 12 OFFCURVE",
"243 -10 OFFCURVE",
"322 -10 CURVE SMOOTH",
"471 -10 OFFCURVE",
"569 67 OFFCURVE",
"569 194 CURVE SMOOTH",
"569 293 OFFCURVE",
"498 361 OFFCURVE",
"390 376 CURVE",
"495 402 OFFCURVE",
"547 456 OFFCURVE",
"547 538 CURVE SMOOTH",
"547 646 OFFCURVE",
"451 724 OFFCURVE",
"326 724 CURVE SMOOTH",
"255 724 OFFCURVE",
"189 704 OFFCURVE",
"128 663 CURVE",
"140 582 LINE",
"202 625 OFFCURVE",
"264 646 OFFCURVE",
"325 646 CURVE SMOOTH",
"409 646 OFFCURVE",
"461 600 OFFCURVE",
"461 535 CURVE SMOOTH",
"461 464 OFFCURVE",
"396 411 OFFCURVE",
"269 411 CURVE SMOOTH",
"209 411 LINE",
"209 337 LINE",
"279 337 LINE SMOOTH",
"414 337 OFFCURVE",
"483 278 OFFCURVE",
"483 197 CURVE SMOOTH",
"483 117 OFFCURVE",
"426 66 OFFCURVE",
"322 66 CURVE SMOOTH",
"252 66 OFFCURVE",
"188 91 OFFCURVE",
"130 140 CURVE",
"108 57 LINE"
);
}
);
width = 680;
}
);
note = three;
unicode = 0033;
},
{
glyphname = four;
lastChange = "2017-11-01 11:12:47 +0000";
layers = (
{
layerId = "21C067DE-0135-4A31-BCA0-37E1E4C9B62B";
paths = (
{
closed = 1;
nodes = (
"504 714 LINE",
"411 714 LINE",
"75 235 LINE",
"75 160 LINE",
"422 160 LINE",
"422 0 LINE",
"504 0 LINE",
"504 160 LINE",
"606 160 LINE",
"606 238 LINE",
"504 238 LINE"
);
},
{
closed = 1;
nodes = (
"422 613 LINE",
"422 238 LINE",
"171 238 LINE",
"311 443 LINE"
);
}
);
width = 680;
}
);
note = four;
unicode = 0034;
},
{
glyphname = five;
lastChange = "2017-11-01 11:12:47 +0000";
layers = (
{
layerId = "21C067DE-0135-4A31-BCA0-37E1E4C9B62B";
paths = (
{
closed = 1;
nodes = (
"168 9 OFFCURVE",
"238 -10 OFFCURVE",
"316 -10 CURVE SMOOTH",
"472 -10 OFFCURVE",
"571 92 OFFCURVE",
"571 225 CURVE SMOOTH",
"571 361 OFFCURVE",
"471 449 OFFCURVE",
"323 449 CURVE SMOOTH",
"295 449 OFFCURVE",
"259 445 OFFCURVE",
"214 436 CURVE",
"230 640 LINE",
"503 640 LINE",
"518 714 LINE",
"163 714 LINE",
"134 349 LINE",
"191 369 OFFCURVE",
"248 379 OFFCURVE",
"305 379 CURVE SMOOTH",
"416 379 OFFCURVE",
"485 318 OFFCURVE",
"485 227 CURVE SMOOTH",
"485 132 OFFCURVE",
"423 66 OFFCURVE",
"316 66 CURVE SMOOTH",
"242 66 OFFCURVE",
"177 87 OFFCURVE",
"122 130 CURVE",
"106 46 LINE"
);
}
);
width = 680;
}
);
note = five;
unicode = 0035;
},
{
glyphname = six;
lastChange = "2017-11-01 11:12:47 +0000";
layers = (
{
layerId = "21C067DE-0135-4A31-BCA0-37E1E4C9B62B";
paths = (
{
closed = 1;
nodes = (
"504 714 OFFCURVE",
"454 724 OFFCURVE",
"399 724 CURVE SMOOTH",
"224 724 OFFCURVE",
"110 581 OFFCURVE",
"110 302 CURVE SMOOTH",
"110 102 OFFCURVE",
"193 -10 OFFCURVE",
"354 -10 CURVE SMOOTH",
"486 -10 OFFCURVE",
"583 91 OFFCURVE",
"583 222 CURVE SMOOTH",
"583 351 OFFCURVE",
"485 448 OFFCURVE",
"366 448 CURVE SMOOTH",
"294 448 OFFCURVE",
"237 420 OFFCURVE",
"196 365 CURVE",
"204 549 OFFCURVE",
"284 648 OFFCURVE",
"399 648 CURVE SMOOTH",
"448 648 OFFCURVE",
"495 636 OFFCURVE",
"540 612 CURVE",
"550 694 LINE"
);
},
{
closed = 1;
nodes = (
"198 313 OFFCURVE",
"261 374 OFFCURVE",
"350 374 CURVE SMOOTH",
"438 374 OFFCURVE",
"499 310 OFFCURVE",
"499 223 CURVE SMOOTH",
"499 135 OFFCURVE",
"442 66 OFFCURVE",
"353 66 CURVE SMOOTH",
"258 66 OFFCURVE",
"198 135 OFFCURVE",
"198 226 CURVE SMOOTH"
);
}
);
width = 680;
}
);
note = six;
unicode = 0036;
},
{
glyphname = seven;
lastChange = "2017-11-01 11:12:47 +0000";
layers = (
{
layerId = "21C067DE-0135-4A31-BCA0-37E1E4C9B62B";
paths = (
{
closed = 1;
nodes = (
"579 714 LINE",
"104 714 LINE",
"104 640 LINE",
"501 640 LINE",
"400 439 LINE",
"187 0 LINE",
"287 0 LINE",
"579 649 LINE"
);
}
);
width = 680;
}
);
note = seven;
unicode = 0037;
},
{
glyphname = eight;
lastChange = "2017-11-01 11:12:47 +0000";
layers = (
{
layerId = "21C067DE-0135-4A31-BCA0-37E1E4C9B62B";
paths = (
{
closed = 1;
nodes = (
"107 72 OFFCURVE",
"198 -10 OFFCURVE",
"342 -10 CURVE SMOOTH",
"481 -10 OFFCURVE",
"574 74 OFFCURVE",
"574 185 CURVE SMOOTH",
"574 278 OFFCURVE",
"522 332 OFFCURVE",
"422 377 CURVE",
"418 378 LINE",
"505 413 OFFCURVE",
"549 467 OFFCURVE",
"549 540 CURVE SMOOTH",
"549 652 OFFCURVE",
"462 724 OFFCURVE",
"338 724 CURVE SMOOTH",
"221 724 OFFCURVE",
"130 644 OFFCURVE",
"130 540 CURVE SMOOTH",
"130 469 OFFCURVE",
"170 414 OFFCURVE",
"249 375 CURVE",
"154 336 OFFCURVE",
"107 273 OFFCURVE",
"107 187 CURVE SMOOTH"
);
},
{
closed = 1;
nodes = (
"458 276 OFFCURVE",
"491 242 OFFCURVE",
"491 186 CURVE SMOOTH",
"491 117 OFFCURVE",
"430 66 OFFCURVE",
"342 66 CURVE SMOOTH",
"251 66 OFFCURVE",
"189 118 OFFCURVE",
"189 190 CURVE SMOOTH",
"189 256 OFFCURVE",
"232 307 OFFCURVE",
"318 342 CURVE",
"385 311 LINE SMOOTH"
);
},
{
closed = 1;
nodes = (
"211 601 OFFCURVE",
"265 648 OFFCURVE",
"338 648 CURVE SMOOTH",
"413 648 OFFCURVE",
"468 603 OFFCURVE",
"468 540 CURVE SMOOTH",
"468 485 OFFCURVE",
"427 442 OFFCURVE",
"345 411 CURVE",
"302 431 LINE SMOOTH",
"241 459 OFFCURVE",
"211 495 OFFCURVE",
"211 540 CURVE SMOOTH"
);
}
);
width = 680;
}
);
note = eight;
unicode = 0038;
},
{
glyphname = nine;
lastChange = "2017-11-01 11:12:47 +0000";
layers = (
{
layerId = "21C067DE-0135-4A31-BCA0-37E1E4C9B62B";
paths = (
{
closed = 1;
nodes = (
"176 0 OFFCURVE",
"226 -10 OFFCURVE",
"281 -10 CURVE SMOOTH",
"458 -10 OFFCURVE",
"570 128 OFFCURVE",
"570 412 CURVE SMOOTH",
"570 612 OFFCURVE",
"487 724 OFFCURVE",
"326 724 CURVE SMOOTH",
"194 724 OFFCURVE",
"97 623 OFFCURVE",
"97 492 CURVE SMOOTH",
"97 363 OFFCURVE",
"195 266 OFFCURVE",
"314 266 CURVE SMOOTH",
"386 266 OFFCURVE",
"443 294 OFFCURVE",
"484 349 CURVE",
"476 165 OFFCURVE",
"396 66 OFFCURVE",
"281 66 CURVE SMOOTH",
"232 66 OFFCURVE",
"185 78 OFFCURVE",
"140 102 CURVE",
"130 20 LINE"
);
},
{
closed = 1;
nodes = (
"482 401 OFFCURVE",
"419 340 OFFCURVE",
"330 340 CURVE SMOOTH",
"242 340 OFFCURVE",
"181 404 OFFCURVE",
"181 491 CURVE SMOOTH",
"181 579 OFFCURVE",
"238 648 OFFCURVE",
"327 648 CURVE SMOOTH",
"422 648 OFFCURVE",
"482 579 OFFCURVE",
"482 488 CURVE SMOOTH"
);
}
);
width = 680;
}
);
note = nine;
unicode = 0039;
},
{
glyphname = colon;
lastChange = "2017-11-01 11:12:47 +0000";
layers = (
{
layerId = "21C067DE-0135-4A31-BCA0-37E1E4C9B62B";
paths = (
{
closed = 1;
nodes = (
"309 -4 OFFCURVE",
"324 -10 OFFCURVE",
"341 -10 CURVE SMOOTH",
"374 -10 OFFCURVE",
"404 16 OFFCURVE",
"404 55 CURVE SMOOTH",
"404 94 OFFCURVE",
"374 120 OFFCURVE",
"341 120 CURVE SMOOTH",
"306 120 OFFCURVE",
"276 94 OFFCURVE",
"276 55 CURVE SMOOTH",
"276 36 OFFCURVE",
"283 20 OFFCURVE",
"296 8 CURVE SMOOTH"
);
},
{
closed = 1;
nodes = (
"309 438 OFFCURVE",
"324 432 OFFCURVE",
"341 432 CURVE SMOOTH",
"374 432 OFFCURVE",
"404 458 OFFCURVE",
"404 497 CURVE SMOOTH",
"404 536 OFFCURVE",
"374 562 OFFCURVE",
"341 562 CURVE SMOOTH",
"306 562 OFFCURVE",
"276 536 OFFCURVE",
"276 497 CURVE SMOOTH",
"276 478 OFFCURVE",
"283 462 OFFCURVE",
"296 450 CURVE SMOOTH"
);
}
);
width = 680;
}
);
note = colon;
unicode = 003A;
},
{
glyphname = semicolon;
lastChange = "2017-11-01 11:12:47 +0000";
layers = (
{
layerId = "21C067DE-0135-4A31-BCA0-37E1E4C9B62B";
paths = (
{
closed = 1;
nodes = (
"315 -138 LINE",
"405 118 LINE",
"306 118 LINE",
"255 -138 LINE"
);
},
{
closed = 1;
nodes = (
"306 438 OFFCURVE",
"321 432 OFFCURVE",
"338 432 CURVE SMOOTH",
"371 432 OFFCURVE",
"401 458 OFFCURVE",
"401 497 CURVE SMOOTH",
"401 536 OFFCURVE",
"371 562 OFFCURVE",
"338 562 CURVE SMOOTH",
"303 562 OFFCURVE",
"273 536 OFFCURVE",
"273 497 CURVE SMOOTH",
"273 478 OFFCURVE",
"280 462 OFFCURVE",
"293 450 CURVE SMOOTH"
);
}
);
width = 680;
}
);
note = semicolon;
unicode = 003B;
},
{
glyphname = less;
lastChange = "2017-11-01 11:12:47 +0000";
layers = (
{
layerId = "21C067DE-0135-4A31-BCA0-37E1E4C9B62B";
paths = (
{
closed = 1;
nodes = (
"574 203 LINE",
"198 358 LINE",
"574 513 LINE",
"574 591 LINE",
"105 383 LINE",
"105 333 LINE",
"574 125 LINE"
);
}
);
width = 680;
}
);
note = less;
unicode = 003C;
},
{
glyphname = equal;
lastChange = "2017-11-01 11:12:47 +0000";
layers = (
{
layerId = "21C067DE-0135-4A31-BCA0-37E1E4C9B62B";
paths = (
{
closed = 1;
nodes = (
"574 424 LINE",
"574 491 LINE",
"105 491 LINE",
"105 424 LINE"
);
},
{
closed = 1;
nodes = (
"574 224 LINE",
"574 291 LINE",
"105 291 LINE",
"105 224 LINE"
);
}
);
width = 680;
}
);
note = equal;
unicode = 003D;
},
{
glyphname = greater;
lastChange = "2017-11-01 11:12:47 +0000";
layers = (
{
layerId = "21C067DE-0135-4A31-BCA0-37E1E4C9B62B";
paths = (
{
closed = 1;
nodes = (
"105 513 LINE",
"481 358 LINE",
"105 203 LINE",
"105 125 LINE",
"574 333 LINE",
"574 383 LINE",
"105 591 LINE"
);
}
);
width = 680;
}
);
note = greater;
unicode = 003E;
},
{
glyphname = question;
lastChange = "2017-11-01 11:12:47 +0000";
layers = (
{
layerId = "21C067DE-0135-4A31-BCA0-37E1E4C9B62B";
paths = (
{
closed = 1;
nodes = (
"252 14 OFFCURVE",
"279 -10 OFFCURVE",
"311 -10 CURVE SMOOTH",
"342 -10 OFFCURVE",
"368 14 OFFCURVE",
"368 49 CURVE SMOOTH",
"368 85 OFFCURVE",
"342 108 OFFCURVE",
"311 108 CURVE SMOOTH",
"279 108 OFFCURVE",
"252 85 OFFCURVE",
"252 49 CURVE SMOOTH"
);
},
{
closed = 1;
nodes = (
"537 643 OFFCURVE",
"455 724 OFFCURVE",
"322 724 CURVE SMOOTH",
"259 724 OFFCURVE",
"199 707 OFFCURVE",
"142 672 CURVE",
"158 594 LINE",
"210 631 OFFCURVE",
"264 649 OFFCURVE",
"321 649 CURVE SMOOTH",
"412 649 OFFCURVE",
"456 604 OFFCURVE",
"456 537 CURVE SMOOTH",
"456 502 OFFCURVE",
"432 461 OFFCURVE",
"385 416 CURVE SMOOTH",
"330 363 LINE SMOOTH",
"296 331 OFFCURVE",
"279 293 OFFCURVE",
"279 250 CURVE SMOOTH",
"279 231 OFFCURVE",
"282 213 OFFCURVE",
"289 197 CURVE",
"342 197 LINE",
"339 218 OFFCURVE",
"338 230 OFFCURVE",
"338 232 CURVE SMOOTH",
"338 261 OFFCURVE",
"352 289 OFFCURVE",
"379 314 CURVE SMOOTH",
"470 399 LINE SMOOTH",
"515 441 OFFCURVE",
"537 487 OFFCURVE",
"537 538 CURVE SMOOTH"
);
}
);
width = 680;
}
);
note = question;
unicode = 003F;
},
{
glyphname = at;
lastChange = "2017-11-01 11:12:47 +0000";
layers = (
{
layerId = "21C067DE-0135-4A31-BCA0-37E1E4C9B62B";
paths = (
{
closed = 1;
nodes = (
"249 311 OFFCURVE",
"266 313 OFFCURVE",
"276 313 CURVE SMOOTH",
"308 313 OFFCURVE",
"333 311 OFFCURVE",
"352 306 CURVE",
"349 284 OFFCURVE",
"347 263 OFFCURVE",
"346 244 CURVE SMOOTH",
"341 139 OFFCURVE",
"394 73 OFFCURVE",
"477 73 CURVE SMOOTH",
"568 73 OFFCURVE",
"631 150 OFFCURVE",
"631 307 CURVE SMOOTH",
"631 488 OFFCURVE",
"526 605 OFFCURVE",
"354 605 CURVE SMOOTH",
"169 605 OFFCURVE",
"50 469 OFFCURVE",
"50 270 CURVE SMOOTH",
"50 45 OFFCURVE",
"195 -80 OFFCURVE",
"411 -80 CURVE SMOOTH",
"476 -80 OFFCURVE",
"541 -68 OFFCURVE",
"608 -44 CURVE",
"599 32 LINE",
"538 8 OFFCURVE",
"475 -4 OFFCURVE",
"412 -4 CURVE SMOOTH",
"237 -4 OFFCURVE",
"131 98 OFFCURVE",
"131 271 CURVE SMOOTH",
"131 427 OFFCURVE",
"214 530 OFFCURVE",
"354 530 CURVE SMOOTH",
"481 530 OFFCURVE",
"549 448 OFFCURVE",
"549 307 CURVE SMOOTH",
"549 253 OFFCURVE",
"542 213 OFFCURVE",
"529 188 CURVE SMOOTH",
"515 162 OFFCURVE",
"497 149 OFFCURVE",
"476 149 CURVE SMOOTH",
"440 149 OFFCURVE",
"422 178 OFFCURVE",
"422 235 CURVE SMOOTH",
"422 270 OFFCURVE",
"430 313 OFFCURVE",
"446 365 CURVE",
"387 381 OFFCURVE",
"334 389 OFFCURVE",
"287 389 CURVE SMOOTH",
"262 389 OFFCURVE",
"241 387 OFFCURVE",
"223 383 CURVE",
"224 306 LINE"
);
}
);
width = 680;
}
);
note = at;
unicode = 0040;
},
{
glyphname = A;
lastChange = "2017-11-01 11:12:47 +0000";
layers = (
{
layerId = "21C067DE-0135-4A31-BCA0-37E1E4C9B62B";
paths = (
{
closed = 1;
nodes = (
"300 714 LINE",
"43 0 LINE",
"127 0 LINE",
"190 187 LINE",
"487 187 LINE",
"550 0 LINE",
"637 0 LINE",
"381 714 LINE"
);
},
{
closed = 1;
nodes = (
"339 623 LINE",
"406 422 LINE",
"462 261 LINE",
"217 261 LINE",
"278 437 LINE"
);
}
);
width = 680;
}
);
note = A;
unicode = 0041;
},
{
glyphname = B;
lastChange = "2017-11-01 11:12:47 +0000";
layers = (
{
layerId = "21C067DE-0135-4A31-BCA0-37E1E4C9B62B";
paths = (
{
closed = 1;
nodes = (
"484 0 OFFCURVE",
"577 76 OFFCURVE",
"577 203 CURVE SMOOTH",
"577 299 OFFCURVE",
"519 363 OFFCURVE",
"415 376 CURVE",
"506 388 OFFCURVE",
"551 439 OFFCURVE",
"551 529 CURVE SMOOTH",
"551 636 OFFCURVE",
"478 714 OFFCURVE",
"327 714 CURVE SMOOTH",
"102 714 LINE",
"102 0 LINE",
"331 0 LINE SMOOTH"
);
},
{
closed = 1;
nodes = (
"320 640 LINE SMOOTH",
"418 640 OFFCURVE",
"467 601 OFFCURVE",
"467 524 CURVE SMOOTH",
"467 449 OFFCURVE",
"415 411 OFFCURVE",
"311 411 CURVE SMOOTH",
"272 411 LINE",
"272 337 LINE",
"318 337 LINE SMOOTH",
"433 337 OFFCURVE",
"491 289 OFFCURVE",
"491 204 CURVE SMOOTH",
"491 117 OFFCURVE",
"430 74 OFFCURVE",
"308 74 CURVE SMOOTH",
"185 74 LINE",
"185 640 LINE"
);
}
);
width = 660;
}
);
note = B;
unicode = 0042;
},
{
glyphname = C;
lastChange = "2017-11-01 11:12:47 +0000";
layers = (
{
layerId = "21C067DE-0135-4A31-BCA0-37E1E4C9B62B";
paths = (
{
closed = 1;
nodes = (
"489 -10 OFFCURVE",
"548 2 OFFCURVE",
"600 25 CURVE",
"590 109 LINE",
"535 80 OFFCURVE",
"479 66 OFFCURVE",
"424 66 CURVE SMOOTH",
"271 66 OFFCURVE",
"157 174 OFFCURVE",
"157 354 CURVE SMOOTH",
"157 546 OFFCURVE",
"262 648 OFFCURVE",
"418 648 CURVE SMOOTH",
"473 648 OFFCURVE",
"527 634 OFFCURVE",
"581 607 CURVE",
"591 694 LINE",
"540 714 OFFCURVE",
"482 724 OFFCURVE",
"418 724 CURVE SMOOTH",
"206 724 OFFCURVE",
"69 583 OFFCURVE",
"69 356 CURVE SMOOTH",
"69 129 OFFCURVE",
"215 -10 OFFCURVE",
"424 -10 CURVE SMOOTH"
);
}
);
width = 660;
}
);
note = C;
unicode = 0043;
},
{
glyphname = D;
lastChange = "2017-11-01 11:12:47 +0000";
layers = (
{
layerId = "21C067DE-0135-4A31-BCA0-37E1E4C9B62B";
paths = (
{
closed = 1;
nodes = (
"244 0 LINE SMOOTH",
"449 0 OFFCURVE",
"590 135 OFFCURVE",
"590 356 CURVE SMOOTH",
"590 577 OFFCURVE",
"458 714 OFFCURVE",
"249 714 CURVE SMOOTH",
"90 714 LINE",
"90 0 LINE"
);
},
{
closed = 1;
nodes = (
"407 642 OFFCURVE",
"502 542 OFFCURVE",
"502 354 CURVE SMOOTH",
"502 177 OFFCURVE",
"397 72 OFFCURVE",
"244 72 CURVE SMOOTH",
"173 72 LINE",
"173 642 LINE",
"259 642 LINE SMOOTH"
);
}
);
width = 660;
}
);
note = D;
unicode = 0044;
},
{
glyphname = E;
lastChange = "2017-11-01 11:12:47 +0000";
layers = (
{
layerId = "21C067DE-0135-4A31-BCA0-37E1E4C9B62B";
paths = (
{
closed = 1;
nodes = (
"207 337 LINE",
"543 337 LINE",
"543 411 LINE",
"207 411 LINE",
"207 640 LINE",
"562 640 LINE",
"562 714 LINE",
"124 714 LINE",
"124 0 LINE",
"572 0 LINE",
"572 74 LINE",
"207 74 LINE"
);
}
);
width = 680;
}
);
note = E;
unicode = 0045;
},
{
glyphname = F;
lastChange = "2017-11-01 11:12:47 +0000";
layers = (
{
layerId = "21C067DE-0135-4A31-BCA0-37E1E4C9B62B";
paths = (
{
closed = 1;
nodes = (
"528 411 LINE",
"212 411 LINE",
"212 640 LINE",
"567 640 LINE",
"567 714 LINE",
"129 714 LINE",
"129 0 LINE",
"212 0 LINE",
"212 337 LINE",
"528 337 LINE"
);
}
);
width = 660;
}
);
note = F;
unicode = 0046;
},
{
glyphname = G;
lastChange = "2017-11-01 11:12:47 +0000";
layers = (
{
layerId = "21C067DE-0135-4A31-BCA0-37E1E4C9B62B";
paths = (
{
closed = 1;
nodes = (
"391 364 LINE",
"391 290 LINE",
"523 290 LINE",
"523 77 LINE",
"486 70 OFFCURVE",
"454 66 OFFCURVE",
"427 66 CURVE SMOOTH",
"270 66 OFFCURVE",
"158 173 OFFCURVE",
"158 354 CURVE SMOOTH",
"158 543 OFFCURVE",
"259 648 OFFCURVE",
"414 648 CURVE SMOOTH",
"463 648 OFFCURVE",
"513 637 OFFCURVE",
"565 615 CURVE",
"575 697 LINE",
"531 715 OFFCURVE",
"477 724 OFFCURVE",
"414 724 CURVE SMOOTH",
"215 724 OFFCURVE",
"70 581 OFFCURVE",
"70 356 CURVE SMOOTH",
"70 129 OFFCURVE",
"215 -10 OFFCURVE",
"428 -10 CURVE SMOOTH",
"486 -10 OFFCURVE",
"545 0 OFFCURVE",
"604 21 CURVE",
"604 364 LINE"
);
}
);
width = 680;
}
);
note = G;
unicode = 0047;
},
{
glyphname = H;
lastChange = "2017-11-01 11:12:47 +0000";
layers = (
{
layerId = "21C067DE-0135-4A31-BCA0-37E1E4C9B62B";
paths = (
{
closed = 1;
nodes = (
"488 410 LINE",
"192 410 LINE",
"192 714 LINE",
"109 714 LINE",
"109 0 LINE",
"192 0 LINE",
"192 336 LINE",
"488 336 LINE",
"488 0 LINE",
"571 0 LINE",
"571 714 LINE",
"488 714 LINE"
);
}
);
width = 680;
}
);
note = H;
unicode = 0048;
},
{
glyphname = I;
lastChange = "2017-11-01 11:12:47 +0000";
layers = (
{
layerId = "21C067DE-0135-4A31-BCA0-37E1E4C9B62B";
paths = (
{
closed = 1;
nodes = (
"122 0 LINE",
"557 0 LINE",
"557 74 LINE",
"381 74 LINE",
"381 640 LINE",
"557 640 LINE",
"557 714 LINE",
"122 714 LINE",
"122 640 LINE",
"298 640 LINE",
"298 74 LINE",
"122 74 LINE"
);
}
);
width = 680;
}
);
note = I;
unicode = 0049;
},
{
glyphname = J;
lastChange = "2017-11-01 11:12:47 +0000";
layers = (
{
layerId = "21C067DE-0135-4A31-BCA0-37E1E4C9B62B";
paths = (
{
closed = 1;
nodes = (
"441 258 LINE SMOOTH",
"441 135 OFFCURVE",
"369 66 OFFCURVE",
"256 66 CURVE SMOOTH",
"223 66 OFFCURVE",
"185 72 OFFCURVE",
"141 84 CURVE",
"134 6 LINE",
"173 -5 OFFCURVE",
"211 -10 OFFCURVE",
"248 -10 CURVE SMOOTH",
"425 -10 OFFCURVE",
"524 86 OFFCURVE",
"524 262 CURVE SMOOTH",
"524 714 LINE",
"140 714 LINE",
"140 640 LINE",
"441 640 LINE"
);
}
);
width = 680;
}
);
note = J;
unicode = 004A;
},
{
glyphname = K;
lastChange = "2017-11-01 11:12:47 +0000";
layers = (
{
layerId = "21C067DE-0135-4A31-BCA0-37E1E4C9B62B";
paths = (
{
closed = 1;
nodes = (
"107 0 LINE",
"190 0 LINE",
"190 714 LINE",
"107 714 LINE"
);
},
{
closed = 1;
nodes = (
"317 394 LINE",
"602 714 LINE",
"499 714 LINE",
"219 394 LINE",
"508 0 LINE",
"613 0 LINE"
);
}
);
width = 680;
}
);
note = K;
unicode = 004B;
},
{
glyphname = L;
lastChange = "2017-11-01 11:12:47 +0000";
layers = (
{
layerId = "21C067DE-0135-4A31-BCA0-37E1E4C9B62B";
paths = (
{
closed = 1;
nodes = (
"236 75 LINE",
"236 714 LINE",
"153 714 LINE",
"153 0 LINE",
"551 0 LINE",
"551 75 LINE"
);
}
);
width = 680;
}
);
note = L;
unicode = 004C;
},
{
glyphname = M;
lastChange = "2017-11-01 11:12:47 +0000";
layers = (
{
layerId = "21C067DE-0135-4A31-BCA0-37E1E4C9B62B";
paths = (
{
closed = 1;
nodes = (
"499 160 LINE",
"499 0 LINE",
"582 0 LINE",
"582 714 LINE",
"492 714 LINE",
"337 406 LINE",
"188 714 LINE",
"97 714 LINE",
"97 0 LINE",
"174 0 LINE",
"174 154 LINE",
"163 597 LINE",
"302 300 LINE",
"369 300 LINE",
"511 596 LINE"
);
}
);
width = 680;
}
);
note = M;
unicode = 004D;
},
{
glyphname = N;
lastChange = "2017-11-01 11:12:47 +0000";
layers = (
{
layerId = "21C067DE-0135-4A31-BCA0-37E1E4C9B62B";
paths = (
{
closed = 1;
nodes = (
"505 714 LINE",
"505 414 LINE",
"509 180 LINE",
"185 714 LINE",
"95 714 LINE",
"95 0 LINE",
"174 0 LINE",
"174 358 LINE",
"170 588 LINE",
"519 0 LINE",
"585 0 LINE",
"585 714 LINE"
);
}
);
width = 680;
}
);
note = N;
unicode = 004E;
},
{
glyphname = O;
lastChange = "2017-11-01 11:12:47 +0000";
layers = (
{
layerId = "21C067DE-0135-4A31-BCA0-37E1E4C9B62B";
paths = (
{
closed = 1;
nodes = (
"154 550 OFFCURVE",
"214 648 OFFCURVE",
"335 648 CURVE SMOOTH",
"454 648 OFFCURVE",
"527 541 OFFCURVE",
"527 361 CURVE SMOOTH",
"527 178 OFFCURVE",
"464 66 OFFCURVE",
"345 66 CURVE SMOOTH",
"222 66 OFFCURVE",
"154 171 OFFCURVE",
"154 354 CURVE SMOOTH"
);
},
{
closed = 1;
nodes = (
"614 577 OFFCURVE",
"521 724 OFFCURVE",
"342 724 CURVE SMOOTH",
"162 724 OFFCURVE",
"66 586 OFFCURVE",
"66 357 CURVE SMOOTH",
"66 128 OFFCURVE",
"177 -10 OFFCURVE",
"338 -10 CURVE SMOOTH",
"519 -10 OFFCURVE",
"614 129 OFFCURVE",
"614 357 CURVE SMOOTH"
);
}
);
width = 680;
}
);
note = O;
unicode = 004F;
},
{
glyphname = P;
lastChange = "2017-11-01 11:12:47 +0000";
layers = (
{
layerId = "21C067DE-0135-4A31-BCA0-37E1E4C9B62B";
paths = (
{
closed = 1;
nodes = (
"498 283 OFFCURVE",
"596 355 OFFCURVE",
"596 499 CURVE SMOOTH",
"596 631 OFFCURVE",
"506 714 OFFCURVE",
"337 714 CURVE SMOOTH",
"123 714 LINE",
"123 0 LINE",
"206 0 LINE",
"206 283 LINE",
"315 283 LINE SMOOTH"
);
},
{
closed = 1;
nodes = (
"449 640 OFFCURVE",
"510 589 OFFCURVE",
"510 500 CURVE SMOOTH",
"510 405 OFFCURVE",
"445 357 OFFCURVE",
"315 357 CURVE SMOOTH",
"206 357 LINE",
"206 640 LINE",
"326 640 LINE SMOOTH"
);
}
);
width = 680;
}
);
note = P;
unicode = 0050;
},
{
glyphname = Q;
lastChange = "2017-11-01 11:12:47 +0000";
layers = (
{
layerId = "21C067DE-0135-4A31-BCA0-37E1E4C9B62B";
paths = (
{
closed = 1;
nodes = (
"553 102 LINE",
"594 165 OFFCURVE",
"614 250 OFFCURVE",
"614 357 CURVE SMOOTH",
"614 577 OFFCURVE",
"521 724 OFFCURVE",
"342 724 CURVE SMOOTH",
"162 724 OFFCURVE",
"66 586 OFFCURVE",
"66 357 CURVE SMOOTH",
"66 128 OFFCURVE",
"177 -10 OFFCURVE",
"338 -10 CURVE SMOOTH",
"404 -10 OFFCURVE",
"459 8 OFFCURVE",
"503 44 CURVE",
"535 0 LINE",
"625 0 LINE"
);
},
{
closed = 1;
nodes = (
"154 550 OFFCURVE",
"214 648 OFFCURVE",
"335 648 CURVE SMOOTH",
"454 648 OFFCURVE",
"527 541 OFFCURVE",
"527 361 CURVE SMOOTH",
"527 284 OFFCURVE",
"518 222 OFFCURVE",
"500 177 CURVE",
"427 283 LINE",
"333 283 LINE",
"455 111 LINE",
"425 81 OFFCURVE",
"388 66 OFFCURVE",
"345 66 CURVE SMOOTH",
"222 66 OFFCURVE",
"154 171 OFFCURVE",
"154 354 CURVE SMOOTH"
);
}
);
width = 680;
}
);
note = Q;
unicode = 0051;
},
{
glyphname = R;
lastChange = "2017-11-01 11:12:47 +0000";
layers = (
{
layerId = "21C067DE-0135-4A31-BCA0-37E1E4C9B62B";
paths = (
{
closed = 1;
nodes = (
"310 283 OFFCURVE",
"329 284 OFFCURVE",
"341 285 CURVE",
"520 0 LINE",
"618 0 LINE",
"423 302 LINE",
"520 333 OFFCURVE",
"568 399 OFFCURVE",
"568 499 CURVE SMOOTH",
"568 631 OFFCURVE",
"475 714 OFFCURVE",
"306 714 CURVE SMOOTH",
"115 714 LINE",
"115 0 LINE",
"198 0 LINE",
"198 283 LINE",
"284 283 LINE SMOOTH"
);
},
{
closed = 1;
nodes = (
"418 640 OFFCURVE",
"482 588 OFFCURVE",
"482 500 CURVE SMOOTH",
"482 405 OFFCURVE",
"416 357 OFFCURVE",
"284 357 CURVE SMOOTH",
"198 357 LINE",
"198 640 LINE",
"295 640 LINE SMOOTH"
);
}
);
width = 680;
}
);
note = R;
unicode = 0052;
},
{
glyphname = S;
lastChange = "2017-11-01 11:12:47 +0000";
layers = (
{
layerId = "21C067DE-0135-4A31-BCA0-37E1E4C9B62B";
paths = (
{
closed = 1;
nodes = (
"587 282 OFFCURVE",
"542 343 OFFCURVE",
"419 383 CURVE SMOOTH",
"294 424 LINE SMOOTH",
"221 448 OFFCURVE",
"186 479 OFFCURVE",
"186 532 CURVE SMOOTH",
"186 603 OFFCURVE",
"243 648 OFFCURVE",
"354 648 CURVE SMOOTH",
"421 648 OFFCURVE",
"485 630 OFFCURVE",
"547 594 CURVE",
"565 681 LINE",
"504 710 OFFCURVE",
"433 724 OFFCURVE",
"353 724 CURVE SMOOTH",
"197 724 OFFCURVE",
"102 643 OFFCURVE",
"102 531 CURVE SMOOTH",
"102 444 OFFCURVE",
"155 383 OFFCURVE",
"262 346 CURVE SMOOTH",
"403 298 LINE SMOOTH",
"475 273 OFFCURVE",
"501 239 OFFCURVE",
"501 188 CURVE SMOOTH",
"501 112 OFFCURVE",
"434 66 OFFCURVE",
"321 66 CURVE SMOOTH",
"246 66 OFFCURVE",
"174 87 OFFCURVE",
"103 129 CURVE",
"93 40 LINE",
"158 7 OFFCURVE",
"233 -10 OFFCURVE",
"318 -10 CURVE SMOOTH",
"490 -10 OFFCURVE",
"587 66 OFFCURVE",
"587 185 CURVE SMOOTH"
);
}
);
width = 680;
}
);
note = S;
unicode = 0053;
},
{
glyphname = T;
lastChange = "2017-11-01 11:12:47 +0000";
layers = (
{
layerId = "21C067DE-0135-4A31-BCA0-37E1E4C9B62B";
paths = (
{
closed = 1;
nodes = (
"597 714 LINE",
"82 714 LINE",
"82 640 LINE",
"298 640 LINE",
"298 0 LINE",
"381 0 LINE",
"381 640 LINE",
"597 640 LINE"
);
}
);
width = 680;
}
);
note = T;
unicode = 0054;
},
{
glyphname = U;
lastChange = "2017-11-01 11:12:47 +0000";
layers = (
{
layerId = "21C067DE-0135-4A31-BCA0-37E1E4C9B62B";
paths = (
{
closed = 1;
nodes = (
"508 132 OFFCURVE",
"445 68 OFFCURVE",
"340 68 CURVE SMOOTH",
"236 68 OFFCURVE",
"174 131 OFFCURVE",
"174 238 CURVE SMOOTH",
"174 714 LINE",
"91 714 LINE",
"91 245 LINE SMOOTH",
"91 85 OFFCURVE",
"185 -10 OFFCURVE",
"340 -10 CURVE SMOOTH",
"495 -10 OFFCURVE",
"589 85 OFFCURVE",
"589 245 CURVE SMOOTH",
"589 714 LINE",
"508 714 LINE",
"508 239 LINE SMOOTH"
);
}
);
width = 680;
}
);
note = U;
unicode = 0055;
},
{
glyphname = V;
lastChange = "2017-11-01 11:12:47 +0000";
layers = (
{
layerId = "21C067DE-0135-4A31-BCA0-37E1E4C9B62B";
paths = (
{
closed = 1;
nodes = (
"261 342 LINE",
"130 714 LINE",
"41 714 LINE",
"297 0 LINE",
"381 0 LINE",
"638 714 LINE",
"548 714 LINE",
"417 342 LINE",
"339 97 LINE"
);
}
);
width = 680;
}
);
note = V;
unicode = 0056;
},
{
glyphname = W;
lastChange = "2017-11-01 11:12:47 +0000";
layers = (
{
layerId = "21C067DE-0135-4A31-BCA0-37E1E4C9B62B";
paths = (
{
closed = 1;
nodes = (
"476 714 LINE",
"398 714 LINE",
"341 494 LINE",
"284 714 LINE",
"209 714 LINE",
"300 405 LINE",
"210 97 LINE",
"178 342 LINE",
"118 714 LINE",
"31 714 LINE",
"155 0 LINE",
"251 0 LINE",
"339 286 LINE",
"427 0 LINE",
"523 0 LINE",
"648 714 LINE",
"561 714 LINE",
"501 343 LINE",
"469 97 LINE",
"379 404 LINE"
);
}
);
width = 680;
}
);
note = W;
unicode = 0057;
},
{
glyphname = X;
lastChange = "2017-11-01 11:12:47 +0000";
layers = (
{
layerId = "21C067DE-0135-4A31-BCA0-37E1E4C9B62B";
paths = (
{
closed = 1;
nodes = (
"514 714 LINE",
"340 434 LINE",
"165 714 LINE",
"71 714 LINE",
"291 374 LINE",
"55 0 LINE",
"151 0 LINE",
"338 311 LINE",
"529 0 LINE",
"624 0 LINE",
"386 376 LINE",
"607 714 LINE"
);
}
);
width = 680;
}
);
note = X;
unicode = 0058;
},
{
glyphname = Y;
lastChange = "2017-11-01 11:12:47 +0000";
layers = (
{
layerId = "21C067DE-0135-4A31-BCA0-37E1E4C9B62B";
paths = (
{
closed = 1;
nodes = (
"298 283 LINE",
"298 0 LINE",
"382 0 LINE",
"382 287 LINE",
"640 714 LINE",
"549 714 LINE",
"340 368 LINE",
"132 714 LINE",
"40 714 LINE"
);
}
);
width = 680;
}
);
note = Y;
unicode = 0059;
},
{
glyphname = Z;
lastChange = "2017-11-01 11:12:47 +0000";
layers = (
{
layerId = "21C067DE-0135-4A31-BCA0-37E1E4C9B62B";
paths = (
{
closed = 1;
nodes = (
"584 649 LINE",
"584 714 LINE",
"96 714 LINE",
"96 640 LINE",
"481 640 LINE",
"84 65 LINE",
"84 0 LINE",
"595 0 LINE",
"595 74 LINE",
"187 74 LINE"
);
}
);
width = 680;
}
);
note = Z;
unicode = 005A;
},
{
glyphname = bracketleft;
lastChange = "2017-11-01 11:12:47 +0000";
layers = (
{
layerId = "21C067DE-0135-4A31-BCA0-37E1E4C9B62B";
paths = (
{
closed = 1;
nodes = (
"291 673 LINE",
"516 673 LINE",
"516 741 LINE",
"223 741 LINE",
"223 -200 LINE",
"516 -200 LINE",
"516 -134 LINE",
"291 -134 LINE"
);
}
);
width = 680;
}
);
note = bracketleft;
unicode = 005B;
},
{
glyphname = backslash;
lastChange = "2017-11-01 11:12:47 +0000";
layers = (
{
layerId = "21C067DE-0135-4A31-BCA0-37E1E4C9B62B";
paths = (
{
closed = 1;
nodes = (
"604 0 LINE",
"165 714 LINE",
"76 714 LINE",
"515 0 LINE"
);
}
);
width = 680;
}
);
note = backslash;
unicode = 005C;
},
{
glyphname = bracketright;
lastChange = "2017-11-01 11:12:47 +0000";
layers = (
{
layerId = "21C067DE-0135-4A31-BCA0-37E1E4C9B62B";
paths = (
{
closed = 1;
nodes = (
"457 741 LINE",
"164 741 LINE",
"164 673 LINE",
"389 673 LINE",
"389 -134 LINE",
"164 -134 LINE",
"164 -200 LINE",
"457 -200 LINE"
);
}
);
width = 680;
}
);
note = bracketright;
unicode = 005D;
},
{
glyphname = asciicircum;
lastChange = "2017-11-01 11:12:47 +0000";
layers = (
{
layerId = "21C067DE-0135-4A31-BCA0-37E1E4C9B62B";
paths = (
{
closed = 1;
nodes = (
"185 245 LINE",
"340 621 LINE",
"495 245 LINE",
"573 245 LINE",
"365 714 LINE",
"315 714 LINE",
"107 245 LINE"
);
}
);
width = 680;
}
);
note = asciicircum;
unicode = 005E;
},
{
glyphname = underscore;
lastChange = "2017-11-01 11:12:47 +0000";
layers = (
{
layerId = "21C067DE-0135-4A31-BCA0-37E1E4C9B62B";
paths = (
{
closed = 1;
nodes = (
"570 68 LINE",
"110 68 LINE",
"110 0 LINE",
"570 0 LINE"
);
}
);
width = 680;
}
);
note = underscore;
unicode = 005F;
},
{
glyphname = grave;
lastChange = "2017-11-01 11:12:47 +0000";
layers = (
{
layerId = "21C067DE-0135-4A31-BCA0-37E1E4C9B62B";
paths = (
{
closed = 1;
nodes = (
"371 602 LINE",
"425 602 LINE",
"363 782 LINE",
"254 782 LINE"
);
}
);
width = 680;
}
);
note = grave;
unicode = 0060;
},
{
glyphname = a;
lastChange = "2017-11-01 11:12:47 +0000";
layers = (
{
layerId = "21C067DE-0135-4A31-BCA0-37E1E4C9B62B";
paths = (
{
closed = 1;
nodes = (
"483 51 OFFCURVE",
"491 21 OFFCURVE",
"500 0 CURVE",
"591 0 LINE",
"570 46 OFFCURVE",
"559 95 OFFCURVE",
"559 147 CURVE SMOOTH",
"559 348 LINE SMOOTH",
"559 496 OFFCURVE",
"476 562 OFFCURVE",
"339 562 CURVE SMOOTH",
"255 562 OFFCURVE",
"207 546 OFFCURVE",
"140 513 CURVE",
"150 430 LINE",
"211 465 OFFCURVE",
"271 482 OFFCURVE",
"331 482 CURVE SMOOTH",
"428 482 OFFCURVE",
"476 443 OFFCURVE",
"476 350 CURVE SMOOTH",
"476 337 LINE",
"295 311 LINE SMOOTH",
"168 293 OFFCURVE",
"104 238 OFFCURVE",
"104 145 CURVE SMOOTH",
"104 49 OFFCURVE",
"175 -10 OFFCURVE",
"292 -10 CURVE SMOOTH",
"361 -10 OFFCURVE",
"433 27 OFFCURVE",
"477 92 CURVE"
);
},
{
closed = 1;
nodes = (
"476 141 OFFCURVE",
"413 64 OFFCURVE",
"302 64 CURVE SMOOTH",
"234 64 OFFCURVE",
"191 95 OFFCURVE",
"191 147 CURVE SMOOTH",
"191 200 OFFCURVE",
"229 232 OFFCURVE",
"305 243 CURVE SMOOTH",
"476 268 LINE",
"476 260 LINE SMOOTH"
);
}
);
width = 680;
}
);
note = a;
unicode = 0061;
},
{
glyphname = b;
lastChange = "2017-11-01 11:12:47 +0000";
layers = (
{
layerId = "21C067DE-0135-4A31-BCA0-37E1E4C9B62B";
paths = (
{
closed = 1;
nodes = (
"102 0 LINE",
"186 0 LINE",
"186 87 LINE",
"227 22 OFFCURVE",
"286 -10 OFFCURVE",
"361 -10 CURVE SMOOTH",
"508 -10 OFFCURVE",
"597 108 OFFCURVE",
"597 277 CURVE SMOOTH",
"597 454 OFFCURVE",
"507 562 OFFCURVE",
"358 562 CURVE SMOOTH",
"287 562 OFFCURVE",
"223 528 OFFCURVE",
"186 467 CURVE",
"186 742 LINE",
"102 742 LINE"
);
},
{
closed = 1;
nodes = (
"184 410 OFFCURVE",
"247 486 OFFCURVE",
"348 486 CURVE SMOOTH",
"449 486 OFFCURVE",
"507 405 OFFCURVE",
"507 273 CURVE SMOOTH",
"507 142 OFFCURVE",
"442 66 OFFCURVE",
"345 66 CURVE SMOOTH",
"238 66 OFFCURVE",
"184 137 OFFCURVE",
"184 279 CURVE SMOOTH"
);
}
);
width = 680;
}
);
note = b;
unicode = 0062;
},
{
glyphname = c;
lastChange = "2017-11-01 11:12:47 +0000";
layers = (
{
layerId = "21C067DE-0135-4A31-BCA0-37E1E4C9B62B";
paths = (
{
closed = 1;
nodes = (
"485 -10 OFFCURVE",
"543 -1 OFFCURVE",
"588 17 CURVE",
"578 96 LINE",
"533 76 OFFCURVE",
"480 66 OFFCURVE",
"419 66 CURVE SMOOTH",
"287 66 OFFCURVE",
"200 148 OFFCURVE",
"200 273 CURVE SMOOTH",
"200 409 OFFCURVE",
"281 486 OFFCURVE",
"417 486 CURVE SMOOTH",
"470 486 OFFCURVE",
"521 476 OFFCURVE",
"571 457 CURVE",
"581 538 LINE",
"534 554 OFFCURVE",
"479 562 OFFCURVE",
"416 562 CURVE SMOOTH",
"237 562 OFFCURVE",
"111 450 OFFCURVE",
"111 275 CURVE SMOOTH",
"111 102 OFFCURVE",
"245 -10 OFFCURVE",
"414 -10 CURVE SMOOTH"
);
}
);
width = 680;
}
);
note = c;
unicode = 0063;
},
{
glyphname = d;
lastChange = "2017-11-01 11:12:47 +0000";
layers = (
{
layerId = "21C067DE-0135-4A31-BCA0-37E1E4C9B62B";
paths = (
{
closed = 1;
nodes = (
"457 528 OFFCURVE",
"393 562 OFFCURVE",
"322 562 CURVE SMOOTH",
"173 562 OFFCURVE",
"83 454 OFFCURVE",
"83 277 CURVE SMOOTH",
"83 108 OFFCURVE",
"172 -10 OFFCURVE",
"319 -10 CURVE SMOOTH",
"394 -10 OFFCURVE",
"453 22 OFFCURVE",
"494 87 CURVE",
"494 0 LINE",
"578 0 LINE",
"578 742 LINE",
"494 742 LINE",
"494 467 LINE"
);
},
{
closed = 1;
nodes = (
"496 137 OFFCURVE",
"442 66 OFFCURVE",
"335 66 CURVE SMOOTH",
"238 66 OFFCURVE",
"173 142 OFFCURVE",
"173 273 CURVE SMOOTH",
"173 405 OFFCURVE",
"231 486 OFFCURVE",
"332 486 CURVE SMOOTH",
"433 486 OFFCURVE",
"496 410 OFFCURVE",
"496 279 CURVE SMOOTH"
);
}
);
width = 680;
}
);
note = d;
unicode = 0064;
},
{
glyphname = e;
lastChange = "2017-11-01 11:12:47 +0000";
layers = (
{
layerId = "21C067DE-0135-4A31-BCA0-37E1E4C9B62B";
paths = (
{
closed = 1;
nodes = (
"455 -10 OFFCURVE",
"515 1 OFFCURVE",
"570 23 CURVE",
"561 107 LINE",
"499 80 OFFCURVE",
"442 66 OFFCURVE",
"390 66 CURVE SMOOTH",
"267 66 OFFCURVE",
"185 144 OFFCURVE",
"185 271 CURVE",
"589 271 LINE",
"593 288 OFFCURVE",
"595 307 OFFCURVE",
"595 329 CURVE SMOOTH",
"595 375 OFFCURVE",
"586 416 OFFCURVE",
"567 452 CURVE SMOOTH",
"529 524 OFFCURVE",
"460 562 OFFCURVE",
"360 562 CURVE SMOOTH",
"216 562 OFFCURVE",
"97 450 OFFCURVE",
"97 277 CURVE SMOOTH",
"97 97 OFFCURVE",
"211 -10 OFFCURVE",
"390 -10 CURVE SMOOTH"
);
},
{
closed = 1;
nodes = (
"450 486 OFFCURVE",
"509 434 OFFCURVE",
"509 341 CURVE",
"190 341 LINE",
"203 425 OFFCURVE",
"273 486 OFFCURVE",
"361 486 CURVE SMOOTH"
);
}
);
width = 680;
}
);
note = e;
unicode = 0065;
},
{
glyphname = f;
lastChange = "2017-11-01 11:12:47 +0000";
layers = (
{
layerId = "21C067DE-0135-4A31-BCA0-37E1E4C9B62B";
paths = (
{
closed = 1;
nodes = (
"112 482 LINE",
"271 482 LINE",
"271 0 LINE",
"354 0 LINE",
"354 482 LINE",
"574 482 LINE",
"584 552 LINE",
"354 552 LINE",
"354 580 LINE SMOOTH",
"354 651 OFFCURVE",
"387 686 OFFCURVE",
"452 686 CURVE SMOOTH",
"483 686 OFFCURVE",
"510 681 OFFCURVE",
"533 672 CURVE",
"538 751 LINE",
"510 758 OFFCURVE",
"481 762 OFFCURVE",
"450 762 CURVE SMOOTH",
"338 762 OFFCURVE",
"271 693 OFFCURVE",
"271 580 CURVE SMOOTH",
"271 552 LINE",
"112 552 LINE"
);
}
);
width = 680;
}
);
note = f;
unicode = 0066;
},
{
glyphname = g;
lastChange = "2017-11-01 11:12:47 +0000";
layers = (
{
layerId = "21C067DE-0135-4A31-BCA0-37E1E4C9B62B";
paths = (
{
closed = 1;
nodes = (
"583 22 OFFCURVE",
"529 79 OFFCURVE",
"437 79 CURVE SMOOTH",
"416 79 OFFCURVE",
"384 77 OFFCURVE",
"339 74 CURVE SMOOTH",
"294 71 OFFCURVE",
"262 69 OFFCURVE",
"241 69 CURVE SMOOTH",
"208 69 OFFCURVE",
"186 90 OFFCURVE",
"186 119 CURVE SMOOTH",
"186 145 OFFCURVE",
"201 168 OFFCURVE",
"231 189 CURVE",
"262 173 OFFCURVE",
"298 165 OFFCURVE",
"338 165 CURVE SMOOTH",
"454 165 OFFCURVE",
"543 245 OFFCURVE",
"543 353 CURVE SMOOTH",
"543 416 OFFCURVE",
"523 461 OFFCURVE",
"484 490 CURVE",
"618 482 LINE",
"628 552 LINE",
"509 552 LINE SMOOTH",
"484 552 OFFCURVE",
"454 554 OFFCURVE",
"421 557 CURVE SMOOTH",
"387 560 OFFCURVE",
"360 562 OFFCURVE",
"339 562 CURVE SMOOTH",
"211 562 OFFCURVE",
"126 482 OFFCURVE",
"126 362 CURVE SMOOTH",
"126 307 OFFCURVE",
"145 261 OFFCURVE",
"183 224 CURVE",
"136 195 OFFCURVE",
"113 157 OFFCURVE",
"113 112 CURVE SMOOTH",
"113 67 OFFCURVE",
"132 33 OFFCURVE",
"170 10 CURVE",
"128 -15 OFFCURVE",
"107 -50 OFFCURVE",
"107 -97 CURVE SMOOTH",
"107 -178 OFFCURVE",
"183 -240 OFFCURVE",
"322 -240 CURVE SMOOTH",
"483 -240 OFFCURVE",
"583 -158 OFFCURVE",
"583 -55 CURVE SMOOTH"
);
},
{
closed = 1;
nodes = (
"211 440 OFFCURVE",
"261 487 OFFCURVE",
"337 487 CURVE SMOOTH",
"406 487 OFFCURVE",
"458 436 OFFCURVE",
"458 364 CURVE SMOOTH",
"458 292 OFFCURVE",
"409 243 OFFCURVE",
"336 243 CURVE SMOOTH",
"265 243 OFFCURVE",
"211 291 OFFCURVE",
"211 363 CURVE SMOOTH"
);
},
{
closed = 1;
nodes = (
"262 -10 OFFCURVE",
"294 -8 OFFCURVE",
"338 -5 CURVE SMOOTH",
"382 -2 OFFCURVE",
"414 0 OFFCURVE",
"433 0 CURVE SMOOTH",
"480 0 OFFCURVE",
"503 -21 OFFCURVE",
"503 -63 CURVE SMOOTH",
"503 -124 OFFCURVE",
"444 -168 OFFCURVE",
"336 -168 CURVE SMOOTH",
"236 -168 OFFCURVE",
"187 -129 OFFCURVE",
"187 -77 CURVE SMOOTH",
"187 -46 OFFCURVE",
"198 -24 OFFCURVE",
"221 -9 CURVE",
"226 -10 OFFCURVE",
"233 -10 OFFCURVE",
"243 -10 CURVE SMOOTH"
);
}
);
width = 680;
}
);
note = g;
unicode = 0067;
},
{
glyphname = h;
lastChange = "2017-11-01 11:12:47 +0000";
layers = (
{
layerId = "21C067DE-0135-4A31-BCA0-37E1E4C9B62B";
paths = (
{
closed = 1;
nodes = (
"573 438 OFFCURVE",
"543 505 OFFCURVE",
"483 539 CURVE SMOOTH",
"456 554 OFFCURVE",
"420 562 OFFCURVE",
"375 562 CURVE SMOOTH",
"295 562 OFFCURVE",
"235 530 OFFCURVE",
"196 465 CURVE",
"196 741 LINE",
"112 741 LINE",
"112 0 LINE",
"196 0 LINE",
"196 248 LINE SMOOTH",
"196 392 OFFCURVE",
"235 486 OFFCURVE",
"363 486 CURVE SMOOTH",
"450 486 OFFCURVE",
"490 438 OFFCURVE",
"490 331 CURVE SMOOTH",
"490 0 LINE",
"573 0 LINE",
"573 337 LINE SMOOTH"
);
}
);
width = 680;
}
);
note = h;
unicode = 0068;
},
{
glyphname = i;
lastChange = "2017-11-01 11:12:47 +0000";
layers = (
{
layerId = "21C067DE-0135-4A31-BCA0-37E1E4C9B62B";
paths = (
{
closed = 1;
nodes = (
"305 482 LINE",
"305 70 LINE",
"126 70 LINE",
"126 0 LINE",
"567 0 LINE",
"567 70 LINE",
"388 70 LINE",
"388 552 LINE",
"136 552 LINE",
"136 482 LINE"
);
},
{
closed = 1;
nodes = (
"286 652 OFFCURVE",
"313 629 OFFCURVE",
"348 629 CURVE SMOOTH",
"383 629 OFFCURVE",
"407 652 OFFCURVE",
"407 691 CURVE SMOOTH",
"407 731 OFFCURVE",
"383 753 OFFCURVE",
"348 753 CURVE SMOOTH",
"313 753 OFFCURVE",
"286 731 OFFCURVE",
"286 691 CURVE SMOOTH"
);
}
);
width = 680;
}
);
note = i;
unicode = 0069;
},
{
glyphname = j;
lastChange = "2017-11-01 11:12:47 +0000";
layers = (
{
layerId = "21C067DE-0135-4A31-BCA0-37E1E4C9B62B";
paths = (
{
closed = 1;
nodes = (
"377 -99 OFFCURVE",
"334 -145 OFFCURVE",
"247 -145 CURVE SMOOTH",
"204 -145 OFFCURVE",
"162 -136 OFFCURVE",
"121 -118 CURVE",
"121 -197 LINE",
"164 -213 OFFCURVE",
"207 -221 OFFCURVE",
"250 -221 CURVE SMOOTH",
"379 -221 OFFCURVE",
"459 -151 OFFCURVE",
"459 -18 CURVE SMOOTH",
"459 552 LINE",
"147 552 LINE",
"147 482 LINE",
"377 482 LINE",
"377 -7 LINE SMOOTH"
);
},
{
closed = 1;
nodes = (
"357 652 OFFCURVE",
"384 629 OFFCURVE",
"419 629 CURVE SMOOTH",
"454 629 OFFCURVE",
"478 652 OFFCURVE",
"478 691 CURVE SMOOTH",
"478 731 OFFCURVE",
"454 753 OFFCURVE",
"419 753 CURVE SMOOTH",
"384 753 OFFCURVE",
"357 731 OFFCURVE",
"357 691 CURVE SMOOTH"
);
}
);
width = 680;
}
);
note = j;
unicode = 006A;
},
{
glyphname = k;
lastChange = "2017-11-01 11:12:47 +0000";
layers = (
{
layerId = "21C067DE-0135-4A31-BCA0-37E1E4C9B62B";
paths = (
{
closed = 1;
nodes = (
"342 316 LINE",
"581 552 LINE",
"476 552 LINE",
"240 315 LINE",
"498 0 LINE",
"604 0 LINE"
);
},
{
closed = 1;
nodes = (
"135 0 LINE",
"217 0 LINE",
"217 741 LINE",
"135 741 LINE"
);
}
);
width = 680;
}
);
note = k;
unicode = 006B;
},
{
glyphname = l;
lastChange = "2017-11-01 11:12:47 +0000";
layers = (
{
layerId = "21C067DE-0135-4A31-BCA0-37E1E4C9B62B";
paths = (
{
closed = 1;
nodes = (
"305 672 LINE",
"305 70 LINE",
"126 70 LINE",
"126 0 LINE",
"567 0 LINE",
"567 70 LINE",
"388 70 LINE",
"388 742 LINE",
"136 742 LINE",
"136 672 LINE"
);
}
);
width = 680;
}
);
note = l;
unicode = 006C;
},
{
glyphname = m;
lastChange = "2017-11-01 11:12:47 +0000";
layers = (
{
layerId = "21C067DE-0135-4A31-BCA0-37E1E4C9B62B";
paths = (
{
closed = 1;
nodes = (
"162 435 OFFCURVE",
"186 486 OFFCURVE",
"243 486 CURVE SMOOTH",
"283 486 OFFCURVE",
"303 461 OFFCURVE",
"303 410 CURVE SMOOTH",
"303 0 LINE",
"382 0 LINE",
"382 365 LINE SMOOTH",
"382 438 OFFCURVE",
"404 486 OFFCURVE",
"463 486 CURVE SMOOTH",
"503 486 OFFCURVE",
"523 461 OFFCURVE",
"523 410 CURVE SMOOTH",
"523 0 LINE",
"601 0 LINE",
"601 420 LINE SMOOTH",
"601 508 OFFCURVE",
"555 562 OFFCURVE",
"484 562 CURVE SMOOTH",
"431 562 OFFCURVE",
"393 536 OFFCURVE",
"368 484 CURVE",
"349 536 OFFCURVE",
"315 562 OFFCURVE",
"264 562 CURVE SMOOTH",
"219 562 OFFCURVE",
"184 537 OFFCURVE",
"160 488 CURVE",
"160 552 LINE",
"83 552 LINE",
"83 0 LINE",
"162 0 LINE",
"162 358 LINE SMOOTH"
);
}
);
width = 680;
}
);
note = m;
unicode = 006D;
},
{
glyphname = n;
lastChange = "2017-11-01 11:12:47 +0000";
layers = (
{
layerId = "21C067DE-0135-4A31-BCA0-37E1E4C9B62B";
paths = (
{
closed = 1;
nodes = (
"573 436 OFFCURVE",
"543 503 OFFCURVE",
"484 537 CURVE SMOOTH",
"456 554 OFFCURVE",
"420 562 OFFCURVE",
"375 562 CURVE SMOOTH",
"294 562 OFFCURVE",
"234 530 OFFCURVE",
"195 465 CURVE",
"195 552 LINE",
"112 552 LINE",
"112 0 LINE",
"196 0 LINE",
"196 248 LINE SMOOTH",
"196 392 OFFCURVE",
"235 486 OFFCURVE",
"363 486 CURVE SMOOTH",
"450 486 OFFCURVE",
"490 438 OFFCURVE",
"490 331 CURVE SMOOTH",
"490 0 LINE",
"573 0 LINE",
"573 337 LINE SMOOTH"
);
}
);
width = 680;
}
);
note = n;
unicode = 006E;
},
{
glyphname = o;
lastChange = "2017-11-01 11:12:47 +0000";
layers = (
{
layerId = "21C067DE-0135-4A31-BCA0-37E1E4C9B62B";
paths = (
{
closed = 1;
nodes = (
"174 415 OFFCURVE",
"228 486 OFFCURVE",
"336 486 CURVE SMOOTH",
"441 486 OFFCURVE",
"507 410 OFFCURVE",
"507 279 CURVE SMOOTH",
"507 147 OFFCURVE",
"447 66 OFFCURVE",
"343 66 CURVE SMOOTH",
"238 66 OFFCURVE",
"174 142 OFFCURVE",
"174 273 CURVE SMOOTH"
);
},
{
closed = 1;
nodes = (
"595 443 OFFCURVE",
"497 562 OFFCURVE",
"341 562 CURVE SMOOTH",
"184 562 OFFCURVE",
"85 452 OFFCURVE",
"85 276 CURVE SMOOTH",
"85 101 OFFCURVE",
"194 -10 OFFCURVE",
"338 -10 CURVE SMOOTH",
"497 -10 OFFCURVE",
"595 101 OFFCURVE",
"595 276 CURVE SMOOTH"
);
}
);
width = 680;
}
);
note = o;
unicode = 006F;
},
{
glyphname = p;
lastChange = "2017-11-01 11:12:47 +0000";
layers = (
{
layerId = "21C067DE-0135-4A31-BCA0-37E1E4C9B62B";
paths = (
{
closed = 1;
nodes = (
"223 24 OFFCURVE",
"287 -10 OFFCURVE",
"358 -10 CURVE SMOOTH",
"507 -10 OFFCURVE",
"597 98 OFFCURVE",
"597 275 CURVE SMOOTH",
"597 444 OFFCURVE",
"508 562 OFFCURVE",
"361 562 CURVE SMOOTH",
"286 562 OFFCURVE",
"227 530 OFFCURVE",
"186 465 CURVE",
"186 552 LINE",
"102 552 LINE",
"102 -220 LINE",
"186 -220 LINE",
"186 85 LINE"
);
},
{
closed = 1;
nodes = (
"184 415 OFFCURVE",
"238 486 OFFCURVE",
"345 486 CURVE SMOOTH",
"442 486 OFFCURVE",
"507 410 OFFCURVE",
"507 279 CURVE SMOOTH",
"507 147 OFFCURVE",
"449 66 OFFCURVE",
"348 66 CURVE SMOOTH",
"247 66 OFFCURVE",
"184 142 OFFCURVE",
"184 273 CURVE SMOOTH"
);
}
);
width = 680;
}
);
note = p;
unicode = 0070;
},
{
glyphname = q;
lastChange = "2017-11-01 11:12:47 +0000";
layers = (
{
layerId = "21C067DE-0135-4A31-BCA0-37E1E4C9B62B";
paths = (
{
closed = 1;
nodes = (
"578 552 LINE",
"504 552 LINE",
"494 465 LINE",
"453 530 OFFCURVE",
"394 562 OFFCURVE",
"319 562 CURVE SMOOTH",
"172 562 OFFCURVE",
"83 444 OFFCURVE",
"83 275 CURVE SMOOTH",
"83 98 OFFCURVE",
"173 -10 OFFCURVE",
"322 -10 CURVE SMOOTH",
"393 -10 OFFCURVE",
"457 24 OFFCURVE",
"494 85 CURVE",
"494 -220 LINE",
"578 -220 LINE"
);
},
{
closed = 1;
nodes = (
"496 142 OFFCURVE",
"433 66 OFFCURVE",
"332 66 CURVE SMOOTH",
"231 66 OFFCURVE",
"173 147 OFFCURVE",
"173 279 CURVE SMOOTH",
"173 410 OFFCURVE",
"238 486 OFFCURVE",
"335 486 CURVE SMOOTH",
"442 486 OFFCURVE",
"496 415 OFFCURVE",
"496 273 CURVE SMOOTH"
);
}
);
width = 680;
}
);
note = q;
unicode = 0071;
},
{
glyphname = r;
lastChange = "2017-11-01 11:12:47 +0000";
layers = (
{
layerId = "21C067DE-0135-4A31-BCA0-37E1E4C9B62B";
paths = (
{
closed = 1;
nodes = (
"224 482 LINE",
"224 70 LINE",
"85 70 LINE",
"85 0 LINE",
"556 0 LINE",
"556 70 LINE",
"308 70 LINE",
"308 238 LINE SMOOTH",
"308 365 OFFCURVE",
"334 479 OFFCURVE",
"507 479 CURVE SMOOTH",
"541 479 OFFCURVE",
"572 473 OFFCURVE",
"601 461 CURVE",
"609 549 LINE",
"576 558 OFFCURVE",
"544 562 OFFCURVE",
"512 562 CURVE SMOOTH",
"420 562 OFFCURVE",
"352 523 OFFCURVE",
"307 445 CURVE",
"307 552 LINE",
"85 552 LINE",
"85 482 LINE"
);
}
);
width = 680;
}
);
note = r;
unicode = 0072;
},
{
glyphname = s;
lastChange = "2017-11-01 11:12:47 +0000";
layers = (
{
layerId = "21C067DE-0135-4A31-BCA0-37E1E4C9B62B";
paths = (
{
closed = 1;
nodes = (
"573 230 OFFCURVE",
"519 287 OFFCURVE",
"412 312 CURVE SMOOTH",
"289 340 LINE SMOOTH",
"229 353 OFFCURVE",
"204 375 OFFCURVE",
"204 414 CURVE SMOOTH",
"204 435 OFFCURVE",
"215 452 OFFCURVE",
"238 466 CURVE SMOOTH",
"260 479 OFFCURVE",
"295 486 OFFCURVE",
"343 486 CURVE SMOOTH",
"401 486 OFFCURVE",
"464 470 OFFCURVE",
"533 437 CURVE",
"543 526 LINE",
"484 550 OFFCURVE",
"419 562 OFFCURVE",
"348 562 CURVE SMOOTH",
"201 562 OFFCURVE",
"120 502 OFFCURVE",
"120 410 CURVE SMOOTH",
"120 333 OFFCURVE",
"171 283 OFFCURVE",
"272 258 CURVE SMOOTH",
"397 228 LINE SMOOTH",
"458 213 OFFCURVE",
"488 185 OFFCURVE",
"488 142 CURVE SMOOTH",
"488 91 OFFCURVE",
"441 66 OFFCURVE",
"346 66 CURVE SMOOTH",
"272 66 OFFCURVE",
"201 86 OFFCURVE",
"133 126 CURVE",
"122 37 LINE",
"185 6 OFFCURVE",
"260 -10 OFFCURVE",
"348 -10 CURVE SMOOTH",
"497 -10 OFFCURVE",
"573 46 OFFCURVE",
"573 141 CURVE SMOOTH"
);
}
);
width = 680;
}
);
note = s;
unicode = 0073;
},
{
glyphname = t;
lastChange = "2017-11-01 11:12:47 +0000";
layers = (
{
layerId = "21C067DE-0135-4A31-BCA0-37E1E4C9B62B";
paths = (
{
closed = 1;
nodes = (
"565 552 LINE",
"316 552 LINE",
"316 689 LINE",
"233 661 LINE",
"233 552 LINE",
"74 552 LINE",
"74 482 LINE",
"233 482 LINE",
"233 192 LINE SMOOTH",
"233 63 OFFCURVE",
"313 -10 OFFCURVE",
"448 -10 CURVE SMOOTH",
"490 -10 OFFCURVE",
"531 -5 OFFCURVE",
"571 4 CURVE",
"567 85 LINE",
"520 72 OFFCURVE",
"481 66 OFFCURVE",
"450 66 CURVE SMOOTH",
"369 66 OFFCURVE",
"316 116 OFFCURVE",
"316 199 CURVE SMOOTH",
"316 482 LINE",
"555 482 LINE"
);
}
);
width = 680;
}
);
note = t;
unicode = 0074;
},
{
glyphname = u;
lastChange = "2017-11-01 11:12:47 +0000";
layers = (
{
layerId = "21C067DE-0135-4A31-BCA0-37E1E4C9B62B";
paths = (
{
closed = 1;
nodes = (
"109 62 OFFCURVE",
"186 -10 OFFCURVE",
"311 -10 CURVE SMOOTH",
"386 -10 OFFCURVE",
"443 22 OFFCURVE",
"483 87 CURVE",
"483 0 LINE",
"566 0 LINE",
"566 552 LINE",
"482 552 LINE",
"482 304 LINE SMOOTH",
"482 157 OFFCURVE",
"440 66 OFFCURVE",
"324 66 CURVE SMOOTH",
"235 66 OFFCURVE",
"192 114 OFFCURVE",
"192 221 CURVE SMOOTH",
"192 552 LINE",
"109 552 LINE",
"109 215 LINE SMOOTH"
);
}
);
width = 680;
}
);
note = u;
unicode = 0075;
},
{
glyphname = v;
lastChange = "2017-11-01 11:12:47 +0000";
layers = (
{
layerId = "21C067DE-0135-4A31-BCA0-37E1E4C9B62B";
paths = (
{
closed = 1;
nodes = (
"528 552 LINE",
"416 291 LINE",
"342 109 LINE",
"269 289 LINE",
"156 552 LINE",
"62 552 LINE",
"301 0 LINE",
"379 0 LINE",
"618 552 LINE"
);
}
);
width = 680;
}
);
note = v;
unicode = 0076;
},
{
glyphname = w;
lastChange = "2017-11-01 11:12:47 +0000";
layers = (
{
layerId = "21C067DE-0135-4A31-BCA0-37E1E4C9B62B";
paths = (
{
closed = 1;
nodes = (
"439 0 LINE",
"519 0 LINE",
"646 552 LINE",
"557 552 LINE",
"499 279 LINE",
"470 109 LINE",
"383 338 LINE",
"471 552 LINE",
"393 552 LINE",
"342 412 LINE",
"292 552 LINE",
"210 552 LINE",
"300 334 LINE",
"215 109 LINE",
"183 292 LINE",
"128 552 LINE",
"35 552 LINE",
"162 0 LINE",
"244 0 LINE",
"339 242 LINE"
);
}
);
width = 680;
}
);
note = w;
unicode = 0077;
},
{
glyphname = x;
lastChange = "2017-11-01 11:12:47 +0000";
layers = (
{
layerId = "21C067DE-0135-4A31-BCA0-37E1E4C9B62B";
paths = (
{
closed = 1;
nodes = (
"337 226 LINE",
"506 0 LINE",
"614 0 LINE",
"393 282 LINE",
"603 552 LINE",
"507 552 LINE",
"343 336 LINE",
"183 552 LINE",
"77 552 LINE",
"286 281 LINE",
"65 0 LINE",
"166 0 LINE"
);
}
);
width = 680;
}
);
note = x;
unicode = 0078;
},
{
glyphname = y;
lastChange = "2017-11-01 11:12:47 +0000";
layers = (
{
layerId = "21C067DE-0135-4A31-BCA0-37E1E4C9B62B";
paths = (
{
closed = 1;
nodes = (
"534 552 LINE",
"344 106 LINE",
"267 288 LINE",
"148 552 LINE",
"54 552 LINE",
"303 21 LINE",
"191 -220 LINE",
"283 -220 LINE",
"625 552 LINE"
);
}
);
width = 680;
}
);
note = y;
unicode = 0079;
},
{
glyphname = z;
lastChange = "2017-11-01 11:12:47 +0000";
layers = (
{
layerId = "21C067DE-0135-4A31-BCA0-37E1E4C9B62B";
paths = (
{
closed = 1;
nodes = (
"548 482 LINE",
"548 552 LINE",
"144 552 LINE",
"144 482 LINE",
"446 482 LINE",
"125 62 LINE",
"125 0 LINE",
"555 0 LINE",
"555 70 LINE",
"231 70 LINE"
);
}
);
width = 680;
}
);
note = z;
unicode = 007A;
},
{
glyphname = braceleft;
lastChange = "2017-11-01 11:12:47 +0000";
layers = (
{
layerId = "21C067DE-0135-4A31-BCA0-37E1E4C9B62B";
paths = (
{
closed = 1;
nodes = (
"316 284 OFFCURVE",
"348 328 OFFCURVE",
"348 402 CURVE SMOOTH",
"348 504 LINE SMOOTH",
"348 617 OFFCURVE",
"400 674 OFFCURVE",
"504 674 CURVE SMOOTH",
"544 674 LINE",
"544 742 LINE",
"498 742 LINE SMOOTH",
"362 742 OFFCURVE",
"280 658 OFFCURVE",
"280 519 CURVE SMOOTH",
"280 417 LINE SMOOTH",
"280 342 OFFCURVE",
"247 304 OFFCURVE",
"166 304 CURVE SMOOTH",
"155 304 LINE",
"155 238 LINE",
"166 238 LINE SMOOTH",
"247 238 OFFCURVE",
"280 200 OFFCURVE",
"280 125 CURVE SMOOTH",
"280 23 LINE SMOOTH",
"280 -116 OFFCURVE",
"362 -200 OFFCURVE",
"498 -200 CURVE SMOOTH",
"544 -200 LINE",
"544 -132 LINE",
"504 -132 LINE SMOOTH",
"400 -132 OFFCURVE",
"348 -75 OFFCURVE",
"348 38 CURVE SMOOTH",
"348 140 LINE SMOOTH",
"348 214 OFFCURVE",
"316 258 OFFCURVE",
"252 271 CURVE"
);
}
);
width = 680;
}
);
note = braceleft;
unicode = 007B;
},
{
glyphname = bar;
lastChange = "2017-11-01 11:12:47 +0000";
layers = (
{
layerId = "21C067DE-0135-4A31-BCA0-37E1E4C9B62B";
paths = (
{
closed = 1;
nodes = (
"306 742 LINE",
"306 -200 LINE",
"374 -200 LINE",
"374 742 LINE"
);
}
);
width = 680;
}
);
note = bar;
unicode = 007C;
},
{
glyphname = braceright;
lastChange = "2017-11-01 11:12:47 +0000";
layers = (
{
layerId = "21C067DE-0135-4A31-BCA0-37E1E4C9B62B";
paths = (
{
closed = 1;
nodes = (
"364 258 OFFCURVE",
"332 214 OFFCURVE",
"332 140 CURVE SMOOTH",
"332 38 LINE SMOOTH",
"332 -75 OFFCURVE",
"280 -132 OFFCURVE",
"176 -132 CURVE SMOOTH",
"136 -132 LINE",
"136 -200 LINE",
"182 -200 LINE SMOOTH",
"318 -200 OFFCURVE",
"400 -116 OFFCURVE",
"400 23 CURVE SMOOTH",
"400 125 LINE SMOOTH",
"400 200 OFFCURVE",
"433 238 OFFCURVE",
"514 238 CURVE SMOOTH",
"525 238 LINE",
"525 304 LINE",
"514 304 LINE SMOOTH",
"433 304 OFFCURVE",
"400 342 OFFCURVE",
"400 417 CURVE SMOOTH",
"400 519 LINE SMOOTH",
"400 658 OFFCURVE",
"318 742 OFFCURVE",
"182 742 CURVE SMOOTH",
"136 742 LINE",
"136 674 LINE",
"176 674 LINE SMOOTH",
"280 674 OFFCURVE",
"332 617 OFFCURVE",
"332 504 CURVE SMOOTH",
"332 402 LINE SMOOTH",
"332 328 OFFCURVE",
"364 284 OFFCURVE",
"428 271 CURVE"
);
}
);
width = 680;
}
);
note = braceright;
unicode = 007D;
},
{
glyphname = asciitilde;
lastChange = "2017-11-01 11:12:47 +0000";
layers = (
{
layerId = "21C067DE-0135-4A31-BCA0-37E1E4C9B62B";
paths = (
{
closed = 1;
nodes = (
"177 420 OFFCURVE",
"139 408 OFFCURVE",
"105 383 CURVE",
"105 303 LINE",
"139 336 OFFCURVE",
"177 353 OFFCURVE",
"220 353 CURVE SMOOTH",
"247 353 OFFCURVE",
"282 344 OFFCURVE",
"323 326 CURVE SMOOTH",
"373 305 OFFCURVE",
"418 294 OFFCURVE",
"459 294 CURVE SMOOTH",
"502 294 OFFCURVE",
"540 306 OFFCURVE",
"574 331 CURVE",
"574 411 LINE",
"540 378 OFFCURVE",
"502 361 OFFCURVE",
"459 361 CURVE SMOOTH",
"433 361 OFFCURVE",
"399 370 OFFCURVE",
"356 388 CURVE SMOOTH",
"303 409 OFFCURVE",
"258 420 OFFCURVE",
"220 420 CURVE SMOOTH"
);
}
);
width = 680;
}
);
note = asciitilde;
unicode = 007E;
},
{
glyphname = exclamdown;
lastChange = "2017-11-01 11:12:47 +0000";
layers = (
{
layerId = "21C067DE-0135-4A31-BCA0-37E1E4C9B62B";
paths = (
{
closed = 1;
nodes = (
"290 0 LINE",
"391 0 LINE",
"366 517 LINE",
"315 517 LINE"
);
},
{
closed = 1;
nodes = (
"282 629 OFFCURVE",
"309 606 OFFCURVE",
"341 606 CURVE SMOOTH",
"372 606 OFFCURVE",
"398 629 OFFCURVE",
"398 665 CURVE SMOOTH",
"398 700 OFFCURVE",
"372 724 OFFCURVE",
"341 724 CURVE SMOOTH",
"309 724 OFFCURVE",
"282 700 OFFCURVE",
"282 665 CURVE SMOOTH"
);
}
);
width = 680;
}
);
note = exclamdown;
unicode = 00A1;
},
{
glyphname = cent;
lastChange = "2017-11-01 11:12:47 +0000";
layers = (
{
layerId = "21C067DE-0135-4A31-BCA0-37E1E4C9B62B";
paths = (
{
closed = 1;
nodes = (
"449 -9 LINE",
"503 -7 OFFCURVE",
"549 2 OFFCURVE",
"588 17 CURVE",
"578 96 LINE",
"538 78 OFFCURVE",
"495 68 OFFCURVE",
"449 66 CURVE",
"449 485 LINE",
"486 482 OFFCURVE",
"526 473 OFFCURVE",
"571 457 CURVE",
"581 538 LINE",
"541 551 OFFCURVE",
"497 559 OFFCURVE",
"449 561 CURVE",
"449 742 LINE",
"381 742 LINE",
"381 560 LINE",
"221 545 OFFCURVE",
"111 436 OFFCURVE",
"111 275 CURVE SMOOTH",
"111 112 OFFCURVE",
"226 5 OFFCURVE",
"381 -8 CURVE",
"381 -200 LINE",
"449 -200 LINE"
);
},
{
closed = 1;
nodes = (
"200 396 OFFCURVE",
"266 471 OFFCURVE",
"381 484 CURVE",
"381 68 LINE",
"269 83 OFFCURVE",
"200 161 OFFCURVE",
"200 273 CURVE SMOOTH"
);
}
);
width = 680;
}
);
note = cent;
unicode = 00A2;
},
{
glyphname = sterling;
lastChange = "2017-11-01 11:12:47 +0000";
layers = (
{
layerId = "21C067DE-0135-4A31-BCA0-37E1E4C9B62B";
paths = (
{
closed = 1;
nodes = (
"190 144 OFFCURVE",
"163 95 OFFCURVE",
"110 69 CURVE",
"110 0 LINE",
"584 0 LINE",
"584 74 LINE",
"193 74 LINE",
"245 101 OFFCURVE",
"273 142 OFFCURVE",
"273 229 CURVE SMOOTH",
"273 331 LINE",
"512 331 LINE",
"522 399 LINE",
"273 399 LINE",
"273 456 LINE SMOOTH",
"273 580 OFFCURVE",
"337 648 OFFCURVE",
"448 648 CURVE SMOOTH",
"489 648 OFFCURVE",
"532 641 OFFCURVE",
"575 628 CURVE",
"583 707 LINE",
"532 718 OFFCURVE",
"489 724 OFFCURVE",
"456 724 CURVE SMOOTH",
"291 724 OFFCURVE",
"190 628 OFFCURVE",
"190 457 CURVE SMOOTH",
"190 399 LINE",
"111 399 LINE",
"111 331 LINE",
"190 331 LINE",
"190 217 LINE SMOOTH"
);
}
);
width = 680;
}
);
note = sterling;
unicode = 00A3;
},
{
glyphname = yen;
lastChange = "2017-11-01 11:12:47 +0000";
layers = (
{
layerId = "21C067DE-0135-4A31-BCA0-37E1E4C9B62B";
paths = (
{
closed = 1;
nodes = (
"298 183 LINE",
"98 183 LINE",
"98 115 LINE",
"298 115 LINE",
"298 0 LINE",
"382 0 LINE",
"382 115 LINE",
"582 115 LINE",
"582 183 LINE",
"382 183 LINE",
"382 276 LINE",
"582 276 LINE",
"582 344 LINE",
"416 344 LINE",
"640 714 LINE",
"549 714 LINE",
"340 368 LINE",
"132 714 LINE",
"40 714 LINE",
"261 344 LINE",
"98 344 LINE",
"98 276 LINE",
"298 276 LINE"
);
}
);
width = 680;
}
);
note = yen;
unicode = 00A5;
},
{
glyphname = brokenbar;
lastChange = "2017-11-01 11:12:47 +0000";
layers = (
{
layerId = "21C067DE-0135-4A31-BCA0-37E1E4C9B62B";
paths = (
{
closed = 1;
nodes = (
"306 162 LINE",
"306 -200 LINE",
"374 -200 LINE",
"374 162 LINE"
);
},
{
closed = 1;
nodes = (
"306 742 LINE",
"306 380 LINE",
"374 380 LINE",
"374 742 LINE"
);
}
);
width = 680;
}
);
note = brokenbar;
unicode = 00A6;
},
{
glyphname = section;
lastChange = "2017-11-01 11:12:47 +0000";
layers = (
{
layerId = "21C067DE-0135-4A31-BCA0-37E1E4C9B62B";
paths = (
{
closed = 1;
nodes = (
"149 203 OFFCURVE",
"189 147 OFFCURVE",
"270 106 CURVE SMOOTH",
"374 53 LINE SMOOTH",
"425 27 OFFCURVE",
"451 -4 OFFCURVE",
"451 -39 CURVE SMOOTH",
"451 -90 OFFCURVE",
"410 -125 OFFCURVE",
"334 -125 CURVE SMOOTH",
"262 -125 OFFCURVE",
"218 -107 OFFCURVE",
"150 -67 CURVE",
"138 -154 LINE",
"195 -185 OFFCURVE",
"261 -201 OFFCURVE",
"336 -201 CURVE SMOOTH",
"463 -201 OFFCURVE",
"536 -138 OFFCURVE",
"536 -39 CURVE SMOOTH",
"536 22 OFFCURVE",
"506 71 OFFCURVE",
"445 109 CURVE",
"509 144 OFFCURVE",
"541 193 OFFCURVE",
"541 254 CURVE SMOOTH",
"541 329 OFFCURVE",
"510 384 OFFCURVE",
"419 428 CURVE SMOOTH",
"310 482 LINE SMOOTH",
"263 506 OFFCURVE",
"239 535 OFFCURVE",
"239 569 CURVE SMOOTH",
"239 613 OFFCURVE",
"277 648 OFFCURVE",
"350 648 CURVE SMOOTH",
"399 648 OFFCURVE",
"450 632 OFFCURVE",
"504 599 CURVE",
"516 682 LINE",
"467 710 OFFCURVE",
"411 724 OFFCURVE",
"349 724 CURVE SMOOTH",
"233 724 OFFCURVE",
"155 658 OFFCURVE",
"155 562 CURVE SMOOTH",
"155 505 OFFCURVE",
"183 459 OFFCURVE",
"238 424 CURVE",
"179 387 OFFCURVE",
"149 337 OFFCURVE",
"149 274 CURVE SMOOTH"
);
},
{
closed = 1;
nodes = (
"231 332 OFFCURVE",
"255 368 OFFCURVE",
"302 391 CURVE",
"388 349 LINE SMOOTH",
"435 326 OFFCURVE",
"458 294 OFFCURVE",
"458 254 CURVE SMOOTH",
"458 209 OFFCURVE",
"427 167 OFFCURVE",
"382 143 CURVE",
"304 184 LINE SMOOTH",
"255 210 OFFCURVE",
"231 244 OFFCURVE",
"231 285 CURVE SMOOTH"
);
}
);
width = 680;
}
);
note = section;
unicode = 00A7;
},
{
glyphname = dieresis;
lastChange = "2017-11-01 11:12:47 +0000";
layers = (
{
layerId = "21C067DE-0135-4A31-BCA0-37E1E4C9B62B";
paths = (
{
closed = 1;
nodes = (
"221 645 OFFCURVE",
"233 640 OFFCURVE",
"247 640 CURVE SMOOTH",
"274 640 OFFCURVE",
"295 659 OFFCURVE",
"295 691 CURVE SMOOTH",
"295 723 OFFCURVE",
"274 742 OFFCURVE",
"247 742 CURVE SMOOTH",
"219 742 OFFCURVE",
"196 723 OFFCURVE",
"196 691 CURVE SMOOTH",
"196 675 OFFCURVE",
"201 663 OFFCURVE",
"211 654 CURVE SMOOTH"
);
},
{
closed = 1;
nodes = (
"410 645 OFFCURVE",
"422 640 OFFCURVE",
"436 640 CURVE SMOOTH",
"463 640 OFFCURVE",
"484 659 OFFCURVE",
"484 691 CURVE SMOOTH",
"484 723 OFFCURVE",
"463 742 OFFCURVE",
"436 742 CURVE SMOOTH",
"408 742 OFFCURVE",
"385 723 OFFCURVE",
"385 691 CURVE SMOOTH",
"385 675 OFFCURVE",
"390 663 OFFCURVE",
"400 654 CURVE SMOOTH"
);
}
);
width = 680;
}
);
note = dieresis;
unicode = 00A8;
},
{
glyphname = copyright;
lastChange = "2017-11-01 11:12:47 +0000";
layers = (
{
layerId = "21C067DE-0135-4A31-BCA0-37E1E4C9B62B";
paths = (
{
closed = 1;
nodes = (
"376 208 OFFCURVE",
"405 214 OFFCURVE",
"433 227 CURVE",
"428 289 LINE",
"397 272 OFFCURVE",
"370 264 OFFCURVE",
"349 264 CURVE SMOOTH",
"300 264 OFFCURVE",
"257 300 OFFCURVE",
"257 359 CURVE SMOOTH",
"257 422 OFFCURVE",
"296 456 OFFCURVE",
"348 456 CURVE SMOOTH",
"369 456 OFFCURVE",
"395 449 OFFCURVE",
"425 434 CURVE",
"430 495 LINE",
"403 507 OFFCURVE",
"375 513 OFFCURVE",
"348 513 CURVE SMOOTH",
"260 513 OFFCURVE",
"196 452 OFFCURVE",
"196 359 CURVE SMOOTH",
"196 267 OFFCURVE",
"263 208 OFFCURVE",
"347 208 CURVE SMOOTH"
);
},
{
closed = 1;
nodes = (
"56 200 OFFCURVE",
"172 77 OFFCURVE",
"340 77 CURVE SMOOTH",
"503 77 OFFCURVE",
"623 197 OFFCURVE",
"623 360 CURVE SMOOTH",
"623 520 OFFCURVE",
"505 644 OFFCURVE",
"340 644 CURVE SMOOTH",
"180 644 OFFCURVE",
"56 527 OFFCURVE",
"56 360 CURVE SMOOTH"
);
},
{
closed = 1;
nodes = (
"122 488 OFFCURVE",
"216 578 OFFCURVE",
"340 578 CURVE SMOOTH",
"467 578 OFFCURVE",
"557 484 OFFCURVE",
"557 360 CURVE SMOOTH",
"557 235 OFFCURVE",
"467 143 OFFCURVE",
"340 143 CURVE SMOOTH",
"211 143 OFFCURVE",
"122 236 OFFCURVE",
"122 360 CURVE SMOOTH"
);
}
);
width = 680;
}
);
note = copyright;
unicode = 00A9;
},
{
glyphname = ordfeminine;
lastChange = "2017-11-01 11:12:47 +0000";
layers = (
{
layerId = "21C067DE-0135-4A31-BCA0-37E1E4C9B62B";
paths = (
{
closed = 1;
nodes = (
"473 330 OFFCURVE",
"467 363 OFFCURVE",
"467 392 CURVE SMOOTH",
"467 521 LINE SMOOTH",
"467 609 OFFCURVE",
"417 651 OFFCURVE",
"337 651 CURVE SMOOTH",
"294 651 OFFCURVE",
"252 640 OFFCURVE",
"213 618 CURVE",
"221 549 LINE",
"260 572 OFFCURVE",
"297 583 OFFCURVE",
"333 583 CURVE SMOOTH",
"376 583 OFFCURVE",
"398 561 OFFCURVE",
"398 518 CURVE SMOOTH",
"398 508 LINE",
"320 498 LINE SMOOTH",
"233 486 OFFCURVE",
"193 456 OFFCURVE",
"193 391 CURVE SMOOTH",
"193 328 OFFCURVE",
"236 288 OFFCURVE",
"304 288 CURVE SMOOTH",
"345 288 OFFCURVE",
"378 307 OFFCURVE",
"403 345 CURVE",
"408 320 OFFCURVE",
"412 303 OFFCURVE",
"415 294 CURVE",
"486 294 LINE"
);
},
{
closed = 1;
nodes = (
"285 347 OFFCURVE",
"265 363 OFFCURVE",
"265 391 CURVE SMOOTH",
"265 421 OFFCURVE",
"287 440 OFFCURVE",
"330 447 CURVE SMOOTH",
"398 458 LINE",
"398 439 LINE SMOOTH",
"398 384 OFFCURVE",
"367 347 OFFCURVE",
"316 347 CURVE SMOOTH"
);
}
);
width = 680;
}
);
note = ordfeminine;
unicode = 00AA;
},
{
glyphname = guillemotleft;
lastChange = "2017-11-01 11:12:47 +0000";
layers = (
{
layerId = "21C067DE-0135-4A31-BCA0-37E1E4C9B62B";
paths = (
{
closed = 1;
nodes = (
"384 50 LINE",
"199 268 LINE",
"384 486 LINE",
"295 486 LINE",
"112 268 LINE",
"295 50 LINE"
);
},
{
closed = 1;
nodes = (
"578 50 LINE",
"393 268 LINE",
"578 486 LINE",
"489 486 LINE",
"306 268 LINE",
"489 50 LINE"
);
}
);
width = 680;
}
);
note = guillemotleft;
unicode = 00AB;
},
{
glyphname = logicalnot;
lastChange = "2017-11-01 11:12:47 +0000";
layers = (
{
layerId = "21C067DE-0135-4A31-BCA0-37E1E4C9B62B";
paths = (
{
closed = 1;
nodes = (
"507 424 LINE",
"507 224 LINE",
"574 224 LINE",
"574 491 LINE",
"105 491 LINE",
"105 424 LINE"
);
}
);
width = 680;
}
);
note = logicalnot;
unicode = 00AC;
},
{
glyphname = uni00AD;
lastChange = "2017-11-01 11:12:47 +0000";
layers = (
{
layerId = "21C067DE-0135-4A31-BCA0-37E1E4C9B62B";
paths = (
{
closed = 1;
nodes = (
"190 305 LINE",
"190 231 LINE",
"490 231 LINE",
"490 305 LINE"
);
}
);
width = 680;
}
);
note = uni00AD;
unicode = 00AD;
},
{
glyphname = registered;
lastChange = "2017-11-01 11:12:47 +0000";
layers = (
{
layerId = "21C067DE-0135-4A31-BCA0-37E1E4C9B62B";
paths = (
{
closed = 1;
nodes = (
"399 211 LINE",
"469 211 LINE",
"390 332 LINE",
"422 349 OFFCURVE",
"438 376 OFFCURVE",
"438 413 CURVE SMOOTH",
"438 472 OFFCURVE",
"398 508 OFFCURVE",
"326 508 CURVE SMOOTH",
"240 508 LINE",
"240 211 LINE",
"300 211 LINE",
"300 317 LINE",
"332 317 LINE"
);
},
{
closed = 1;
nodes = (
"359 452 OFFCURVE",
"378 439 OFFCURVE",
"378 413 CURVE SMOOTH",
"378 386 OFFCURVE",
"358 373 OFFCURVE",
"317 373 CURVE SMOOTH",
"300 373 LINE",
"300 452 LINE",
"322 452 LINE SMOOTH"
);
},
{
closed = 1;
nodes = (
"53 199 OFFCURVE",
"169 76 OFFCURVE",
"337 76 CURVE SMOOTH",
"500 76 OFFCURVE",
"620 196 OFFCURVE",
"620 359 CURVE SMOOTH",
"620 519 OFFCURVE",
"502 643 OFFCURVE",
"337 643 CURVE SMOOTH",
"177 643 OFFCURVE",
"53 526 OFFCURVE",
"53 359 CURVE SMOOTH"
);
},
{
closed = 1;
nodes = (
"119 487 OFFCURVE",
"213 577 OFFCURVE",
"337 577 CURVE SMOOTH",
"464 577 OFFCURVE",
"554 483 OFFCURVE",
"554 359 CURVE SMOOTH",
"554 234 OFFCURVE",
"464 142 OFFCURVE",
"337 142 CURVE SMOOTH",
"208 142 OFFCURVE",
"119 235 OFFCURVE",
"119 359 CURVE SMOOTH"
);
}
);
width = 680;
}
);
note = registered;
unicode = 00AE;
},
{
glyphname = macron;
lastChange = "2017-11-01 11:12:47 +0000";
layers = (
{
layerId = "21C067DE-0135-4A31-BCA0-37E1E4C9B62B";
paths = (
{
closed = 1;
nodes = (
"484 742 LINE",
"196 742 LINE",
"196 675 LINE",
"484 675 LINE"
);
}
);
width = 680;
}
);
note = macron;
unicode = 00AF;
},
{
glyphname = degree;
lastChange = "2017-11-01 11:12:47 +0000";
layers = (
{
layerId = "21C067DE-0135-4A31-BCA0-37E1E4C9B62B";
paths = (
{
closed = 1;
nodes = (
"188 483 OFFCURVE",
"253 420 OFFCURVE",
"340 420 CURVE SMOOTH",
"424 420 OFFCURVE",
"492 483 OFFCURVE",
"492 572 CURVE SMOOTH",
"492 659 OFFCURVE",
"427 724 OFFCURVE",
"340 724 CURVE SMOOTH",
"253 724 OFFCURVE",
"188 659 OFFCURVE",
"188 572 CURVE SMOOTH"
);
},
{
closed = 1;
nodes = (
"251 627 OFFCURVE",
"288 664 OFFCURVE",
"341 664 CURVE SMOOTH",
"393 664 OFFCURVE",
"429 625 OFFCURVE",
"429 572 CURVE SMOOTH",
"429 519 OFFCURVE",
"393 480 OFFCURVE",
"341 480 CURVE SMOOTH",
"289 480 OFFCURVE",
"251 516 OFFCURVE",
"251 572 CURVE SMOOTH"
);
}
);
width = 680;
}
);
note = degree;
unicode = 00B0;
},
{
glyphname = plusminus;
lastChange = "2017-11-01 11:12:47 +0000";
layers = (
{
layerId = "21C067DE-0135-4A31-BCA0-37E1E4C9B62B";
paths = (
{
closed = 1;
nodes = (
"305 453 LINE",
"105 453 LINE",
"105 386 LINE",
"305 386 LINE",
"305 208 LINE",
"373 208 LINE",
"373 386 LINE",
"574 386 LINE",
"574 453 LINE",
"373 453 LINE",
"373 632 LINE",
"305 632 LINE"
);
},
{
closed = 1;
nodes = (
"574 70 LINE",
"574 137 LINE",
"105 137 LINE",
"105 70 LINE"
);
}
);
width = 680;
}
);
note = plusminus;
unicode = 00B1;
},
{
glyphname = twosuperior;
lastChange = "2017-11-01 11:12:47 +0000";
layers = (
{
layerId = "21C067DE-0135-4A31-BCA0-37E1E4C9B62B";
paths = (
{
closed = 1;
nodes = (
"251 668 OFFCURVE",
"289 682 OFFCURVE",
"326 682 CURVE SMOOTH",
"371 682 OFFCURVE",
"402 656 OFFCURVE",
"402 615 CURVE SMOOTH",
"402 595 OFFCURVE",
"396 575 OFFCURVE",
"383 556 CURVE SMOOTH",
"370 536 OFFCURVE",
"344 506 OFFCURVE",
"304 466 CURVE SMOOTH",
"189 350 LINE",
"189 294 LINE",
"490 294 LINE",
"490 358 LINE",
"283 358 LINE",
"359 431 LINE SMOOTH",
"450 518 OFFCURVE",
"474 555 OFFCURVE",
"474 614 CURVE SMOOTH",
"474 695 OFFCURVE",
"415 748 OFFCURVE",
"327 748 CURVE SMOOTH",
"281 748 OFFCURVE",
"239 736 OFFCURVE",
"201 711 CURVE",
"211 641 LINE"
);
}
);
width = 680;
}
);
note = twosuperior;
unicode = 00B2;
},
{
glyphname = threesuperior;
lastChange = "2017-11-01 11:12:47 +0000";
layers = (
{
layerId = "21C067DE-0135-4A31-BCA0-37E1E4C9B62B";
paths = (
{
closed = 1;
nodes = (
"233 303 OFFCURVE",
"280 288 OFFCURVE",
"331 288 CURVE SMOOTH",
"427 288 OFFCURVE",
"489 341 OFFCURVE",
"489 422 CURVE SMOOTH",
"489 477 OFFCURVE",
"451 522 OFFCURVE",
"394 531 CURVE",
"449 550 OFFCURVE",
"476 582 OFFCURVE",
"476 625 CURVE SMOOTH",
"476 696 OFFCURVE",
"414 748 OFFCURVE",
"333 748 CURVE SMOOTH",
"288 748 OFFCURVE",
"246 735 OFFCURVE",
"205 709 CURVE",
"216 639 LINE",
"257 668 OFFCURVE",
"296 682 OFFCURVE",
"333 682 CURVE SMOOTH",
"377 682 OFFCURVE",
"404 656 OFFCURVE",
"404 623 CURVE SMOOTH",
"404 584 OFFCURVE",
"372 557 OFFCURVE",
"307 557 CURVE SMOOTH",
"253 557 LINE",
"253 500 LINE",
"310 500 LINE SMOOTH",
"382 500 OFFCURVE",
"417 468 OFFCURVE",
"417 424 CURVE SMOOTH",
"417 383 OFFCURVE",
"386 354 OFFCURVE",
"331 354 CURVE SMOOTH",
"290 354 OFFCURVE",
"249 371 OFFCURVE",
"210 404 CURVE",
"190 333 LINE"
);
}
);
width = 680;
}
);
note = threesuperior;
unicode = 00B3;
},
{
glyphname = acute;
lastChange = "2017-11-01 11:12:47 +0000";
layers = (
{
layerId = "21C067DE-0135-4A31-BCA0-37E1E4C9B62B";
paths = (
{
closed = 1;
nodes = (
"425 782 LINE",
"316 782 LINE",
"254 602 LINE",
"308 602 LINE"
);
}
);
width = 680;
}
);
note = acute;
unicode = 00B4;
},
{
glyphname = mu;
lastChange = "2017-11-01 11:12:47 +0000";
layers = (
{
layerId = "21C067DE-0135-4A31-BCA0-37E1E4C9B62B";
paths = (
{
closed = 1;
nodes = (
"194 -220 LINE",
"194 -134 LINE",
"185 37 LINE",
"216 6 OFFCURVE",
"258 -10 OFFCURVE",
"313 -10 CURVE SMOOTH",
"384 -10 OFFCURVE",
"448 26 OFFCURVE",
"485 87 CURVE",
"485 0 LINE",
"568 0 LINE",
"568 552 LINE",
"484 552 LINE",
"484 304 LINE SMOOTH",
"484 160 OFFCURVE",
"442 66 OFFCURVE",
"326 66 CURVE SMOOTH",
"238 66 OFFCURVE",
"194 118 OFFCURVE",
"194 221 CURVE SMOOTH",
"194 552 LINE",
"111 552 LINE",
"111 -220 LINE"
);
}
);
width = 680;
}
);
note = mu;
unicode = 00B5;
},
{
glyphname = paragraph;
lastChange = "2017-11-01 11:12:47 +0000";
layers = (
{
layerId = "21C067DE-0135-4A31-BCA0-37E1E4C9B62B";
paths = (
{
closed = 1;
nodes = (
"75 362 OFFCURVE",
"172 272 OFFCURVE",
"307 272 CURVE SMOOTH",
"341 272 LINE",
"341 -220 LINE",
"409 -220 LINE",
"409 646 LINE",
"481 646 LINE",
"481 -220 LINE",
"549 -220 LINE",
"549 714 LINE",
"318 714 LINE SMOOTH",
"167 714 OFFCURVE",
"75 625 OFFCURVE",
"75 493 CURVE SMOOTH"
);
}
);
width = 680;
}
);
note = paragraph;
unicode = 00B6;
},
{
glyphname = periodcentered;
lastChange = "2017-11-01 11:12:47 +0000";
layers = (
{
layerId = "21C067DE-0135-4A31-BCA0-37E1E4C9B62B";
paths = (
{
closed = 1;
nodes = (
"309 299 OFFCURVE",
"324 293 OFFCURVE",
"341 293 CURVE SMOOTH",
"374 293 OFFCURVE",
"404 319 OFFCURVE",
"404 358 CURVE SMOOTH",
"404 397 OFFCURVE",
"374 423 OFFCURVE",
"341 423 CURVE SMOOTH",
"306 423 OFFCURVE",
"276 397 OFFCURVE",
"276 358 CURVE SMOOTH",
"276 339 OFFCURVE",
"283 323 OFFCURVE",
"296 311 CURVE SMOOTH"
);
}
);
width = 680;
}
);
note = periodcentered;
unicode = 00B7;
},
{
glyphname = cedilla;
lastChange = "2017-11-01 11:12:47 +0000";
layers = (
{
layerId = "21C067DE-0135-4A31-BCA0-37E1E4C9B62B";
paths = (
{
closed = 1;
nodes = (
"254 -230 LINE",
"363 -230 LINE",
"425 -50 LINE",
"371 -50 LINE"
);
}
);
width = 680;
}
);
note = cedilla;
unicode = 00B8;
},
{
glyphname = onesuperior;
lastChange = "2017-11-01 11:12:47 +0000";
layers = (
{
layerId = "21C067DE-0135-4A31-BCA0-37E1E4C9B62B";
paths = (
{
closed = 1;
nodes = (
"199 632 LINE",
"238 579 LINE",
"273 605 LINE",
"331 657 LINE",
"331 294 LINE",
"400 294 LINE",
"400 742 LINE",
"342 742 LINE"
);
}
);
width = 680;
}
);
note = onesuperior;
unicode = 00B9;
},
{
glyphname = ordmasculine;
lastChange = "2017-11-01 11:12:47 +0000";
layers = (
{
layerId = "21C067DE-0135-4A31-BCA0-37E1E4C9B62B";
paths = (
{
closed = 1;
nodes = (
"250 547 OFFCURVE",
"279 586 OFFCURVE",
"337 586 CURVE SMOOTH",
"394 586 OFFCURVE",
"430 544 OFFCURVE",
"430 471 CURVE SMOOTH",
"430 398 OFFCURVE",
"397 354 OFFCURVE",
"341 354 CURVE SMOOTH",
"285 354 OFFCURVE",
"250 396 OFFCURVE",
"250 468 CURVE SMOOTH"
);
},
{
closed = 1;
nodes = (
"503 575 OFFCURVE",
"440 651 OFFCURVE",
"340 651 CURVE SMOOTH",
"239 651 OFFCURVE",
"177 581 OFFCURVE",
"177 470 CURVE SMOOTH",
"177 359 OFFCURVE",
"247 288 OFFCURVE",
"338 288 CURVE SMOOTH",
"439 288 OFFCURVE",
"503 358 OFFCURVE",
"503 470 CURVE SMOOTH"
);
}
);
width = 680;
}
);
note = ordmasculine;
unicode = 00BA;
},
{
glyphname = guillemotright;
lastChange = "2017-11-01 11:12:47 +0000";
layers = (
{
layerId = "21C067DE-0135-4A31-BCA0-37E1E4C9B62B";
paths = (
{
closed = 1;
nodes = (
"287 268 LINE",
"102 50 LINE",
"191 50 LINE",
"374 268 LINE",
"191 486 LINE",
"102 486 LINE"
);
},
{
closed = 1;
nodes = (
"481 268 LINE",
"296 50 LINE",
"385 50 LINE",
"568 268 LINE",
"385 486 LINE",
"296 486 LINE"
);
}
);
width = 680;
}
);
note = guillemotright;
unicode = 00BB;
},
{
glyphname = onequarter;
lastChange = "2017-11-01 11:12:47 +0000";
layers = (
{
layerId = "21C067DE-0135-4A31-BCA0-37E1E4C9B62B";
paths = (
{
closed = 1;
nodes = (
"199 832 LINE",
"238 779 LINE",
"273 805 LINE",
"331 857 LINE",
"331 494 LINE",
"400 494 LINE",
"400 942 LINE",
"342 942 LINE"
);
},
{
closed = 1;
nodes = (
"590 388 LINE",
"90 388 LINE",
"90 326 LINE",
"590 326 LINE"
);
},
{
closed = 1;
nodes = (
"448 228 LINE",
"377 228 LINE",
"171 -66 LINE",
"171 -124 LINE",
"379 -124 LINE",
"379 -220 LINE",
"448 -220 LINE",
"448 -124 LINE",
"509 -124 LINE",
"509 -57 LINE",
"448 -57 LINE"
);
},
{
closed = 1;
nodes = (
"379 137 LINE",
"379 -57 LINE",
"250 -57 LINE",
"315 37 LINE"
);
}
);
width = 680;
}
);
note = onequarter;
unicode = 00BC;
},
{
glyphname = onehalf;
lastChange = "2017-11-01 11:12:47 +0000";
layers = (
{
layerId = "21C067DE-0135-4A31-BCA0-37E1E4C9B62B";
paths = (
{
closed = 1;
nodes = (
"199 832 LINE",
"238 779 LINE",
"273 805 LINE",
"331 857 LINE",
"331 494 LINE",
"400 494 LINE",
"400 942 LINE",
"342 942 LINE"
);
},
{
closed = 1;
nodes = (
"590 388 LINE",
"90 388 LINE",
"90 326 LINE",
"590 326 LINE"
);
},
{
closed = 1;
nodes = (
"251 154 OFFCURVE",
"289 168 OFFCURVE",
"326 168 CURVE SMOOTH",
"371 168 OFFCURVE",
"402 142 OFFCURVE",
"402 101 CURVE SMOOTH",
"402 81 OFFCURVE",
"396 61 OFFCURVE",
"383 42 CURVE SMOOTH",
"370 22 OFFCURVE",
"344 -8 OFFCURVE",
"304 -48 CURVE SMOOTH",
"189 -164 LINE",
"189 -220 LINE",
"490 -220 LINE",
"490 -156 LINE",
"283 -156 LINE",
"359 -83 LINE SMOOTH",
"450 4 OFFCURVE",
"474 41 OFFCURVE",
"474 100 CURVE SMOOTH",
"474 181 OFFCURVE",
"415 234 OFFCURVE",
"327 234 CURVE SMOOTH",
"281 234 OFFCURVE",
"239 222 OFFCURVE",
"201 197 CURVE",
"211 127 LINE"
);
}
);
width = 680;
}
);
note = onehalf;
unicode = 00BD;
},
{
glyphname = threequarters;
lastChange = "2017-11-01 11:12:47 +0000";
layers = (
{
layerId = "21C067DE-0135-4A31-BCA0-37E1E4C9B62B";
paths = (
{
closed = 1;
nodes = (
"233 503 OFFCURVE",
"280 488 OFFCURVE",
"331 488 CURVE SMOOTH",
"427 488 OFFCURVE",
"489 541 OFFCURVE",
"489 622 CURVE SMOOTH",
"489 677 OFFCURVE",
"451 722 OFFCURVE",
"394 731 CURVE",
"449 750 OFFCURVE",
"476 782 OFFCURVE",
"476 825 CURVE SMOOTH",
"476 896 OFFCURVE",
"414 948 OFFCURVE",
"333 948 CURVE SMOOTH",
"288 948 OFFCURVE",
"246 935 OFFCURVE",
"205 909 CURVE",
"216 839 LINE",
"257 868 OFFCURVE",
"296 882 OFFCURVE",
"333 882 CURVE SMOOTH",
"377 882 OFFCURVE",
"404 856 OFFCURVE",
"404 823 CURVE SMOOTH",
"404 784 OFFCURVE",
"372 757 OFFCURVE",
"307 757 CURVE SMOOTH",
"253 757 LINE",
"253 700 LINE",
"310 700 LINE SMOOTH",
"382 700 OFFCURVE",
"417 668 OFFCURVE",
"417 624 CURVE SMOOTH",
"417 583 OFFCURVE",
"386 554 OFFCURVE",
"331 554 CURVE SMOOTH",
"290 554 OFFCURVE",
"249 571 OFFCURVE",
"210 604 CURVE",
"190 533 LINE"
);
},
{
closed = 1;
nodes = (
"590 388 LINE",
"90 388 LINE",
"90 326 LINE",
"590 326 LINE"
);
},
{
closed = 1;
nodes = (
"448 228 LINE",
"377 228 LINE",
"171 -66 LINE",
"171 -124 LINE",
"379 -124 LINE",
"379 -220 LINE",
"448 -220 LINE",
"448 -124 LINE",
"509 -124 LINE",
"509 -57 LINE",
"448 -57 LINE"
);
},
{
closed = 1;
nodes = (
"379 137 LINE",
"379 -57 LINE",
"250 -57 LINE",
"315 37 LINE"
);
}
);
width = 680;
}
);
note = threequarters;
unicode = 00BE;
},
{
glyphname = questiondown;
lastChange = "2017-11-01 11:12:47 +0000";
layers = (
{
layerId = "21C067DE-0135-4A31-BCA0-37E1E4C9B62B";
paths = (
{
closed = 1;
nodes = (
"367 700 OFFCURVE",
"340 724 OFFCURVE",
"308 724 CURVE SMOOTH",
"277 724 OFFCURVE",
"251 700 OFFCURVE",
"251 665 CURVE SMOOTH",
"251 629 OFFCURVE",
"277 606 OFFCURVE",
"308 606 CURVE SMOOTH",
"340 606 OFFCURVE",
"367 629 OFFCURVE",
"367 665 CURVE SMOOTH"
);
},
{
closed = 1;
nodes = (
"82 71 OFFCURVE",
"164 -10 OFFCURVE",
"297 -10 CURVE SMOOTH",
"360 -10 OFFCURVE",
"420 7 OFFCURVE",
"477 42 CURVE",
"461 120 LINE",
"409 83 OFFCURVE",
"355 65 OFFCURVE",
"298 65 CURVE SMOOTH",
"207 65 OFFCURVE",
"163 110 OFFCURVE",
"163 177 CURVE SMOOTH",
"163 212 OFFCURVE",
"187 253 OFFCURVE",
"234 298 CURVE SMOOTH",
"289 351 LINE SMOOTH",
"323 383 OFFCURVE",
"340 421 OFFCURVE",
"340 464 CURVE SMOOTH",
"340 483 OFFCURVE",
"337 501 OFFCURVE",
"330 517 CURVE",
"277 517 LINE",
"280 496 OFFCURVE",
"281 484 OFFCURVE",
"281 482 CURVE SMOOTH",
"281 453 OFFCURVE",
"267 425 OFFCURVE",
"240 400 CURVE SMOOTH",
"149 315 LINE SMOOTH",
"104 273 OFFCURVE",
"82 227 OFFCURVE",
"82 176 CURVE SMOOTH"
);
}
);
width = 680;
}
);
note = questiondown;
unicode = 00BF;
},
{
glyphname = Agrave;
lastChange = "2017-11-01 11:12:47 +0000";
layers = (
{
layerId = "21C067DE-0135-4A31-BCA0-37E1E4C9B62B";
paths = (
{
closed = 1;
nodes = (
"290 714 LINE",
"33 0 LINE",
"117 0 LINE",
"180 187 LINE",
"477 187 LINE",
"540 0 LINE",
"627 0 LINE",
"371 714 LINE"
);
},
{
closed = 1;
nodes = (
"329 623 LINE",
"396 422 LINE",
"452 261 LINE",
"207 261 LINE",
"268 437 LINE"
);
},
{
closed = 1;
nodes = (
"306 754 LINE",
"360 754 LINE",
"298 934 LINE",
"189 934 LINE"
);
}
);
width = 660;
}
);
note = Agrave;
unicode = 00C0;
},
{
glyphname = Aacute;
lastChange = "2017-11-01 11:12:47 +0000";
layers = (
{
layerId = "21C067DE-0135-4A31-BCA0-37E1E4C9B62B";
paths = (
{
closed = 1;
nodes = (
"290 714 LINE",
"33 0 LINE",
"117 0 LINE",
"180 187 LINE",
"477 187 LINE",
"540 0 LINE",
"627 0 LINE",
"371 714 LINE"
);
},
{
closed = 1;
nodes = (
"329 623 LINE",
"396 422 LINE",
"452 261 LINE",
"207 261 LINE",
"268 437 LINE"
);
},
{
closed = 1;
nodes = (
"478 934 LINE",
"369 934 LINE",
"307 754 LINE",
"361 754 LINE"
);
}
);
width = 660;
}
);
note = Aacute;
unicode = 00C1;
},
{
glyphname = Acircumflex;
lastChange = "2017-11-01 11:12:47 +0000";
layers = (
{
layerId = "21C067DE-0135-4A31-BCA0-37E1E4C9B62B";
paths = (
{
closed = 1;
nodes = (
"290 714 LINE",
"33 0 LINE",
"117 0 LINE",
"180 187 LINE",
"477 187 LINE",
"540 0 LINE",
"627 0 LINE",
"371 714 LINE"
);
},
{
closed = 1;
nodes = (
"329 623 LINE",
"396 422 LINE",
"452 261 LINE",
"207 261 LINE",
"268 437 LINE"
);
},
{
closed = 1;
nodes = (
"331 855 LINE",
"439 754 LINE",
"497 754 LINE",
"372 934 LINE",
"291 934 LINE",
"168 754 LINE",
"224 754 LINE"
);
}
);
width = 660;
}
);
note = Acircumflex;
unicode = 00C2;
},
{
glyphname = Atilde;
lastChange = "2017-11-01 11:12:47 +0000";
layers = (
{
layerId = "21C067DE-0135-4A31-BCA0-37E1E4C9B62B";
paths = (
{
closed = 1;
nodes = (
"290 714 LINE",
"33 0 LINE",
"117 0 LINE",
"180 187 LINE",
"477 187 LINE",
"540 0 LINE",
"627 0 LINE",
"371 714 LINE"
);
},
{
closed = 1;
nodes = (
"329 623 LINE",
"396 422 LINE",
"452 261 LINE",
"207 261 LINE",
"268 437 LINE"
);
},
{
closed = 1;
nodes = (
"454 788 OFFCURVE",
"487 827 OFFCURVE",
"494 891 CURVE",
"443 909 LINE",
"436 874 OFFCURVE",
"422 857 OFFCURVE",
"401 857 CURVE SMOOTH",
"391 857 OFFCURVE",
"370 865 OFFCURVE",
"339 880 CURVE SMOOTH",
"307 895 OFFCURVE",
"282 903 OFFCURVE",
"265 903 CURVE SMOOTH",
"212 903 OFFCURVE",
"172 863 OFFCURVE",
"165 798 CURVE",
"216 782 LINE",
"223 818 OFFCURVE",
"236 834 OFFCURVE",
"263 834 CURVE SMOOTH",
"274 834 OFFCURVE",
"296 826 OFFCURVE",
"329 811 CURVE SMOOTH",
"361 796 OFFCURVE",
"385 788 OFFCURVE",
"402 788 CURVE SMOOTH"
);
}
);
width = 660;
}
);
note = Atilde;
unicode = 00C3;
},
{
glyphname = Adieresis;
lastChange = "2017-11-01 11:12:47 +0000";
layers = (
{
layerId = "21C067DE-0135-4A31-BCA0-37E1E4C9B62B";
paths = (
{
closed = 1;
nodes = (
"290 714 LINE",
"33 0 LINE",
"117 0 LINE",
"180 187 LINE",
"477 187 LINE",
"540 0 LINE",
"627 0 LINE",
"371 714 LINE"
);
},
{
closed = 1;
nodes = (
"329 623 LINE",
"396 422 LINE",
"452 261 LINE",
"207 261 LINE",
"268 437 LINE"
);
},
{
closed = 1;
nodes = (
"211 787 OFFCURVE",
"223 782 OFFCURVE",
"237 782 CURVE SMOOTH",
"264 782 OFFCURVE",
"285 801 OFFCURVE",
"285 833 CURVE SMOOTH",
"285 865 OFFCURVE",
"264 884 OFFCURVE",
"237 884 CURVE SMOOTH",
"209 884 OFFCURVE",
"186 865 OFFCURVE",
"186 833 CURVE SMOOTH",
"186 817 OFFCURVE",
"191 805 OFFCURVE",
"201 796 CURVE SMOOTH"
);
},
{
closed = 1;
nodes = (
"400 787 OFFCURVE",
"412 782 OFFCURVE",
"426 782 CURVE SMOOTH",
"453 782 OFFCURVE",
"474 801 OFFCURVE",
"474 833 CURVE SMOOTH",
"474 865 OFFCURVE",
"453 884 OFFCURVE",
"426 884 CURVE SMOOTH",
"398 884 OFFCURVE",
"375 865 OFFCURVE",
"375 833 CURVE SMOOTH",
"375 817 OFFCURVE",
"380 805 OFFCURVE",
"390 796 CURVE SMOOTH"
);
}
);
width = 660;
}
);
note = Adieresis;
unicode = 00C4;
},
{
glyphname = Aring;
lastChange = "2017-11-01 11:12:47 +0000";
layers = (
{
layerId = "21C067DE-0135-4A31-BCA0-37E1E4C9B62B";
paths = (
{
closed = 1;
nodes = (
"438 845 OFFCURVE",
"392 891 OFFCURVE",
"328 891 CURVE SMOOTH",
"264 891 OFFCURVE",
"220 847 OFFCURVE",
"220 787 CURVE SMOOTH",
"220 738 OFFCURVE",
"240 706 OFFCURVE",
"281 690 CURVE",
"33 0 LINE",
"117 0 LINE",
"180 187 LINE",
"477 187 LINE",
"540 0 LINE",
"627 0 LINE",
"379 692 LINE",
"418 709 OFFCURVE",
"438 741 OFFCURVE",
"438 788 CURVE SMOOTH"
);
},
{
closed = 1;
nodes = (
"329 623 LINE",
"396 422 LINE",
"452 261 LINE",
"207 261 LINE",
"268 437 LINE"
);
},
{
closed = 1;
nodes = (
"359 735 OFFCURVE",
"345 730 OFFCURVE",
"328 730 CURVE SMOOTH",
"292 730 OFFCURVE",
"271 752 OFFCURVE",
"271 787 CURVE SMOOTH",
"271 820 OFFCURVE",
"295 844 OFFCURVE",
"328 844 CURVE SMOOTH",
"361 844 OFFCURVE",
"385 820 OFFCURVE",
"385 787 CURVE SMOOTH",
"385 770 OFFCURVE",
"380 757 OFFCURVE",
"370 746 CURVE"
);
}
);
width = 660;
}
);
note = Aring;
unicode = 00C5;
},
{
glyphname = AE;
lastChange = "2017-11-01 11:12:47 +0000";
layers = (
{
layerId = "21C067DE-0135-4A31-BCA0-37E1E4C9B62B";
paths = (
{
closed = 1;
nodes = (
"642 74 LINE",
"539 74 LINE",
"458 337 LINE",
"613 337 LINE",
"613 411 LINE",
"435 411 LINE",
"365 640 LINE",
"632 640 LINE",
"632 714 LINE",
"253 714 LINE",
"30 0 LINE",
"114 0 LINE",
"172 187 LINE",
"419 187 LINE",
"477 0 LINE",
"642 0 LINE"
);
},
{
closed = 1;
nodes = (
"356 391 LINE",
"396 261 LINE",
"195 261 LINE",
"237 397 LINE",
"296 596 LINE"
);
}
);
width = 680;
}
);
note = AE;
unicode = 00C6;
},
{
glyphname = Ccedilla;
lastChange = "2017-11-01 11:12:47 +0000";
layers = (
{
layerId = "21C067DE-0135-4A31-BCA0-37E1E4C9B62B";
paths = (
{
closed = 1;
nodes = (
"489 -10 OFFCURVE",
"548 2 OFFCURVE",
"600 25 CURVE",
"590 109 LINE",
"535 80 OFFCURVE",
"479 66 OFFCURVE",
"424 66 CURVE SMOOTH",
"271 66 OFFCURVE",
"157 174 OFFCURVE",
"157 354 CURVE SMOOTH",
"157 546 OFFCURVE",
"262 648 OFFCURVE",
"418 648 CURVE SMOOTH",
"473 648 OFFCURVE",
"527 634 OFFCURVE",
"581 607 CURVE",
"591 694 LINE",
"540 714 OFFCURVE",
"482 724 OFFCURVE",
"418 724 CURVE SMOOTH",
"206 724 OFFCURVE",
"69 583 OFFCURVE",
"69 356 CURVE SMOOTH",
"69 129 OFFCURVE",
"215 -10 OFFCURVE",
"424 -10 CURVE SMOOTH"
);
},
{
closed = 1;
nodes = (
"274 -230 LINE",
"383 -230 LINE",
"445 -50 LINE",
"391 -50 LINE"
);
}
);
width = 660;
}
);
note = Ccedilla;
unicode = 00C7;
},
{
glyphname = Egrave;
lastChange = "2017-11-01 11:12:47 +0000";
layers = (
{
layerId = "21C067DE-0135-4A31-BCA0-37E1E4C9B62B";
paths = (
{
closed = 1;
nodes = (
"207 337 LINE",
"543 337 LINE",
"543 411 LINE",
"207 411 LINE",
"207 640 LINE",
"562 640 LINE",
"562 714 LINE",
"124 714 LINE",
"124 0 LINE",
"572 0 LINE",
"572 74 LINE",
"207 74 LINE"
);
},
{
closed = 1;
nodes = (
"335 754 LINE",
"389 754 LINE",
"327 934 LINE",
"218 934 LINE"
);
}
);
width = 680;
}
);
note = Egrave;
unicode = 00C8;
},
{
glyphname = Eacute;
lastChange = "2017-11-01 11:12:47 +0000";
layers = (
{
layerId = "21C067DE-0135-4A31-BCA0-37E1E4C9B62B";
paths = (
{
closed = 1;
nodes = (
"207 337 LINE",
"543 337 LINE",
"543 411 LINE",
"207 411 LINE",
"207 640 LINE",
"562 640 LINE",
"562 714 LINE",
"124 714 LINE",
"124 0 LINE",
"572 0 LINE",
"572 74 LINE",
"207 74 LINE"
);
},
{
closed = 1;
nodes = (
"469 934 LINE",
"360 934 LINE",
"298 754 LINE",
"352 754 LINE"
);
}
);
width = 680;
}
);
note = Eacute;
unicode = 00C9;
},
{
glyphname = Ecircumflex;
lastChange = "2017-11-01 11:12:47 +0000";
layers = (
{
layerId = "21C067DE-0135-4A31-BCA0-37E1E4C9B62B";
paths = (
{
closed = 1;
nodes = (
"207 337 LINE",
"543 337 LINE",
"543 411 LINE",
"207 411 LINE",
"207 640 LINE",
"562 640 LINE",
"562 714 LINE",
"124 714 LINE",
"124 0 LINE",
"572 0 LINE",
"572 74 LINE",
"207 74 LINE"
);
},
{
closed = 1;
nodes = (
"342 855 LINE",
"450 754 LINE",
"508 754 LINE",
"383 934 LINE",
"302 934 LINE",
"179 754 LINE",
"235 754 LINE"
);
}
);
width = 680;
}
);
note = Ecircumflex;
unicode = 00CA;
},
{
glyphname = Edieresis;
lastChange = "2017-11-01 11:12:47 +0000";
layers = (
{
layerId = "21C067DE-0135-4A31-BCA0-37E1E4C9B62B";
paths = (
{
closed = 1;
nodes = (
"207 337 LINE",
"543 337 LINE",
"543 411 LINE",
"207 411 LINE",
"207 640 LINE",
"562 640 LINE",
"562 714 LINE",
"124 714 LINE",
"124 0 LINE",
"572 0 LINE",
"572 74 LINE",
"207 74 LINE"
);
},
{
closed = 1;
nodes = (
"225 787 OFFCURVE",
"237 782 OFFCURVE",
"251 782 CURVE SMOOTH",
"278 782 OFFCURVE",
"299 801 OFFCURVE",
"299 833 CURVE SMOOTH",
"299 865 OFFCURVE",
"278 884 OFFCURVE",
"251 884 CURVE SMOOTH",
"223 884 OFFCURVE",
"200 865 OFFCURVE",
"200 833 CURVE SMOOTH",
"200 817 OFFCURVE",
"205 805 OFFCURVE",
"215 796 CURVE SMOOTH"
);
},
{
closed = 1;
nodes = (
"414 787 OFFCURVE",
"426 782 OFFCURVE",
"440 782 CURVE SMOOTH",
"467 782 OFFCURVE",
"488 801 OFFCURVE",
"488 833 CURVE SMOOTH",
"488 865 OFFCURVE",
"467 884 OFFCURVE",
"440 884 CURVE SMOOTH",
"412 884 OFFCURVE",
"389 865 OFFCURVE",
"389 833 CURVE SMOOTH",
"389 817 OFFCURVE",
"394 805 OFFCURVE",
"404 796 CURVE SMOOTH"
);
}
);
width = 680;
}
);
note = Edieresis;
unicode = 00CB;
},
{
glyphname = Igrave;
lastChange = "2017-11-01 11:12:47 +0000";
layers = (
{
layerId = "21C067DE-0135-4A31-BCA0-37E1E4C9B62B";
paths = (
{
closed = 1;
nodes = (
"122 0 LINE",
"557 0 LINE",
"557 74 LINE",
"381 74 LINE",
"381 640 LINE",
"557 640 LINE",
"557 714 LINE",
"122 714 LINE",
"122 640 LINE",
"298 640 LINE",
"298 74 LINE",
"122 74 LINE"
);
},
{
closed = 1;
nodes = (
"341 754 LINE",
"395 754 LINE",
"333 934 LINE",
"224 934 LINE"
);
}
);
width = 680;
}
);
note = Igrave;
unicode = 00CC;
},
{
glyphname = Iacute;
lastChange = "2017-11-01 11:12:47 +0000";
layers = (
{
layerId = "21C067DE-0135-4A31-BCA0-37E1E4C9B62B";
paths = (
{
closed = 1;
nodes = (
"122 0 LINE",
"557 0 LINE",
"557 74 LINE",
"381 74 LINE",
"381 640 LINE",
"557 640 LINE",
"557 714 LINE",
"122 714 LINE",
"122 640 LINE",
"298 640 LINE",
"298 74 LINE",
"122 74 LINE"
);
},
{
closed = 1;
nodes = (
"455 934 LINE",
"346 934 LINE",
"284 754 LINE",
"338 754 LINE"
);
}
);
width = 680;
}
);
note = Iacute;
unicode = 00CD;
},
{
glyphname = Icircumflex;
lastChange = "2017-11-01 11:12:47 +0000";
layers = (
{
layerId = "21C067DE-0135-4A31-BCA0-37E1E4C9B62B";
paths = (
{
closed = 1;
nodes = (
"122 0 LINE",
"557 0 LINE",
"557 74 LINE",
"381 74 LINE",
"381 640 LINE",
"557 640 LINE",
"557 714 LINE",
"122 714 LINE",
"122 640 LINE",
"298 640 LINE",
"298 74 LINE",
"122 74 LINE"
);
},
{
closed = 1;
nodes = (
"338 855 LINE",
"446 754 LINE",
"504 754 LINE",
"379 934 LINE",
"298 934 LINE",
"175 754 LINE",
"231 754 LINE"
);
}
);
width = 680;
}
);
note = Icircumflex;
unicode = 00CE;
},
{
glyphname = Idieresis;
lastChange = "2017-11-01 11:12:47 +0000";
layers = (
{
layerId = "21C067DE-0135-4A31-BCA0-37E1E4C9B62B";
paths = (
{
closed = 1;
nodes = (
"122 0 LINE",
"557 0 LINE",
"557 74 LINE",
"381 74 LINE",
"381 640 LINE",
"557 640 LINE",
"557 714 LINE",
"122 714 LINE",
"122 640 LINE",
"298 640 LINE",
"298 74 LINE",
"122 74 LINE"
);
},
{
closed = 1;
nodes = (
"220 787 OFFCURVE",
"232 782 OFFCURVE",
"246 782 CURVE SMOOTH",
"273 782 OFFCURVE",
"294 801 OFFCURVE",
"294 833 CURVE SMOOTH",
"294 865 OFFCURVE",
"273 884 OFFCURVE",
"246 884 CURVE SMOOTH",
"218 884 OFFCURVE",
"195 865 OFFCURVE",
"195 833 CURVE SMOOTH",
"195 817 OFFCURVE",
"200 805 OFFCURVE",
"210 796 CURVE SMOOTH"
);
},
{
closed = 1;
nodes = (
"409 787 OFFCURVE",
"421 782 OFFCURVE",
"435 782 CURVE SMOOTH",
"462 782 OFFCURVE",
"483 801 OFFCURVE",
"483 833 CURVE SMOOTH",
"483 865 OFFCURVE",
"462 884 OFFCURVE",
"435 884 CURVE SMOOTH",
"407 884 OFFCURVE",
"384 865 OFFCURVE",
"384 833 CURVE SMOOTH",
"384 817 OFFCURVE",
"389 805 OFFCURVE",
"399 796 CURVE SMOOTH"
);
}
);
width = 680;
}
);
note = Idieresis;
unicode = 00CF;
},
{
glyphname = Eth;
lastChange = "2017-11-01 11:12:47 +0000";
layers = (
{
layerId = "21C067DE-0135-4A31-BCA0-37E1E4C9B62B";
paths = (
{
closed = 1;
nodes = (
"244 0 LINE SMOOTH",
"449 0 OFFCURVE",
"590 135 OFFCURVE",
"590 356 CURVE SMOOTH",
"590 577 OFFCURVE",
"458 714 OFFCURVE",
"249 714 CURVE SMOOTH",
"90 714 LINE",
"90 0 LINE"
);
},
{
closed = 1;
nodes = (
"407 642 OFFCURVE",
"502 542 OFFCURVE",
"502 354 CURVE SMOOTH",
"502 177 OFFCURVE",
"397 72 OFFCURVE",
"244 72 CURVE SMOOTH",
"173 72 LINE",
"173 322 LINE",
"371 322 LINE",
"371 390 LINE",
"173 390 LINE",
"173 642 LINE",
"259 642 LINE SMOOTH"
);
}
);
width = 660;
}
);
note = Eth;
unicode = 00D0;
},
{
glyphname = Ntilde;
lastChange = "2017-11-01 11:12:47 +0000";
layers = (
{
layerId = "21C067DE-0135-4A31-BCA0-37E1E4C9B62B";
paths = (
{
closed = 1;
nodes = (
"505 714 LINE",
"505 414 LINE",
"509 180 LINE",
"185 714 LINE",
"95 714 LINE",
"95 0 LINE",
"174 0 LINE",
"174 358 LINE",
"170 588 LINE",
"519 0 LINE",
"585 0 LINE",
"585 714 LINE"
);
},
{
closed = 1;
nodes = (
"474 788 OFFCURVE",
"507 827 OFFCURVE",
"514 891 CURVE",
"463 909 LINE",
"456 874 OFFCURVE",
"442 857 OFFCURVE",
"421 857 CURVE SMOOTH",
"411 857 OFFCURVE",
"390 865 OFFCURVE",
"359 880 CURVE SMOOTH",
"327 895 OFFCURVE",
"302 903 OFFCURVE",
"285 903 CURVE SMOOTH",
"232 903 OFFCURVE",
"192 863 OFFCURVE",
"185 798 CURVE",
"236 782 LINE",
"243 818 OFFCURVE",
"256 834 OFFCURVE",
"283 834 CURVE SMOOTH",
"294 834 OFFCURVE",
"316 826 OFFCURVE",
"349 811 CURVE SMOOTH",
"381 796 OFFCURVE",
"405 788 OFFCURVE",
"422 788 CURVE SMOOTH"
);
}
);
width = 680;
}
);
note = Ntilde;
unicode = 00D1;
},
{
glyphname = Ograve;
lastChange = "2017-11-01 11:12:47 +0000";
layers = (
{
layerId = "21C067DE-0135-4A31-BCA0-37E1E4C9B62B";
paths = (
{
closed = 1;
nodes = (
"154 550 OFFCURVE",
"214 648 OFFCURVE",
"335 648 CURVE SMOOTH",
"454 648 OFFCURVE",
"527 541 OFFCURVE",
"527 361 CURVE SMOOTH",
"527 178 OFFCURVE",
"464 66 OFFCURVE",
"345 66 CURVE SMOOTH",
"222 66 OFFCURVE",
"154 171 OFFCURVE",
"154 354 CURVE SMOOTH"
);
},
{
closed = 1;
nodes = (
"614 577 OFFCURVE",
"521 724 OFFCURVE",
"342 724 CURVE SMOOTH",
"162 724 OFFCURVE",
"66 586 OFFCURVE",
"66 357 CURVE SMOOTH",
"66 128 OFFCURVE",
"177 -10 OFFCURVE",
"338 -10 CURVE SMOOTH",
"519 -10 OFFCURVE",
"614 129 OFFCURVE",
"614 357 CURVE SMOOTH"
);
},
{
closed = 1;
nodes = (
"341 754 LINE",
"395 754 LINE",
"333 934 LINE",
"224 934 LINE"
);
}
);
width = 680;
}
);
note = Ograve;
unicode = 00D2;
},
{
glyphname = Oacute;
lastChange = "2017-11-01 11:12:47 +0000";
layers = (
{
layerId = "21C067DE-0135-4A31-BCA0-37E1E4C9B62B";
paths = (
{
closed = 1;
nodes = (
"154 550 OFFCURVE",
"214 648 OFFCURVE",
"335 648 CURVE SMOOTH",
"454 648 OFFCURVE",
"527 541 OFFCURVE",
"527 361 CURVE SMOOTH",
"527 178 OFFCURVE",
"464 66 OFFCURVE",
"345 66 CURVE SMOOTH",
"222 66 OFFCURVE",
"154 171 OFFCURVE",
"154 354 CURVE SMOOTH"
);
},
{
closed = 1;
nodes = (
"614 577 OFFCURVE",
"521 724 OFFCURVE",
"342 724 CURVE SMOOTH",
"162 724 OFFCURVE",
"66 586 OFFCURVE",
"66 357 CURVE SMOOTH",
"66 128 OFFCURVE",
"177 -10 OFFCURVE",
"338 -10 CURVE SMOOTH",
"519 -10 OFFCURVE",
"614 129 OFFCURVE",
"614 357 CURVE SMOOTH"
);
},
{
closed = 1;
nodes = (
"455 934 LINE",
"346 934 LINE",
"284 754 LINE",
"338 754 LINE"
);
}
);
width = 680;
}
);
note = Oacute;
unicode = 00D3;
},
{
glyphname = Ocircumflex;
lastChange = "2017-11-01 11:12:47 +0000";
layers = (
{
layerId = "21C067DE-0135-4A31-BCA0-37E1E4C9B62B";
paths = (
{
closed = 1;
nodes = (
"154 550 OFFCURVE",
"214 648 OFFCURVE",
"335 648 CURVE SMOOTH",
"454 648 OFFCURVE",
"527 541 OFFCURVE",
"527 361 CURVE SMOOTH",
"527 178 OFFCURVE",
"464 66 OFFCURVE",
"345 66 CURVE SMOOTH",
"222 66 OFFCURVE",
"154 171 OFFCURVE",
"154 354 CURVE SMOOTH"
);
},
{
closed = 1;
nodes = (
"614 577 OFFCURVE",
"521 724 OFFCURVE",
"342 724 CURVE SMOOTH",
"162 724 OFFCURVE",
"66 586 OFFCURVE",
"66 357 CURVE SMOOTH",
"66 128 OFFCURVE",
"177 -10 OFFCURVE",
"338 -10 CURVE SMOOTH",
"519 -10 OFFCURVE",
"614 129 OFFCURVE",
"614 357 CURVE SMOOTH"
);
},
{
closed = 1;
nodes = (
"338 855 LINE",
"446 754 LINE",
"504 754 LINE",
"379 934 LINE",
"298 934 LINE",
"175 754 LINE",
"231 754 LINE"
);
}
);
width = 680;
}
);
note = Ocircumflex;
unicode = 00D4;
},
{
glyphname = Otilde;
lastChange = "2017-11-01 11:12:47 +0000";
layers = (
{
layerId = "21C067DE-0135-4A31-BCA0-37E1E4C9B62B";
paths = (
{
closed = 1;
nodes = (
"154 550 OFFCURVE",
"214 648 OFFCURVE",
"335 648 CURVE SMOOTH",
"454 648 OFFCURVE",
"527 541 OFFCURVE",
"527 361 CURVE SMOOTH",
"527 178 OFFCURVE",
"464 66 OFFCURVE",
"345 66 CURVE SMOOTH",
"222 66 OFFCURVE",
"154 171 OFFCURVE",
"154 354 CURVE SMOOTH"
);
},
{
closed = 1;
nodes = (
"614 577 OFFCURVE",
"521 724 OFFCURVE",
"342 724 CURVE SMOOTH",
"162 724 OFFCURVE",
"66 586 OFFCURVE",
"66 357 CURVE SMOOTH",
"66 128 OFFCURVE",
"177 -10 OFFCURVE",
"338 -10 CURVE SMOOTH",
"519 -10 OFFCURVE",
"614 129 OFFCURVE",
"614 357 CURVE SMOOTH"
);
},
{
closed = 1;
nodes = (
"464 788 OFFCURVE",
"497 827 OFFCURVE",
"504 891 CURVE",
"453 909 LINE",
"446 874 OFFCURVE",
"432 857 OFFCURVE",
"411 857 CURVE SMOOTH",
"401 857 OFFCURVE",
"380 865 OFFCURVE",
"349 880 CURVE SMOOTH",
"317 895 OFFCURVE",
"292 903 OFFCURVE",
"275 903 CURVE SMOOTH",
"222 903 OFFCURVE",
"182 863 OFFCURVE",
"175 798 CURVE",
"226 782 LINE",
"233 818 OFFCURVE",
"246 834 OFFCURVE",
"273 834 CURVE SMOOTH",
"284 834 OFFCURVE",
"306 826 OFFCURVE",
"339 811 CURVE SMOOTH",
"371 796 OFFCURVE",
"395 788 OFFCURVE",
"412 788 CURVE SMOOTH"
);
}
);
width = 680;
}
);
note = Otilde;
unicode = 00D5;
},
{
glyphname = Odieresis;
lastChange = "2017-11-01 11:12:47 +0000";
layers = (
{
layerId = "21C067DE-0135-4A31-BCA0-37E1E4C9B62B";
paths = (
{
closed = 1;
nodes = (
"154 550 OFFCURVE",
"214 648 OFFCURVE",
"335 648 CURVE SMOOTH",
"454 648 OFFCURVE",
"527 541 OFFCURVE",
"527 361 CURVE SMOOTH",
"527 178 OFFCURVE",
"464 66 OFFCURVE",
"345 66 CURVE SMOOTH",
"222 66 OFFCURVE",
"154 171 OFFCURVE",
"154 354 CURVE SMOOTH"
);
},
{
closed = 1;
nodes = (
"614 577 OFFCURVE",
"521 724 OFFCURVE",
"342 724 CURVE SMOOTH",
"162 724 OFFCURVE",
"66 586 OFFCURVE",
"66 357 CURVE SMOOTH",
"66 128 OFFCURVE",
"177 -10 OFFCURVE",
"338 -10 CURVE SMOOTH",
"519 -10 OFFCURVE",
"614 129 OFFCURVE",
"614 357 CURVE SMOOTH"
);
},
{
closed = 1;
nodes = (
"221 787 OFFCURVE",
"233 782 OFFCURVE",
"247 782 CURVE SMOOTH",
"274 782 OFFCURVE",
"295 801 OFFCURVE",
"295 833 CURVE SMOOTH",
"295 865 OFFCURVE",
"274 884 OFFCURVE",
"247 884 CURVE SMOOTH",
"219 884 OFFCURVE",
"196 865 OFFCURVE",
"196 833 CURVE SMOOTH",
"196 817 OFFCURVE",
"201 805 OFFCURVE",
"211 796 CURVE SMOOTH"
);
},
{
closed = 1;
nodes = (
"410 787 OFFCURVE",
"422 782 OFFCURVE",
"436 782 CURVE SMOOTH",
"463 782 OFFCURVE",
"484 801 OFFCURVE",
"484 833 CURVE SMOOTH",
"484 865 OFFCURVE",
"463 884 OFFCURVE",
"436 884 CURVE SMOOTH",
"408 884 OFFCURVE",
"385 865 OFFCURVE",
"385 833 CURVE SMOOTH",
"385 817 OFFCURVE",
"390 805 OFFCURVE",
"400 796 CURVE SMOOTH"
);
}
);
width = 680;
}
);
note = Odieresis;
unicode = 00D6;
},
{
glyphname = multiply;
lastChange = "2017-11-01 11:12:47 +0000";
layers = (
{
layerId = "21C067DE-0135-4A31-BCA0-37E1E4C9B62B";
paths = (
{
closed = 1;
nodes = (
"292 357 LINE",
"150 216 LINE",
"198 168 LINE",
"339 310 LINE",
"486 163 LINE",
"534 211 LINE",
"387 358 LINE",
"529 500 LINE",
"482 548 LINE",
"340 405 LINE",
"192 553 LINE",
"144 505 LINE"
);
}
);
width = 680;
}
);
note = multiply;
unicode = 00D7;
},
{
glyphname = Oslash;
lastChange = "2017-11-01 11:12:47 +0000";
layers = (
{
layerId = "21C067DE-0135-4A31-BCA0-37E1E4C9B62B";
paths = (
{
closed = 1;
nodes = (
"192 37 LINE",
"235 6 OFFCURVE",
"283 -10 OFFCURVE",
"338 -10 CURVE SMOOTH",
"519 -10 OFFCURVE",
"614 129 OFFCURVE",
"614 357 CURVE SMOOTH",
"614 477 OFFCURVE",
"588 569 OFFCURVE",
"536 634 CURVE",
"614 769 LINE",
"555 803 LINE",
"485 682 LINE",
"446 710 OFFCURVE",
"398 724 OFFCURVE",
"342 724 CURVE SMOOTH",
"162 724 OFFCURVE",
"66 586 OFFCURVE",
"66 357 CURVE SMOOTH",
"66 243 OFFCURVE",
"91 153 OFFCURVE",
"142 86 CURVE",
"62 -53 LINE",
"121 -87 LINE"
);
},
{
closed = 1;
nodes = (
"527 178 OFFCURVE",
"464 66 OFFCURVE",
"345 66 CURVE SMOOTH",
"300 66 OFFCURVE",
"262 80 OFFCURVE",
"233 107 CURVE",
"488 551 LINE",
"514 501 OFFCURVE",
"527 438 OFFCURVE",
"527 361 CURVE SMOOTH"
);
},
{
closed = 1;
nodes = (
"154 550 OFFCURVE",
"214 648 OFFCURVE",
"335 648 CURVE SMOOTH",
"376 648 OFFCURVE",
"412 635 OFFCURVE",
"443 609 CURVE",
"189 167 LINE",
"166 216 OFFCURVE",
"154 278 OFFCURVE",
"154 354 CURVE SMOOTH"
);
}
);
width = 680;
}
);
note = Oslash;
unicode = 00D8;
},
{
glyphname = Ugrave;
lastChange = "2017-11-01 11:12:47 +0000";
layers = (
{
layerId = "21C067DE-0135-4A31-BCA0-37E1E4C9B62B";
paths = (
{
closed = 1;
nodes = (
"508 132 OFFCURVE",
"445 68 OFFCURVE",
"340 68 CURVE SMOOTH",
"236 68 OFFCURVE",
"174 131 OFFCURVE",
"174 238 CURVE SMOOTH",
"174 714 LINE",
"91 714 LINE",
"91 245 LINE SMOOTH",
"91 85 OFFCURVE",
"185 -10 OFFCURVE",
"340 -10 CURVE SMOOTH",
"495 -10 OFFCURVE",
"589 85 OFFCURVE",
"589 245 CURVE SMOOTH",
"589 714 LINE",
"508 714 LINE",
"508 239 LINE SMOOTH"
);
},
{
closed = 1;
nodes = (
"341 754 LINE",
"395 754 LINE",
"333 934 LINE",
"224 934 LINE"
);
}
);
width = 680;
}
);
note = Ugrave;
unicode = 00D9;
},
{
glyphname = Uacute;
lastChange = "2017-11-01 11:12:47 +0000";
layers = (
{
layerId = "21C067DE-0135-4A31-BCA0-37E1E4C9B62B";
paths = (
{
closed = 1;
nodes = (
"508 132 OFFCURVE",
"445 68 OFFCURVE",
"340 68 CURVE SMOOTH",
"236 68 OFFCURVE",
"174 131 OFFCURVE",
"174 238 CURVE SMOOTH",
"174 714 LINE",
"91 714 LINE",
"91 245 LINE SMOOTH",
"91 85 OFFCURVE",
"185 -10 OFFCURVE",
"340 -10 CURVE SMOOTH",
"495 -10 OFFCURVE",
"589 85 OFFCURVE",
"589 245 CURVE SMOOTH",
"589 714 LINE",
"508 714 LINE",
"508 239 LINE SMOOTH"
);
},
{
closed = 1;
nodes = (
"455 934 LINE",
"346 934 LINE",
"284 754 LINE",
"338 754 LINE"
);
}
);
width = 680;
}
);
note = Uacute;
unicode = 00DA;
},
{
glyphname = Ucircumflex;
lastChange = "2017-11-01 11:12:47 +0000";
layers = (
{
layerId = "21C067DE-0135-4A31-BCA0-37E1E4C9B62B";
paths = (
{
closed = 1;
nodes = (
"508 132 OFFCURVE",
"445 68 OFFCURVE",
"340 68 CURVE SMOOTH",
"236 68 OFFCURVE",
"174 131 OFFCURVE",
"174 238 CURVE SMOOTH",
"174 714 LINE",
"91 714 LINE",
"91 245 LINE SMOOTH",
"91 85 OFFCURVE",
"185 -10 OFFCURVE",
"340 -10 CURVE SMOOTH",
"495 -10 OFFCURVE",
"589 85 OFFCURVE",
"589 245 CURVE SMOOTH",
"589 714 LINE",
"508 714 LINE",
"508 239 LINE SMOOTH"
);
},
{
closed = 1;
nodes = (
"338 855 LINE",
"446 754 LINE",
"504 754 LINE",
"379 934 LINE",
"298 934 LINE",
"175 754 LINE",
"231 754 LINE"
);
}
);
width = 680;
}
);
note = Ucircumflex;
unicode = 00DB;
},
{
glyphname = Udieresis;
lastChange = "2017-11-01 11:12:47 +0000";
layers = (
{
layerId = "21C067DE-0135-4A31-BCA0-37E1E4C9B62B";
paths = (
{
closed = 1;
nodes = (
"508 132 OFFCURVE",
"445 68 OFFCURVE",
"340 68 CURVE SMOOTH",
"236 68 OFFCURVE",
"174 131 OFFCURVE",
"174 238 CURVE SMOOTH",
"174 714 LINE",
"91 714 LINE",
"91 245 LINE SMOOTH",
"91 85 OFFCURVE",
"185 -10 OFFCURVE",
"340 -10 CURVE SMOOTH",
"495 -10 OFFCURVE",
"589 85 OFFCURVE",
"589 245 CURVE SMOOTH",
"589 714 LINE",
"508 714 LINE",
"508 239 LINE SMOOTH"
);
},
{
closed = 1;
nodes = (
"221 787 OFFCURVE",
"233 782 OFFCURVE",
"247 782 CURVE SMOOTH",
"274 782 OFFCURVE",
"295 801 OFFCURVE",
"295 833 CURVE SMOOTH",
"295 865 OFFCURVE",
"274 884 OFFCURVE",
"247 884 CURVE SMOOTH",
"219 884 OFFCURVE",
"196 865 OFFCURVE",
"196 833 CURVE SMOOTH",
"196 817 OFFCURVE",
"201 805 OFFCURVE",
"211 796 CURVE SMOOTH"
);
},
{
closed = 1;
nodes = (
"410 787 OFFCURVE",
"422 782 OFFCURVE",
"436 782 CURVE SMOOTH",
"463 782 OFFCURVE",
"484 801 OFFCURVE",
"484 833 CURVE SMOOTH",
"484 865 OFFCURVE",
"463 884 OFFCURVE",
"436 884 CURVE SMOOTH",
"408 884 OFFCURVE",
"385 865 OFFCURVE",
"385 833 CURVE SMOOTH",
"385 817 OFFCURVE",
"390 805 OFFCURVE",
"400 796 CURVE SMOOTH"
);
}
);
width = 680;
}
);
note = Udieresis;
unicode = 00DC;
},
{
glyphname = Yacute;
lastChange = "2017-11-01 11:12:47 +0000";
layers = (
{
layerId = "21C067DE-0135-4A31-BCA0-37E1E4C9B62B";
paths = (
{
closed = 1;
nodes = (
"298 283 LINE",
"298 0 LINE",
"382 0 LINE",
"382 287 LINE",
"640 714 LINE",
"549 714 LINE",
"340 368 LINE",
"132 714 LINE",
"40 714 LINE"
);
},
{
closed = 1;
nodes = (
"455 934 LINE",
"346 934 LINE",
"284 754 LINE",
"338 754 LINE"
);
}
);
width = 680;
}
);
note = Yacute;
unicode = 00DD;
},
{
glyphname = Thorn;
lastChange = "2017-11-01 11:12:47 +0000";
layers = (
{
layerId = "21C067DE-0135-4A31-BCA0-37E1E4C9B62B";
paths = (
{
closed = 1;
nodes = (
"501 141 OFFCURVE",
"596 213 OFFCURVE",
"596 357 CURVE SMOOTH",
"596 489 OFFCURVE",
"503 572 OFFCURVE",
"334 572 CURVE SMOOTH",
"206 572 LINE",
"206 714 LINE",
"123 714 LINE",
"123 0 LINE",
"206 0 LINE",
"206 141 LINE",
"312 141 LINE SMOOTH"
);
},
{
closed = 1;
nodes = (
"446 498 OFFCURVE",
"510 446 OFFCURVE",
"510 358 CURVE SMOOTH",
"510 263 OFFCURVE",
"444 215 OFFCURVE",
"312 215 CURVE SMOOTH",
"206 215 LINE",
"206 498 LINE",
"323 498 LINE SMOOTH"
);
}
);
width = 680;
}
);
note = Thorn;
unicode = 00DE;
},
{
glyphname = germandbls;
lastChange = "2017-11-01 11:12:47 +0000";
layers = (
{
layerId = "21C067DE-0135-4A31-BCA0-37E1E4C9B62B";
paths = (
{
closed = 1;
nodes = (
"608 200 OFFCURVE",
"579 250 OFFCURVE",
"521 289 CURVE SMOOTH",
"451 338 LINE SMOOTH",
"411 366 OFFCURVE",
"396 381 OFFCURVE",
"396 406 CURVE SMOOTH",
"396 425 OFFCURVE",
"407 444 OFFCURVE",
"430 465 CURVE SMOOTH",
"462 495 LINE SMOOTH",
"494 525 OFFCURVE",
"510 561 OFFCURVE",
"510 604 CURVE SMOOTH",
"510 695 OFFCURVE",
"442 762 OFFCURVE",
"323 762 CURVE SMOOTH",
"186 762 OFFCURVE",
"112 671 OFFCURVE",
"112 550 CURVE SMOOTH",
"112 0 LINE",
"195 0 LINE",
"195 550 LINE SMOOTH",
"195 627 OFFCURVE",
"235 686 OFFCURVE",
"323 686 CURVE SMOOTH",
"390 686 OFFCURVE",
"426 648 OFFCURVE",
"426 603 CURVE SMOOTH",
"426 576 OFFCURVE",
"416 553 OFFCURVE",
"395 532 CURVE SMOOTH",
"361 498 LINE SMOOTH",
"331 468 OFFCURVE",
"316 434 OFFCURVE",
"316 397 CURVE SMOOTH",
"316 352 OFFCURVE",
"341 312 OFFCURVE",
"392 277 CURVE SMOOTH",
"470 223 LINE SMOOTH",
"505 199 OFFCURVE",
"523 172 OFFCURVE",
"523 141 CURVE SMOOTH",
"523 97 OFFCURVE",
"490 66 OFFCURVE",
"431 66 CURVE SMOOTH",
"376 66 OFFCURVE",
"326 82 OFFCURVE",
"281 113 CURVE",
"270 25 LINE",
"313 2 OFFCURVE",
"367 -10 OFFCURVE",
"430 -10 CURVE SMOOTH",
"537 -10 OFFCURVE",
"608 49 OFFCURVE",
"608 141 CURVE SMOOTH"
);
}
);
width = 680;
}
);
note = germandbls;
unicode = 00DF;
},
{
glyphname = agrave;
lastChange = "2017-11-01 11:12:47 +0000";
layers = (
{
layerId = "21C067DE-0135-4A31-BCA0-37E1E4C9B62B";
paths = (
{
closed = 1;
nodes = (
"483 51 OFFCURVE",
"491 21 OFFCURVE",
"500 0 CURVE",
"591 0 LINE",
"570 46 OFFCURVE",
"559 95 OFFCURVE",
"559 147 CURVE SMOOTH",
"559 348 LINE SMOOTH",
"559 496 OFFCURVE",
"476 562 OFFCURVE",
"339 562 CURVE SMOOTH",
"255 562 OFFCURVE",
"207 546 OFFCURVE",
"140 513 CURVE",
"150 430 LINE",
"211 465 OFFCURVE",
"271 482 OFFCURVE",
"331 482 CURVE SMOOTH",
"428 482 OFFCURVE",
"476 443 OFFCURVE",
"476 350 CURVE SMOOTH",
"476 337 LINE",
"295 311 LINE SMOOTH",
"168 293 OFFCURVE",
"104 238 OFFCURVE",
"104 145 CURVE SMOOTH",
"104 49 OFFCURVE",
"175 -10 OFFCURVE",
"292 -10 CURVE SMOOTH",
"361 -10 OFFCURVE",
"433 27 OFFCURVE",
"477 92 CURVE"
);
},
{
closed = 1;
nodes = (
"476 141 OFFCURVE",
"413 64 OFFCURVE",
"302 64 CURVE SMOOTH",
"234 64 OFFCURVE",
"191 95 OFFCURVE",
"191 147 CURVE SMOOTH",
"191 200 OFFCURVE",
"229 232 OFFCURVE",
"305 243 CURVE SMOOTH",
"476 268 LINE",
"476 260 LINE SMOOTH"
);
},
{
closed = 1;
nodes = (
"341 602 LINE",
"395 602 LINE",
"333 782 LINE",
"224 782 LINE"
);
}
);
width = 680;
}
);
note = agrave;
unicode = 00E0;
},
{
glyphname = aacute;
lastChange = "2017-11-01 11:12:47 +0000";
layers = (
{
layerId = "21C067DE-0135-4A31-BCA0-37E1E4C9B62B";
paths = (
{
closed = 1;
nodes = (
"483 51 OFFCURVE",
"491 21 OFFCURVE",
"500 0 CURVE",
"591 0 LINE",
"570 46 OFFCURVE",
"559 95 OFFCURVE",
"559 147 CURVE SMOOTH",
"559 348 LINE SMOOTH",
"559 496 OFFCURVE",
"476 562 OFFCURVE",
"339 562 CURVE SMOOTH",
"255 562 OFFCURVE",
"207 546 OFFCURVE",
"140 513 CURVE",
"150 430 LINE",
"211 465 OFFCURVE",
"271 482 OFFCURVE",
"331 482 CURVE SMOOTH",
"428 482 OFFCURVE",
"476 443 OFFCURVE",
"476 350 CURVE SMOOTH",
"476 337 LINE",
"295 311 LINE SMOOTH",
"168 293 OFFCURVE",
"104 238 OFFCURVE",
"104 145 CURVE SMOOTH",
"104 49 OFFCURVE",
"175 -10 OFFCURVE",
"292 -10 CURVE SMOOTH",
"361 -10 OFFCURVE",
"433 27 OFFCURVE",
"477 92 CURVE"
);
},
{
closed = 1;
nodes = (
"476 141 OFFCURVE",
"413 64 OFFCURVE",
"302 64 CURVE SMOOTH",
"234 64 OFFCURVE",
"191 95 OFFCURVE",
"191 147 CURVE SMOOTH",
"191 200 OFFCURVE",
"229 232 OFFCURVE",
"305 243 CURVE SMOOTH",
"476 268 LINE",
"476 260 LINE SMOOTH"
);
},
{
closed = 1;
nodes = (
"455 782 LINE",
"346 782 LINE",
"284 602 LINE",
"338 602 LINE"
);
}
);
width = 680;
}
);
note = aacute;
unicode = 00E1;
},
{
glyphname = acircumflex;
lastChange = "2017-11-01 11:12:47 +0000";
layers = (
{
layerId = "21C067DE-0135-4A31-BCA0-37E1E4C9B62B";
paths = (
{
closed = 1;
nodes = (
"483 51 OFFCURVE",
"491 21 OFFCURVE",
"500 0 CURVE",
"591 0 LINE",
"570 46 OFFCURVE",
"559 95 OFFCURVE",
"559 147 CURVE SMOOTH",
"559 348 LINE SMOOTH",
"559 496 OFFCURVE",
"476 562 OFFCURVE",
"339 562 CURVE SMOOTH",
"255 562 OFFCURVE",
"207 546 OFFCURVE",
"140 513 CURVE",
"150 430 LINE",
"211 465 OFFCURVE",
"271 482 OFFCURVE",
"331 482 CURVE SMOOTH",
"428 482 OFFCURVE",
"476 443 OFFCURVE",
"476 350 CURVE SMOOTH",
"476 337 LINE",
"295 311 LINE SMOOTH",
"168 293 OFFCURVE",
"104 238 OFFCURVE",
"104 145 CURVE SMOOTH",
"104 49 OFFCURVE",
"175 -10 OFFCURVE",
"292 -10 CURVE SMOOTH",
"361 -10 OFFCURVE",
"433 27 OFFCURVE",
"477 92 CURVE"
);
},
{
closed = 1;
nodes = (
"476 141 OFFCURVE",
"413 64 OFFCURVE",
"302 64 CURVE SMOOTH",
"234 64 OFFCURVE",
"191 95 OFFCURVE",
"191 147 CURVE SMOOTH",
"191 200 OFFCURVE",
"229 232 OFFCURVE",
"305 243 CURVE SMOOTH",
"476 268 LINE",
"476 260 LINE SMOOTH"
);
},
{
closed = 1;
nodes = (
"338 703 LINE",
"446 602 LINE",
"504 602 LINE",
"379 782 LINE",
"298 782 LINE",
"175 602 LINE",
"231 602 LINE"
);
}
);
width = 680;
}
);
note = acircumflex;
unicode = 00E2;
},
{
glyphname = atilde;
lastChange = "2017-11-01 11:12:47 +0000";
layers = (
{
layerId = "21C067DE-0135-4A31-BCA0-37E1E4C9B62B";
paths = (
{
closed = 1;
nodes = (
"483 51 OFFCURVE",
"491 21 OFFCURVE",
"500 0 CURVE",
"591 0 LINE",
"570 46 OFFCURVE",
"559 95 OFFCURVE",
"559 147 CURVE SMOOTH",
"559 348 LINE SMOOTH",
"559 496 OFFCURVE",
"476 562 OFFCURVE",
"339 562 CURVE SMOOTH",
"255 562 OFFCURVE",
"207 546 OFFCURVE",
"140 513 CURVE",
"150 430 LINE",
"211 465 OFFCURVE",
"271 482 OFFCURVE",
"331 482 CURVE SMOOTH",
"428 482 OFFCURVE",
"476 443 OFFCURVE",
"476 350 CURVE SMOOTH",
"476 337 LINE",
"295 311 LINE SMOOTH",
"168 293 OFFCURVE",
"104 238 OFFCURVE",
"104 145 CURVE SMOOTH",
"104 49 OFFCURVE",
"175 -10 OFFCURVE",
"292 -10 CURVE SMOOTH",
"361 -10 OFFCURVE",
"433 27 OFFCURVE",
"477 92 CURVE"
);
},
{
closed = 1;
nodes = (
"476 141 OFFCURVE",
"413 64 OFFCURVE",
"302 64 CURVE SMOOTH",
"234 64 OFFCURVE",
"191 95 OFFCURVE",
"191 147 CURVE SMOOTH",
"191 200 OFFCURVE",
"229 232 OFFCURVE",
"305 243 CURVE SMOOTH",
"476 268 LINE",
"476 260 LINE SMOOTH"
);
},
{
closed = 1;
nodes = (
"464 636 OFFCURVE",
"497 675 OFFCURVE",
"504 739 CURVE",
"453 757 LINE",
"446 722 OFFCURVE",
"432 705 OFFCURVE",
"411 705 CURVE SMOOTH",
"401 705 OFFCURVE",
"380 713 OFFCURVE",
"349 728 CURVE SMOOTH",
"317 743 OFFCURVE",
"292 751 OFFCURVE",
"275 751 CURVE SMOOTH",
"222 751 OFFCURVE",
"182 711 OFFCURVE",
"175 646 CURVE",
"226 630 LINE",
"233 666 OFFCURVE",
"246 682 OFFCURVE",
"273 682 CURVE SMOOTH",
"284 682 OFFCURVE",
"306 674 OFFCURVE",
"339 659 CURVE SMOOTH",
"371 644 OFFCURVE",
"395 636 OFFCURVE",
"412 636 CURVE SMOOTH"
);
}
);
width = 680;
}
);
note = atilde;
unicode = 00E3;
},
{
glyphname = adieresis;
lastChange = "2017-11-01 11:12:47 +0000";
layers = (
{
layerId = "21C067DE-0135-4A31-BCA0-37E1E4C9B62B";
paths = (
{
closed = 1;
nodes = (
"483 51 OFFCURVE",
"491 21 OFFCURVE",
"500 0 CURVE",
"591 0 LINE",
"570 46 OFFCURVE",
"559 95 OFFCURVE",
"559 147 CURVE SMOOTH",
"559 348 LINE SMOOTH",
"559 496 OFFCURVE",
"476 562 OFFCURVE",
"339 562 CURVE SMOOTH",
"255 562 OFFCURVE",
"207 546 OFFCURVE",
"140 513 CURVE",
"150 430 LINE",
"211 465 OFFCURVE",
"271 482 OFFCURVE",
"331 482 CURVE SMOOTH",
"428 482 OFFCURVE",
"476 443 OFFCURVE",
"476 350 CURVE SMOOTH",
"476 337 LINE",
"295 311 LINE SMOOTH",
"168 293 OFFCURVE",
"104 238 OFFCURVE",
"104 145 CURVE SMOOTH",
"104 49 OFFCURVE",
"175 -10 OFFCURVE",
"292 -10 CURVE SMOOTH",
"361 -10 OFFCURVE",
"433 27 OFFCURVE",
"477 92 CURVE"
);
},
{
closed = 1;
nodes = (
"476 141 OFFCURVE",
"413 64 OFFCURVE",
"302 64 CURVE SMOOTH",
"234 64 OFFCURVE",
"191 95 OFFCURVE",
"191 147 CURVE SMOOTH",
"191 200 OFFCURVE",
"229 232 OFFCURVE",
"305 243 CURVE SMOOTH",
"476 268 LINE",
"476 260 LINE SMOOTH"
);
},
{
closed = 1;
nodes = (
"221 645 OFFCURVE",
"233 640 OFFCURVE",
"247 640 CURVE SMOOTH",
"274 640 OFFCURVE",
"295 659 OFFCURVE",
"295 691 CURVE SMOOTH",
"295 723 OFFCURVE",
"274 742 OFFCURVE",
"247 742 CURVE SMOOTH",
"219 742 OFFCURVE",
"196 723 OFFCURVE",
"196 691 CURVE SMOOTH",
"196 675 OFFCURVE",
"201 663 OFFCURVE",
"211 654 CURVE SMOOTH"
);
},
{
closed = 1;
nodes = (
"410 645 OFFCURVE",
"422 640 OFFCURVE",
"436 640 CURVE SMOOTH",
"463 640 OFFCURVE",
"484 659 OFFCURVE",
"484 691 CURVE SMOOTH",
"484 723 OFFCURVE",
"463 742 OFFCURVE",
"436 742 CURVE SMOOTH",
"408 742 OFFCURVE",
"385 723 OFFCURVE",
"385 691 CURVE SMOOTH",
"385 675 OFFCURVE",
"390 663 OFFCURVE",
"400 654 CURVE SMOOTH"
);
}
);
width = 680;
}
);
note = adieresis;
unicode = 00E4;
},
{
glyphname = aring;
lastChange = "2017-11-01 11:12:47 +0000";
layers = (
{
layerId = "21C067DE-0135-4A31-BCA0-37E1E4C9B62B";
paths = (
{
closed = 1;
nodes = (
"483 51 OFFCURVE",
"491 21 OFFCURVE",
"500 0 CURVE",
"591 0 LINE",
"570 46 OFFCURVE",
"559 95 OFFCURVE",
"559 147 CURVE SMOOTH",
"559 348 LINE SMOOTH",
"559 496 OFFCURVE",
"476 562 OFFCURVE",
"339 562 CURVE SMOOTH",
"255 562 OFFCURVE",
"207 546 OFFCURVE",
"140 513 CURVE",
"150 430 LINE",
"211 465 OFFCURVE",
"271 482 OFFCURVE",
"331 482 CURVE SMOOTH",
"428 482 OFFCURVE",
"476 443 OFFCURVE",
"476 350 CURVE SMOOTH",
"476 337 LINE",
"295 311 LINE SMOOTH",
"168 293 OFFCURVE",
"104 238 OFFCURVE",
"104 145 CURVE SMOOTH",
"104 49 OFFCURVE",
"175 -10 OFFCURVE",
"292 -10 CURVE SMOOTH",
"361 -10 OFFCURVE",
"433 27 OFFCURVE",
"477 92 CURVE"
);
},
{
closed = 1;
nodes = (
"476 141 OFFCURVE",
"413 64 OFFCURVE",
"302 64 CURVE SMOOTH",
"234 64 OFFCURVE",
"191 95 OFFCURVE",
"191 147 CURVE SMOOTH",
"191 200 OFFCURVE",
"229 232 OFFCURVE",
"305 243 CURVE SMOOTH",
"476 268 LINE",
"476 260 LINE SMOOTH"
);
},
{
closed = 1;
nodes = (
"449 763 OFFCURVE",
"403 809 OFFCURVE",
"339 809 CURVE SMOOTH",
"275 809 OFFCURVE",
"231 765 OFFCURVE",
"231 705 CURVE SMOOTH",
"231 641 OFFCURVE",
"274 600 OFFCURVE",
"339 600 CURVE SMOOTH",
"404 600 OFFCURVE",
"449 643 OFFCURVE",
"449 706 CURVE SMOOTH"
);
},
{
closed = 1;
nodes = (
"369 653 OFFCURVE",
"356 648 OFFCURVE",
"339 648 CURVE SMOOTH",
"303 648 OFFCURVE",
"282 670 OFFCURVE",
"282 705 CURVE SMOOTH",
"282 738 OFFCURVE",
"306 762 OFFCURVE",
"339 762 CURVE SMOOTH",
"372 762 OFFCURVE",
"396 738 OFFCURVE",
"396 705 CURVE SMOOTH",
"396 688 OFFCURVE",
"391 675 OFFCURVE",
"380 664 CURVE SMOOTH"
);
}
);
width = 680;
}
);
note = aring;
unicode = 00E5;
},
{
glyphname = ae;
lastChange = "2017-11-01 11:12:47 +0000";
layers = (
{
layerId = "21C067DE-0135-4A31-BCA0-37E1E4C9B62B";
paths = (
{
closed = 1;
nodes = (
"142 562 OFFCURVE",
"98 549 OFFCURVE",
"59 522 CURVE",
"68 440 LINE",
"109 468 OFFCURVE",
"150 482 OFFCURVE",
"191 482 CURVE SMOOTH",
"248 482 OFFCURVE",
"286 450 OFFCURVE",
"286 386 CURVE SMOOTH",
"286 337 LINE",
"226 327 LINE SMOOTH",
"107 303 OFFCURVE",
"42 232 OFFCURVE",
"42 136 CURVE SMOOTH",
"42 45 OFFCURVE",
"99 -10 OFFCURVE",
"183 -10 CURVE SMOOTH",
"252 -10 OFFCURVE",
"305 38 OFFCURVE",
"324 115 CURVE",
"359 32 OFFCURVE",
"425 -10 OFFCURVE",
"521 -10 CURVE SMOOTH",
"557 -10 OFFCURVE",
"591 -4 OFFCURVE",
"624 8 CURVE",
"615 89 LINE",
"582 74 OFFCURVE",
"550 66 OFFCURVE",
"519 66 CURVE SMOOTH",
"424 66 OFFCURVE",
"371 142 OFFCURVE",
"371 271 CURVE",
"635 271 LINE",
"638 294 OFFCURVE",
"639 315 OFFCURVE",
"639 335 CURVE SMOOTH",
"639 436 OFFCURVE",
"610 505 OFFCURVE",
"552 541 CURVE SMOOTH",
"529 555 OFFCURVE",
"500 562 OFFCURVE",
"464 562 CURVE SMOOTH",
"417 562 OFFCURVE",
"375 538 OFFCURVE",
"338 489 CURVE",
"305 538 OFFCURVE",
"256 562 OFFCURVE",
"191 562 CURVE SMOOTH"
);
},
{
closed = 1;
nodes = (
"286 115 OFFCURVE",
"254 64 OFFCURVE",
"190 64 CURVE SMOOTH",
"150 64 OFFCURVE",
"126 93 OFFCURVE",
"126 136 CURVE SMOOTH",
"126 199 OFFCURVE",
"170 241 OFFCURVE",
"259 262 CURVE SMOOTH",
"286 268 LINE",
"286 217 LINE SMOOTH"
);
},
{
closed = 1;
nodes = (
"521 486 OFFCURVE",
"553 434 OFFCURVE",
"553 341 CURVE",
"373 341 LINE",
"376 428 OFFCURVE",
"408 486 OFFCURVE",
"465 486 CURVE SMOOTH"
);
}
);
width = 680;
}
);
note = ae;
unicode = 00E6;
},
{
glyphname = ccedilla;
lastChange = "2017-11-01 11:12:47 +0000";
layers = (
{
layerId = "21C067DE-0135-4A31-BCA0-37E1E4C9B62B";
paths = (
{
closed = 1;
nodes = (
"485 -10 OFFCURVE",
"543 -1 OFFCURVE",
"588 17 CURVE",
"578 96 LINE",
"533 76 OFFCURVE",
"480 66 OFFCURVE",
"419 66 CURVE SMOOTH",
"287 66 OFFCURVE",
"200 148 OFFCURVE",
"200 273 CURVE SMOOTH",
"200 409 OFFCURVE",
"281 486 OFFCURVE",
"417 486 CURVE SMOOTH",
"470 486 OFFCURVE",
"521 476 OFFCURVE",
"571 457 CURVE",
"581 538 LINE",
"534 554 OFFCURVE",
"479 562 OFFCURVE",
"416 562 CURVE SMOOTH",
"237 562 OFFCURVE",
"111 450 OFFCURVE",
"111 275 CURVE SMOOTH",
"111 102 OFFCURVE",
"245 -10 OFFCURVE",
"414 -10 CURVE SMOOTH"
);
},
{
closed = 1;
nodes = (
"287 -230 LINE",
"396 -230 LINE",
"458 -50 LINE",
"404 -50 LINE"
);
}
);
width = 680;
}
);
note = ccedilla;
unicode = 00E7;
},
{
glyphname = egrave;
lastChange = "2017-11-01 11:12:47 +0000";
layers = (
{
layerId = "21C067DE-0135-4A31-BCA0-37E1E4C9B62B";
paths = (
{
closed = 1;
nodes = (
"455 -10 OFFCURVE",
"515 1 OFFCURVE",
"570 23 CURVE",
"561 107 LINE",
"499 80 OFFCURVE",
"442 66 OFFCURVE",
"390 66 CURVE SMOOTH",
"267 66 OFFCURVE",
"185 144 OFFCURVE",
"185 271 CURVE",
"589 271 LINE",
"593 288 OFFCURVE",
"595 307 OFFCURVE",
"595 329 CURVE SMOOTH",
"595 375 OFFCURVE",
"586 416 OFFCURVE",
"567 452 CURVE SMOOTH",
"529 524 OFFCURVE",
"460 562 OFFCURVE",
"360 562 CURVE SMOOTH",
"216 562 OFFCURVE",
"97 450 OFFCURVE",
"97 277 CURVE SMOOTH",
"97 97 OFFCURVE",
"211 -10 OFFCURVE",
"390 -10 CURVE SMOOTH"
);
},
{
closed = 1;
nodes = (
"450 486 OFFCURVE",
"509 434 OFFCURVE",
"509 341 CURVE",
"190 341 LINE",
"203 425 OFFCURVE",
"273 486 OFFCURVE",
"361 486 CURVE SMOOTH"
);
},
{
closed = 1;
nodes = (
"361 602 LINE",
"415 602 LINE",
"353 782 LINE",
"244 782 LINE"
);
}
);
width = 680;
}
);
note = egrave;
unicode = 00E8;
},
{
glyphname = eacute;
lastChange = "2017-11-01 11:12:47 +0000";
layers = (
{
layerId = "21C067DE-0135-4A31-BCA0-37E1E4C9B62B";
paths = (
{
closed = 1;
nodes = (
"455 -10 OFFCURVE",
"515 1 OFFCURVE",
"570 23 CURVE",
"561 107 LINE",
"499 80 OFFCURVE",
"442 66 OFFCURVE",
"390 66 CURVE SMOOTH",
"267 66 OFFCURVE",
"185 144 OFFCURVE",
"185 271 CURVE",
"589 271 LINE",
"593 288 OFFCURVE",
"595 307 OFFCURVE",
"595 329 CURVE SMOOTH",
"595 375 OFFCURVE",
"586 416 OFFCURVE",
"567 452 CURVE SMOOTH",
"529 524 OFFCURVE",
"460 562 OFFCURVE",
"360 562 CURVE SMOOTH",
"216 562 OFFCURVE",
"97 450 OFFCURVE",
"97 277 CURVE SMOOTH",
"97 97 OFFCURVE",
"211 -10 OFFCURVE",
"390 -10 CURVE SMOOTH"
);
},
{
closed = 1;
nodes = (
"450 486 OFFCURVE",
"509 434 OFFCURVE",
"509 341 CURVE",
"190 341 LINE",
"203 425 OFFCURVE",
"273 486 OFFCURVE",
"361 486 CURVE SMOOTH"
);
},
{
closed = 1;
nodes = (
"475 782 LINE",
"366 782 LINE",
"304 602 LINE",
"358 602 LINE"
);
}
);
width = 680;
}
);
note = eacute;
unicode = 00E9;
},
{
glyphname = ecircumflex;
lastChange = "2017-11-01 11:12:47 +0000";
layers = (
{
layerId = "21C067DE-0135-4A31-BCA0-37E1E4C9B62B";
paths = (
{
closed = 1;
nodes = (
"455 -10 OFFCURVE",
"515 1 OFFCURVE",
"570 23 CURVE",
"561 107 LINE",
"499 80 OFFCURVE",
"442 66 OFFCURVE",
"390 66 CURVE SMOOTH",
"267 66 OFFCURVE",
"185 144 OFFCURVE",
"185 271 CURVE",
"589 271 LINE",
"593 288 OFFCURVE",
"595 307 OFFCURVE",
"595 329 CURVE SMOOTH",
"595 375 OFFCURVE",
"586 416 OFFCURVE",
"567 452 CURVE SMOOTH",
"529 524 OFFCURVE",
"460 562 OFFCURVE",
"360 562 CURVE SMOOTH",
"216 562 OFFCURVE",
"97 450 OFFCURVE",
"97 277 CURVE SMOOTH",
"97 97 OFFCURVE",
"211 -10 OFFCURVE",
"390 -10 CURVE SMOOTH"
);
},
{
closed = 1;
nodes = (
"450 486 OFFCURVE",
"509 434 OFFCURVE",
"509 341 CURVE",
"190 341 LINE",
"203 425 OFFCURVE",
"273 486 OFFCURVE",
"361 486 CURVE SMOOTH"
);
},
{
closed = 1;
nodes = (
"358 703 LINE",
"466 602 LINE",
"524 602 LINE",
"399 782 LINE",
"318 782 LINE",
"195 602 LINE",
"251 602 LINE"
);
}
);
width = 680;
}
);
note = ecircumflex;
unicode = 00EA;
},
{
glyphname = edieresis;
lastChange = "2017-11-01 11:12:47 +0000";
layers = (
{
layerId = "21C067DE-0135-4A31-BCA0-37E1E4C9B62B";
paths = (
{
closed = 1;
nodes = (
"455 -10 OFFCURVE",
"515 1 OFFCURVE",
"570 23 CURVE",
"561 107 LINE",
"499 80 OFFCURVE",
"442 66 OFFCURVE",
"390 66 CURVE SMOOTH",
"267 66 OFFCURVE",
"185 144 OFFCURVE",
"185 271 CURVE",
"589 271 LINE",
"593 288 OFFCURVE",
"595 307 OFFCURVE",
"595 329 CURVE SMOOTH",
"595 375 OFFCURVE",
"586 416 OFFCURVE",
"567 452 CURVE SMOOTH",
"529 524 OFFCURVE",
"460 562 OFFCURVE",
"360 562 CURVE SMOOTH",
"216 562 OFFCURVE",
"97 450 OFFCURVE",
"97 277 CURVE SMOOTH",
"97 97 OFFCURVE",
"211 -10 OFFCURVE",
"390 -10 CURVE SMOOTH"
);
},
{
closed = 1;
nodes = (
"450 486 OFFCURVE",
"509 434 OFFCURVE",
"509 341 CURVE",
"190 341 LINE",
"203 425 OFFCURVE",
"273 486 OFFCURVE",
"361 486 CURVE SMOOTH"
);
},
{
closed = 1;
nodes = (
"241 645 OFFCURVE",
"253 640 OFFCURVE",
"267 640 CURVE SMOOTH",
"294 640 OFFCURVE",
"315 659 OFFCURVE",
"315 691 CURVE SMOOTH",
"315 723 OFFCURVE",
"294 742 OFFCURVE",
"267 742 CURVE SMOOTH",
"239 742 OFFCURVE",
"216 723 OFFCURVE",
"216 691 CURVE SMOOTH",
"216 675 OFFCURVE",
"221 663 OFFCURVE",
"231 654 CURVE SMOOTH"
);
},
{
closed = 1;
nodes = (
"430 645 OFFCURVE",
"442 640 OFFCURVE",
"456 640 CURVE SMOOTH",
"483 640 OFFCURVE",
"504 659 OFFCURVE",
"504 691 CURVE SMOOTH",
"504 723 OFFCURVE",
"483 742 OFFCURVE",
"456 742 CURVE SMOOTH",
"428 742 OFFCURVE",
"405 723 OFFCURVE",
"405 691 CURVE SMOOTH",
"405 675 OFFCURVE",
"410 663 OFFCURVE",
"420 654 CURVE SMOOTH"
);
}
);
width = 680;
}
);
note = edieresis;
unicode = 00EB;
},
{
glyphname = igrave;
lastChange = "2017-11-01 11:12:47 +0000";
layers = (
{
layerId = "21C067DE-0135-4A31-BCA0-37E1E4C9B62B";
paths = (
{
closed = 1;
nodes = (
"305 482 LINE",
"305 70 LINE",
"126 70 LINE",
"126 0 LINE",
"567 0 LINE",
"567 70 LINE",
"388 70 LINE",
"388 552 LINE",
"136 552 LINE",
"136 482 LINE"
);
},
{
closed = 1;
nodes = (
"341 602 LINE",
"395 602 LINE",
"333 782 LINE",
"224 782 LINE"
);
}
);
width = 680;
}
);
note = igrave;
unicode = 00EC;
},
{
glyphname = iacute;
lastChange = "2017-11-01 11:12:47 +0000";
layers = (
{
layerId = "21C067DE-0135-4A31-BCA0-37E1E4C9B62B";
paths = (
{
closed = 1;
nodes = (
"305 482 LINE",
"305 70 LINE",
"126 70 LINE",
"126 0 LINE",
"567 0 LINE",
"567 70 LINE",
"388 70 LINE",
"388 552 LINE",
"136 552 LINE",
"136 482 LINE"
);
},
{
closed = 1;
nodes = (
"455 782 LINE",
"346 782 LINE",
"284 602 LINE",
"338 602 LINE"
);
}
);
width = 680;
}
);
note = iacute;
unicode = 00ED;
},
{
glyphname = icircumflex;
lastChange = "2017-11-01 11:12:47 +0000";
layers = (
{
layerId = "21C067DE-0135-4A31-BCA0-37E1E4C9B62B";
paths = (
{
closed = 1;
nodes = (
"305 482 LINE",
"305 70 LINE",
"126 70 LINE",
"126 0 LINE",
"567 0 LINE",
"567 70 LINE",
"388 70 LINE",
"388 552 LINE",
"136 552 LINE",
"136 482 LINE"
);
},
{
closed = 1;
nodes = (
"338 703 LINE",
"446 602 LINE",
"504 602 LINE",
"379 782 LINE",
"298 782 LINE",
"175 602 LINE",
"231 602 LINE"
);
}
);
width = 680;
}
);
note = icircumflex;
unicode = 00EE;
},
{
glyphname = idieresis;
lastChange = "2017-11-01 11:12:47 +0000";
layers = (
{
layerId = "21C067DE-0135-4A31-BCA0-37E1E4C9B62B";
paths = (
{
closed = 1;
nodes = (
"305 482 LINE",
"305 70 LINE",
"126 70 LINE",
"126 0 LINE",
"567 0 LINE",
"567 70 LINE",
"388 70 LINE",
"388 552 LINE",
"136 552 LINE",
"136 482 LINE"
);
},
{
closed = 1;
nodes = (
"221 645 OFFCURVE",
"233 640 OFFCURVE",
"247 640 CURVE SMOOTH",
"274 640 OFFCURVE",
"295 659 OFFCURVE",
"295 691 CURVE SMOOTH",
"295 723 OFFCURVE",
"274 742 OFFCURVE",
"247 742 CURVE SMOOTH",
"219 742 OFFCURVE",
"196 723 OFFCURVE",
"196 691 CURVE SMOOTH",
"196 675 OFFCURVE",
"201 663 OFFCURVE",
"211 654 CURVE SMOOTH"
);
},
{
closed = 1;
nodes = (
"410 645 OFFCURVE",
"422 640 OFFCURVE",
"436 640 CURVE SMOOTH",
"463 640 OFFCURVE",
"484 659 OFFCURVE",
"484 691 CURVE SMOOTH",
"484 723 OFFCURVE",
"463 742 OFFCURVE",
"436 742 CURVE SMOOTH",
"408 742 OFFCURVE",
"385 723 OFFCURVE",
"385 691 CURVE SMOOTH",
"385 675 OFFCURVE",
"390 663 OFFCURVE",
"400 654 CURVE SMOOTH"
);
}
);
width = 680;
}
);
note = idieresis;
unicode = 00EF;
},
{
glyphname = eth;
lastChange = "2017-11-01 11:12:47 +0000";
layers = (
{
layerId = "21C067DE-0135-4A31-BCA0-37E1E4C9B62B";
paths = (
{
closed = 1;
nodes = (
"348 713 OFFCURVE",
"314 733 OFFCURVE",
"269 756 CURVE",
"225 693 LINE",
"258 676 OFFCURVE",
"283 662 OFFCURVE",
"299 652 CURVE",
"190 590 LINE",
"226 537 LINE",
"353 610 LINE",
"420 551 OFFCURVE",
"463 485 OFFCURVE",
"482 411 CURVE",
"440 454 OFFCURVE",
"386 476 OFFCURVE",
"320 476 CURVE SMOOTH",
"179 476 OFFCURVE",
"82 371 OFFCURVE",
"82 232 CURVE SMOOTH",
"82 87 OFFCURVE",
"187 -10 OFFCURVE",
"332 -10 CURVE SMOOTH",
"500 -10 OFFCURVE",
"584 95 OFFCURVE",
"584 275 CURVE SMOOTH",
"584 430 OFFCURVE",
"531 555 OFFCURVE",
"425 651 CURVE",
"511 701 LINE",
"473 752 LINE",
"373 694 LINE"
);
},
{
closed = 1;
nodes = (
"169 335 OFFCURVE",
"232 399 OFFCURVE",
"329 399 CURVE SMOOTH",
"426 399 OFFCURVE",
"498 338 OFFCURVE",
"498 235 CURVE SMOOTH",
"498 135 OFFCURVE",
"432 66 OFFCURVE",
"336 66 CURVE SMOOTH",
"239 66 OFFCURVE",
"169 131 OFFCURVE",
"169 231 CURVE SMOOTH"
);
}
);
width = 666;
}
);
note = eth;
unicode = 00F0;
},
{
glyphname = ntilde;
lastChange = "2017-11-01 11:12:47 +0000";
layers = (
{
layerId = "21C067DE-0135-4A31-BCA0-37E1E4C9B62B";
paths = (
{
closed = 1;
nodes = (
"573 436 OFFCURVE",
"543 503 OFFCURVE",
"484 537 CURVE SMOOTH",
"456 554 OFFCURVE",
"420 562 OFFCURVE",
"375 562 CURVE SMOOTH",
"294 562 OFFCURVE",
"234 530 OFFCURVE",
"195 465 CURVE",
"195 552 LINE",
"112 552 LINE",
"112 0 LINE",
"196 0 LINE",
"196 248 LINE SMOOTH",
"196 392 OFFCURVE",
"235 486 OFFCURVE",
"363 486 CURVE SMOOTH",
"450 486 OFFCURVE",
"490 438 OFFCURVE",
"490 331 CURVE SMOOTH",
"490 0 LINE",
"573 0 LINE",
"573 337 LINE SMOOTH"
);
},
{
closed = 1;
nodes = (
"478 636 OFFCURVE",
"511 675 OFFCURVE",
"518 739 CURVE",
"467 757 LINE",
"460 722 OFFCURVE",
"446 705 OFFCURVE",
"425 705 CURVE SMOOTH",
"415 705 OFFCURVE",
"394 713 OFFCURVE",
"363 728 CURVE SMOOTH",
"331 743 OFFCURVE",
"306 751 OFFCURVE",
"289 751 CURVE SMOOTH",
"236 751 OFFCURVE",
"196 711 OFFCURVE",
"189 646 CURVE",
"240 630 LINE",
"247 666 OFFCURVE",
"260 682 OFFCURVE",
"287 682 CURVE SMOOTH",
"298 682 OFFCURVE",
"320 674 OFFCURVE",
"353 659 CURVE SMOOTH",
"385 644 OFFCURVE",
"409 636 OFFCURVE",
"426 636 CURVE SMOOTH"
);
}
);
width = 680;
}
);
note = ntilde;
unicode = 00F1;
},
{
glyphname = ograve;
lastChange = "2017-11-01 11:12:47 +0000";
layers = (
{
layerId = "21C067DE-0135-4A31-BCA0-37E1E4C9B62B";
paths = (
{
closed = 1;
nodes = (
"174 415 OFFCURVE",
"228 486 OFFCURVE",
"336 486 CURVE SMOOTH",
"441 486 OFFCURVE",
"507 410 OFFCURVE",
"507 279 CURVE SMOOTH",
"507 147 OFFCURVE",
"447 66 OFFCURVE",
"343 66 CURVE SMOOTH",
"238 66 OFFCURVE",
"174 142 OFFCURVE",
"174 273 CURVE SMOOTH"
);
},
{
closed = 1;
nodes = (
"595 443 OFFCURVE",
"497 562 OFFCURVE",
"341 562 CURVE SMOOTH",
"184 562 OFFCURVE",
"85 452 OFFCURVE",
"85 276 CURVE SMOOTH",
"85 101 OFFCURVE",
"194 -10 OFFCURVE",
"338 -10 CURVE SMOOTH",
"497 -10 OFFCURVE",
"595 101 OFFCURVE",
"595 276 CURVE SMOOTH"
);
},
{
closed = 1;
nodes = (
"341 602 LINE",
"395 602 LINE",
"333 782 LINE",
"224 782 LINE"
);
}
);
width = 680;
}
);
note = ograve;
unicode = 00F2;
},
{
glyphname = oacute;
lastChange = "2017-11-01 11:12:47 +0000";
layers = (
{
layerId = "21C067DE-0135-4A31-BCA0-37E1E4C9B62B";
paths = (
{
closed = 1;
nodes = (
"174 415 OFFCURVE",
"228 486 OFFCURVE",
"336 486 CURVE SMOOTH",
"441 486 OFFCURVE",
"507 410 OFFCURVE",
"507 279 CURVE SMOOTH",
"507 147 OFFCURVE",
"447 66 OFFCURVE",
"343 66 CURVE SMOOTH",
"238 66 OFFCURVE",
"174 142 OFFCURVE",
"174 273 CURVE SMOOTH"
);
},
{
closed = 1;
nodes = (
"595 443 OFFCURVE",
"497 562 OFFCURVE",
"341 562 CURVE SMOOTH",
"184 562 OFFCURVE",
"85 452 OFFCURVE",
"85 276 CURVE SMOOTH",
"85 101 OFFCURVE",
"194 -10 OFFCURVE",
"338 -10 CURVE SMOOTH",
"497 -10 OFFCURVE",
"595 101 OFFCURVE",
"595 276 CURVE SMOOTH"
);
},
{
closed = 1;
nodes = (
"455 782 LINE",
"346 782 LINE",
"284 602 LINE",
"338 602 LINE"
);
}
);
width = 680;
}
);
note = oacute;
unicode = 00F3;
},
{
glyphname = ocircumflex;
lastChange = "2017-11-01 11:12:47 +0000";
layers = (
{
layerId = "21C067DE-0135-4A31-BCA0-37E1E4C9B62B";
paths = (
{
closed = 1;
nodes = (
"174 415 OFFCURVE",
"228 486 OFFCURVE",
"336 486 CURVE SMOOTH",
"441 486 OFFCURVE",
"507 410 OFFCURVE",
"507 279 CURVE SMOOTH",
"507 147 OFFCURVE",
"447 66 OFFCURVE",
"343 66 CURVE SMOOTH",
"238 66 OFFCURVE",
"174 142 OFFCURVE",
"174 273 CURVE SMOOTH"
);
},
{
closed = 1;
nodes = (
"595 443 OFFCURVE",
"497 562 OFFCURVE",
"341 562 CURVE SMOOTH",
"184 562 OFFCURVE",
"85 452 OFFCURVE",
"85 276 CURVE SMOOTH",
"85 101 OFFCURVE",
"194 -10 OFFCURVE",
"338 -10 CURVE SMOOTH",
"497 -10 OFFCURVE",
"595 101 OFFCURVE",
"595 276 CURVE SMOOTH"
);
},
{
closed = 1;
nodes = (
"338 703 LINE",
"446 602 LINE",
"504 602 LINE",
"379 782 LINE",
"298 782 LINE",
"175 602 LINE",
"231 602 LINE"
);
}
);
width = 680;
}
);
note = ocircumflex;
unicode = 00F4;
},
{
glyphname = otilde;
lastChange = "2017-11-01 11:12:47 +0000";
layers = (
{
layerId = "21C067DE-0135-4A31-BCA0-37E1E4C9B62B";
paths = (
{
closed = 1;
nodes = (
"174 415 OFFCURVE",
"228 486 OFFCURVE",
"336 486 CURVE SMOOTH",
"441 486 OFFCURVE",
"507 410 OFFCURVE",
"507 279 CURVE SMOOTH",
"507 147 OFFCURVE",
"447 66 OFFCURVE",
"343 66 CURVE SMOOTH",
"238 66 OFFCURVE",
"174 142 OFFCURVE",
"174 273 CURVE SMOOTH"
);
},
{
closed = 1;
nodes = (
"595 443 OFFCURVE",
"497 562 OFFCURVE",
"341 562 CURVE SMOOTH",
"184 562 OFFCURVE",
"85 452 OFFCURVE",
"85 276 CURVE SMOOTH",
"85 101 OFFCURVE",
"194 -10 OFFCURVE",
"338 -10 CURVE SMOOTH",
"497 -10 OFFCURVE",
"595 101 OFFCURVE",
"595 276 CURVE SMOOTH"
);
},
{
closed = 1;
nodes = (
"464 636 OFFCURVE",
"497 675 OFFCURVE",
"504 739 CURVE",
"453 757 LINE",
"446 722 OFFCURVE",
"432 705 OFFCURVE",
"411 705 CURVE SMOOTH",
"401 705 OFFCURVE",
"380 713 OFFCURVE",
"349 728 CURVE SMOOTH",
"317 743 OFFCURVE",
"292 751 OFFCURVE",
"275 751 CURVE SMOOTH",
"222 751 OFFCURVE",
"182 711 OFFCURVE",
"175 646 CURVE",
"226 630 LINE",
"233 666 OFFCURVE",
"246 682 OFFCURVE",
"273 682 CURVE SMOOTH",
"284 682 OFFCURVE",
"306 674 OFFCURVE",
"339 659 CURVE SMOOTH",
"371 644 OFFCURVE",
"395 636 OFFCURVE",
"412 636 CURVE SMOOTH"
);
}
);
width = 680;
}
);
note = otilde;
unicode = 00F5;
},
{
glyphname = odieresis;
lastChange = "2017-11-01 11:12:47 +0000";
layers = (
{
layerId = "21C067DE-0135-4A31-BCA0-37E1E4C9B62B";
paths = (
{
closed = 1;
nodes = (
"174 415 OFFCURVE",
"228 486 OFFCURVE",
"336 486 CURVE SMOOTH",
"441 486 OFFCURVE",
"507 410 OFFCURVE",
"507 279 CURVE SMOOTH",
"507 147 OFFCURVE",
"447 66 OFFCURVE",
"343 66 CURVE SMOOTH",
"238 66 OFFCURVE",
"174 142 OFFCURVE",
"174 273 CURVE SMOOTH"
);
},
{
closed = 1;
nodes = (
"595 443 OFFCURVE",
"497 562 OFFCURVE",
"341 562 CURVE SMOOTH",
"184 562 OFFCURVE",
"85 452 OFFCURVE",
"85 276 CURVE SMOOTH",
"85 101 OFFCURVE",
"194 -10 OFFCURVE",
"338 -10 CURVE SMOOTH",
"497 -10 OFFCURVE",
"595 101 OFFCURVE",
"595 276 CURVE SMOOTH"
);
},
{
closed = 1;
nodes = (
"221 645 OFFCURVE",
"233 640 OFFCURVE",
"247 640 CURVE SMOOTH",
"274 640 OFFCURVE",
"295 659 OFFCURVE",
"295 691 CURVE SMOOTH",
"295 723 OFFCURVE",
"274 742 OFFCURVE",
"247 742 CURVE SMOOTH",
"219 742 OFFCURVE",
"196 723 OFFCURVE",
"196 691 CURVE SMOOTH",
"196 675 OFFCURVE",
"201 663 OFFCURVE",
"211 654 CURVE SMOOTH"
);
},
{
closed = 1;
nodes = (
"410 645 OFFCURVE",
"422 640 OFFCURVE",
"436 640 CURVE SMOOTH",
"463 640 OFFCURVE",
"484 659 OFFCURVE",
"484 691 CURVE SMOOTH",
"484 723 OFFCURVE",
"463 742 OFFCURVE",
"436 742 CURVE SMOOTH",
"408 742 OFFCURVE",
"385 723 OFFCURVE",
"385 691 CURVE SMOOTH",
"385 675 OFFCURVE",
"390 663 OFFCURVE",
"400 654 CURVE SMOOTH"
);
}
);
width = 680;
}
);
note = odieresis;
unicode = 00F6;
},
{
glyphname = divide;
lastChange = "2017-11-01 11:12:47 +0000";
layers = (
{
layerId = "21C067DE-0135-4A31-BCA0-37E1E4C9B62B";
paths = (
{
closed = 1;
nodes = (
"314 503 OFFCURVE",
"326 498 OFFCURVE",
"340 498 CURVE SMOOTH",
"367 498 OFFCURVE",
"388 517 OFFCURVE",
"388 549 CURVE SMOOTH",
"388 581 OFFCURVE",
"367 600 OFFCURVE",
"340 600 CURVE SMOOTH",
"312 600 OFFCURVE",
"289 581 OFFCURVE",
"289 549 CURVE SMOOTH",
"289 533 OFFCURVE",
"294 521 OFFCURVE",
"304 512 CURVE SMOOTH"
);
},
{
closed = 1;
nodes = (
"314 121 OFFCURVE",
"326 116 OFFCURVE",
"340 116 CURVE SMOOTH",
"367 116 OFFCURVE",
"388 135 OFFCURVE",
"388 167 CURVE SMOOTH",
"388 199 OFFCURVE",
"367 218 OFFCURVE",
"340 218 CURVE SMOOTH",
"312 218 OFFCURVE",
"289 199 OFFCURVE",
"289 167 CURVE SMOOTH",
"289 151 OFFCURVE",
"294 139 OFFCURVE",
"304 130 CURVE SMOOTH"
);
},
{
closed = 1;
nodes = (
"574 324 LINE",
"574 391 LINE",
"105 391 LINE",
"105 324 LINE"
);
}
);
width = 680;
}
);
note = divide;
unicode = 00F7;
},
{
glyphname = oslash;
lastChange = "2017-11-01 11:12:47 +0000";
layers = (
{
layerId = "21C067DE-0135-4A31-BCA0-37E1E4C9B62B";
paths = (
{
closed = 1;
nodes = (
"262 -2 OFFCURVE",
"298 -10 OFFCURVE",
"338 -10 CURVE SMOOTH",
"497 -10 OFFCURVE",
"595 101 OFFCURVE",
"595 276 CURVE SMOOTH",
"595 371 OFFCURVE",
"566 446 OFFCURVE",
"508 500 CURVE",
"571 608 LINE",
"512 642 LINE",
"452 538 LINE",
"418 554 OFFCURVE",
"381 562 OFFCURVE",
"341 562 CURVE SMOOTH",
"184 562 OFFCURVE",
"85 452 OFFCURVE",
"85 276 CURVE SMOOTH",
"85 180 OFFCURVE",
"114 105 OFFCURVE",
"172 52 CURVE",
"111 -54 LINE",
"170 -88 LINE",
"229 14 LINE"
);
},
{
closed = 1;
nodes = (
"174 415 OFFCURVE",
"228 486 OFFCURVE",
"336 486 CURVE SMOOTH",
"364 486 OFFCURVE",
"389 480 OFFCURVE",
"412 469 CURVE",
"214 126 LINE",
"187 162 OFFCURVE",
"174 211 OFFCURVE",
"174 273 CURVE SMOOTH"
);
},
{
closed = 1;
nodes = (
"507 147 OFFCURVE",
"447 66 OFFCURVE",
"343 66 CURVE SMOOTH",
"314 66 OFFCURVE",
"289 71 OFFCURVE",
"268 82 CURVE",
"465 425 LINE",
"493 389 OFFCURVE",
"507 340 OFFCURVE",
"507 279 CURVE SMOOTH"
);
}
);
width = 680;
}
);
note = oslash;
unicode = 00F8;
},
{
glyphname = ugrave;
lastChange = "2017-11-01 11:12:47 +0000";
layers = (
{
layerId = "21C067DE-0135-4A31-BCA0-37E1E4C9B62B";
paths = (
{
closed = 1;
nodes = (
"109 62 OFFCURVE",
"186 -10 OFFCURVE",
"311 -10 CURVE SMOOTH",
"386 -10 OFFCURVE",
"443 22 OFFCURVE",
"483 87 CURVE",
"483 0 LINE",
"566 0 LINE",
"566 552 LINE",
"482 552 LINE",
"482 304 LINE SMOOTH",
"482 157 OFFCURVE",
"440 66 OFFCURVE",
"324 66 CURVE SMOOTH",
"235 66 OFFCURVE",
"192 114 OFFCURVE",
"192 221 CURVE SMOOTH",
"192 552 LINE",
"109 552 LINE",
"109 215 LINE SMOOTH"
);
},
{
closed = 1;
nodes = (
"341 602 LINE",
"395 602 LINE",
"333 782 LINE",
"224 782 LINE"
);
}
);
width = 680;
}
);
note = ugrave;
unicode = 00F9;
},
{
glyphname = uacute;
lastChange = "2017-11-01 11:12:47 +0000";
layers = (
{
layerId = "21C067DE-0135-4A31-BCA0-37E1E4C9B62B";
paths = (
{
closed = 1;
nodes = (
"109 62 OFFCURVE",
"186 -10 OFFCURVE",
"311 -10 CURVE SMOOTH",
"386 -10 OFFCURVE",
"443 22 OFFCURVE",
"483 87 CURVE",
"483 0 LINE",
"566 0 LINE",
"566 552 LINE",
"482 552 LINE",
"482 304 LINE SMOOTH",
"482 157 OFFCURVE",
"440 66 OFFCURVE",
"324 66 CURVE SMOOTH",
"235 66 OFFCURVE",
"192 114 OFFCURVE",
"192 221 CURVE SMOOTH",
"192 552 LINE",
"109 552 LINE",
"109 215 LINE SMOOTH"
);
},
{
closed = 1;
nodes = (
"455 782 LINE",
"346 782 LINE",
"284 602 LINE",
"338 602 LINE"
);
}
);
width = 680;
}
);
note = uacute;
unicode = 00FA;
},
{
glyphname = ucircumflex;
lastChange = "2017-11-01 11:12:47 +0000";
layers = (
{
layerId = "21C067DE-0135-4A31-BCA0-37E1E4C9B62B";
paths = (
{
closed = 1;
nodes = (
"109 62 OFFCURVE",
"186 -10 OFFCURVE",
"311 -10 CURVE SMOOTH",
"386 -10 OFFCURVE",
"443 22 OFFCURVE",
"483 87 CURVE",
"483 0 LINE",
"566 0 LINE",
"566 552 LINE",
"482 552 LINE",
"482 304 LINE SMOOTH",
"482 157 OFFCURVE",
"440 66 OFFCURVE",
"324 66 CURVE SMOOTH",
"235 66 OFFCURVE",
"192 114 OFFCURVE",
"192 221 CURVE SMOOTH",
"192 552 LINE",
"109 552 LINE",
"109 215 LINE SMOOTH"
);
},
{
closed = 1;
nodes = (
"338 703 LINE",
"446 602 LINE",
"504 602 LINE",
"379 782 LINE",
"298 782 LINE",
"175 602 LINE",
"231 602 LINE"
);
}
);
width = 680;
}
);
note = ucircumflex;
unicode = 00FB;
},
{
glyphname = udieresis;
lastChange = "2017-11-01 11:12:47 +0000";
layers = (
{
layerId = "21C067DE-0135-4A31-BCA0-37E1E4C9B62B";
paths = (
{
closed = 1;
nodes = (
"109 62 OFFCURVE",
"186 -10 OFFCURVE",
"311 -10 CURVE SMOOTH",
"386 -10 OFFCURVE",
"443 22 OFFCURVE",
"483 87 CURVE",
"483 0 LINE",
"566 0 LINE",
"566 552 LINE",
"482 552 LINE",
"482 304 LINE SMOOTH",
"482 157 OFFCURVE",
"440 66 OFFCURVE",
"324 66 CURVE SMOOTH",
"235 66 OFFCURVE",
"192 114 OFFCURVE",
"192 221 CURVE SMOOTH",
"192 552 LINE",
"109 552 LINE",
"109 215 LINE SMOOTH"
);
},
{
closed = 1;
nodes = (
"221 645 OFFCURVE",
"233 640 OFFCURVE",
"247 640 CURVE SMOOTH",
"274 640 OFFCURVE",
"295 659 OFFCURVE",
"295 691 CURVE SMOOTH",
"295 723 OFFCURVE",
"274 742 OFFCURVE",
"247 742 CURVE SMOOTH",
"219 742 OFFCURVE",
"196 723 OFFCURVE",
"196 691 CURVE SMOOTH",
"196 675 OFFCURVE",
"201 663 OFFCURVE",
"211 654 CURVE SMOOTH"
);
},
{
closed = 1;
nodes = (
"410 645 OFFCURVE",
"422 640 OFFCURVE",
"436 640 CURVE SMOOTH",
"463 640 OFFCURVE",
"484 659 OFFCURVE",
"484 691 CURVE SMOOTH",
"484 723 OFFCURVE",
"463 742 OFFCURVE",
"436 742 CURVE SMOOTH",
"408 742 OFFCURVE",
"385 723 OFFCURVE",
"385 691 CURVE SMOOTH",
"385 675 OFFCURVE",
"390 663 OFFCURVE",
"400 654 CURVE SMOOTH"
);
}
);
width = 680;
}
);
note = udieresis;
unicode = 00FC;
},
{
glyphname = yacute;
lastChange = "2017-11-01 11:12:47 +0000";
layers = (
{
layerId = "21C067DE-0135-4A31-BCA0-37E1E4C9B62B";
paths = (
{
closed = 1;
nodes = (
"534 552 LINE",
"344 106 LINE",
"267 288 LINE",
"148 552 LINE",
"54 552 LINE",
"303 21 LINE",
"191 -220 LINE",
"283 -220 LINE",
"625 552 LINE"
);
},
{
closed = 1;
nodes = (
"459 782 LINE",
"350 782 LINE",
"288 602 LINE",
"342 602 LINE"
);
}
);
width = 680;
}
);
note = yacute;
unicode = 00FD;
},
{
glyphname = thorn;
lastChange = "2017-11-01 11:12:47 +0000";
layers = (
{
layerId = "21C067DE-0135-4A31-BCA0-37E1E4C9B62B";
paths = (
{
closed = 1;
nodes = (
"223 24 OFFCURVE",
"287 -10 OFFCURVE",
"358 -10 CURVE SMOOTH",
"507 -10 OFFCURVE",
"597 98 OFFCURVE",
"597 275 CURVE SMOOTH",
"597 444 OFFCURVE",
"508 562 OFFCURVE",
"361 562 CURVE SMOOTH",
"286 562 OFFCURVE",
"227 530 OFFCURVE",
"186 465 CURVE",
"186 742 LINE",
"102 742 LINE",
"102 -220 LINE",
"186 -220 LINE",
"186 85 LINE"
);
},
{
closed = 1;
nodes = (
"184 415 OFFCURVE",
"238 486 OFFCURVE",
"345 486 CURVE SMOOTH",
"442 486 OFFCURVE",
"507 410 OFFCURVE",
"507 279 CURVE SMOOTH",
"507 147 OFFCURVE",
"449 66 OFFCURVE",
"348 66 CURVE SMOOTH",
"247 66 OFFCURVE",
"184 142 OFFCURVE",
"184 273 CURVE SMOOTH"
);
}
);
width = 680;
}
);
note = thorn;
unicode = 00FE;
},
{
glyphname = ydieresis;
lastChange = "2017-11-01 11:12:47 +0000";
layers = (
{
layerId = "21C067DE-0135-4A31-BCA0-37E1E4C9B62B";
paths = (
{
closed = 1;
nodes = (
"534 552 LINE",
"344 106 LINE",
"267 288 LINE",
"148 552 LINE",
"54 552 LINE",
"303 21 LINE",
"191 -220 LINE",
"283 -220 LINE",
"625 552 LINE"
);
},
{
closed = 1;
nodes = (
"224 645 OFFCURVE",
"236 640 OFFCURVE",
"250 640 CURVE SMOOTH",
"277 640 OFFCURVE",
"298 659 OFFCURVE",
"298 691 CURVE SMOOTH",
"298 723 OFFCURVE",
"277 742 OFFCURVE",
"250 742 CURVE SMOOTH",
"222 742 OFFCURVE",
"199 723 OFFCURVE",
"199 691 CURVE SMOOTH",
"199 675 OFFCURVE",
"204 663 OFFCURVE",
"214 654 CURVE SMOOTH"
);
},
{
closed = 1;
nodes = (
"413 645 OFFCURVE",
"425 640 OFFCURVE",
"439 640 CURVE SMOOTH",
"466 640 OFFCURVE",
"487 659 OFFCURVE",
"487 691 CURVE SMOOTH",
"487 723 OFFCURVE",
"466 742 OFFCURVE",
"439 742 CURVE SMOOTH",
"411 742 OFFCURVE",
"388 723 OFFCURVE",
"388 691 CURVE SMOOTH",
"388 675 OFFCURVE",
"393 663 OFFCURVE",
"403 654 CURVE SMOOTH"
);
}
);
width = 680;
}
);
note = ydieresis;
unicode = 00FF;
},
{
glyphname = Gbreve;
lastChange = "2017-11-01 11:12:47 +0000";
layers = (
{
layerId = "21C067DE-0135-4A31-BCA0-37E1E4C9B62B";
paths = (
{
closed = 1;
nodes = (
"391 364 LINE",
"391 290 LINE",
"523 290 LINE",
"523 77 LINE",
"486 70 OFFCURVE",
"454 66 OFFCURVE",
"427 66 CURVE SMOOTH",
"270 66 OFFCURVE",
"158 173 OFFCURVE",
"158 354 CURVE SMOOTH",
"158 543 OFFCURVE",
"259 648 OFFCURVE",
"414 648 CURVE SMOOTH",
"463 648 OFFCURVE",
"513 637 OFFCURVE",
"565 615 CURVE",
"575 697 LINE",
"531 715 OFFCURVE",
"477 724 OFFCURVE",
"414 724 CURVE SMOOTH",
"215 724 OFFCURVE",
"70 581 OFFCURVE",
"70 356 CURVE SMOOTH",
"70 129 OFFCURVE",
"215 -10 OFFCURVE",
"428 -10 CURVE SMOOTH",
"486 -10 OFFCURVE",
"545 0 OFFCURVE",
"604 21 CURVE",
"604 364 LINE"
);
},
{
closed = 1;
nodes = (
"218 823 OFFCURVE",
"273 763 OFFCURVE",
"370 763 CURVE SMOOTH",
"467 763 OFFCURVE",
"522 823 OFFCURVE",
"535 943 CURVE",
"486 943 LINE",
"472 870 OFFCURVE",
"433 834 OFFCURVE",
"370 834 CURVE SMOOTH",
"307 834 OFFCURVE",
"268 870 OFFCURVE",
"254 943 CURVE",
"205 943 LINE"
);
}
);
width = 680;
}
);
note = Gbreve;
unicode = 011E;
},
{
glyphname = gbreve;
lastChange = "2017-11-01 11:12:47 +0000";
layers = (
{
layerId = "21C067DE-0135-4A31-BCA0-37E1E4C9B62B";
paths = (
{
closed = 1;
nodes = (
"583 22 OFFCURVE",
"529 79 OFFCURVE",
"437 79 CURVE SMOOTH",
"416 79 OFFCURVE",
"384 77 OFFCURVE",
"339 74 CURVE SMOOTH",
"294 71 OFFCURVE",
"262 69 OFFCURVE",
"241 69 CURVE SMOOTH",
"208 69 OFFCURVE",
"186 90 OFFCURVE",
"186 119 CURVE SMOOTH",
"186 145 OFFCURVE",
"201 168 OFFCURVE",
"231 189 CURVE",
"262 173 OFFCURVE",
"298 165 OFFCURVE",
"338 165 CURVE SMOOTH",
"454 165 OFFCURVE",
"543 245 OFFCURVE",
"543 353 CURVE SMOOTH",
"543 416 OFFCURVE",
"523 461 OFFCURVE",
"484 490 CURVE",
"618 482 LINE",
"628 552 LINE",
"509 552 LINE SMOOTH",
"484 552 OFFCURVE",
"454 554 OFFCURVE",
"421 557 CURVE SMOOTH",
"387 560 OFFCURVE",
"360 562 OFFCURVE",
"339 562 CURVE SMOOTH",
"211 562 OFFCURVE",
"126 482 OFFCURVE",
"126 362 CURVE SMOOTH",
"126 307 OFFCURVE",
"145 261 OFFCURVE",
"183 224 CURVE",
"136 195 OFFCURVE",
"113 157 OFFCURVE",
"113 112 CURVE SMOOTH",
"113 67 OFFCURVE",
"132 33 OFFCURVE",
"170 10 CURVE",
"128 -15 OFFCURVE",
"107 -50 OFFCURVE",
"107 -97 CURVE SMOOTH",
"107 -178 OFFCURVE",
"183 -240 OFFCURVE",
"322 -240 CURVE SMOOTH",
"483 -240 OFFCURVE",
"583 -158 OFFCURVE",
"583 -55 CURVE SMOOTH"
);
},
{
closed = 1;
nodes = (
"211 440 OFFCURVE",
"261 487 OFFCURVE",
"337 487 CURVE SMOOTH",
"406 487 OFFCURVE",
"458 436 OFFCURVE",
"458 364 CURVE SMOOTH",
"458 292 OFFCURVE",
"409 243 OFFCURVE",
"336 243 CURVE SMOOTH",
"265 243 OFFCURVE",
"211 291 OFFCURVE",
"211 363 CURVE SMOOTH"
);
},
{
closed = 1;
nodes = (
"262 -10 OFFCURVE",
"294 -8 OFFCURVE",
"338 -5 CURVE SMOOTH",
"382 -2 OFFCURVE",
"414 0 OFFCURVE",
"433 0 CURVE SMOOTH",
"480 0 OFFCURVE",
"503 -21 OFFCURVE",
"503 -63 CURVE SMOOTH",
"503 -124 OFFCURVE",
"444 -168 OFFCURVE",
"336 -168 CURVE SMOOTH",
"236 -168 OFFCURVE",
"187 -129 OFFCURVE",
"187 -77 CURVE SMOOTH",
"187 -46 OFFCURVE",
"198 -24 OFFCURVE",
"221 -9 CURVE",
"226 -10 OFFCURVE",
"233 -10 OFFCURVE",
"243 -10 CURVE SMOOTH"
);
},
{
closed = 1;
nodes = (
"188 662 OFFCURVE",
"243 602 OFFCURVE",
"340 602 CURVE SMOOTH",
"437 602 OFFCURVE",
"492 662 OFFCURVE",
"505 782 CURVE",
"456 782 LINE",
"442 709 OFFCURVE",
"403 673 OFFCURVE",
"340 673 CURVE SMOOTH",
"277 673 OFFCURVE",
"238 709 OFFCURVE",
"224 782 CURVE",
"175 782 LINE"
);
}
);
width = 680;
}
);
note = gbreve;
unicode = 011F;
},
{
glyphname = dotlessI;
lastChange = "2017-11-01 11:12:47 +0000";
layers = (
{
layerId = "21C067DE-0135-4A31-BCA0-37E1E4C9B62B";
paths = (
{
closed = 1;
nodes = (
"122 0 LINE",
"557 0 LINE",
"557 74 LINE",
"381 74 LINE",
"381 640 LINE",
"557 640 LINE",
"557 714 LINE",
"122 714 LINE",
"122 640 LINE",
"298 640 LINE",
"298 74 LINE",
"122 74 LINE"
);
},
{
closed = 1;
nodes = (
"279 792 OFFCURVE",
"306 769 OFFCURVE",
"341 769 CURVE SMOOTH",
"376 769 OFFCURVE",
"400 792 OFFCURVE",
"400 831 CURVE SMOOTH",
"400 871 OFFCURVE",
"376 893 OFFCURVE",
"341 893 CURVE SMOOTH",
"306 893 OFFCURVE",
"279 871 OFFCURVE",
"279 831 CURVE SMOOTH"
);
}
);
width = 680;
}
);
note = dotlessI;
unicode = 0130;
},
{
glyphname = dotlessi;
lastChange = "2017-11-01 11:12:47 +0000";
layers = (
{
layerId = "21C067DE-0135-4A31-BCA0-37E1E4C9B62B";
paths = (
{
closed = 1;
nodes = (
"305 482 LINE",
"305 70 LINE",
"126 70 LINE",
"126 0 LINE",
"567 0 LINE",
"567 70 LINE",
"388 70 LINE",
"388 552 LINE",
"136 552 LINE",
"136 482 LINE"
);
}
);
width = 680;
}
);
note = dotlessi;
unicode = 0131;
},
{
glyphname = Lslash;
lastChange = "2017-11-01 11:12:47 +0000";
layers = (
{
layerId = "21C067DE-0135-4A31-BCA0-37E1E4C9B62B";
paths = (
{
closed = 1;
nodes = (
"201 0 LINE",
"599 0 LINE",
"599 75 LINE",
"284 75 LINE",
"284 294 LINE",
"494 418 LINE",
"461 474 LINE",
"284 370 LINE",
"284 714 LINE",
"201 714 LINE",
"201 325 LINE",
"80 254 LINE",
"113 198 LINE",
"201 249 LINE"
);
}
);
width = 680;
}
);
note = Lslash;
unicode = 0141;
},
{
glyphname = lslash;
lastChange = "2017-11-01 11:12:47 +0000";
layers = (
{
layerId = "21C067DE-0135-4A31-BCA0-37E1E4C9B62B";
paths = (
{
closed = 1;
nodes = (
"305 672 LINE",
"305 375 LINE",
"154 287 LINE",
"187 231 LINE",
"305 299 LINE",
"305 70 LINE",
"126 70 LINE",
"126 0 LINE",
"567 0 LINE",
"567 70 LINE",
"388 70 LINE",
"388 344 LINE",
"557 443 LINE",
"524 499 LINE",
"388 420 LINE",
"388 742 LINE",
"136 742 LINE",
"136 672 LINE"
);
}
);
width = 680;
}
);
note = lslash;
unicode = 0142;
},
{
glyphname = OE;
lastChange = "2017-11-01 11:12:47 +0000";
layers = (
{
layerId = "21C067DE-0135-4A31-BCA0-37E1E4C9B62B";
paths = (
{
closed = 1;
nodes = (
"209 623 OFFCURVE",
"246 648 OFFCURVE",
"295 648 CURVE SMOOTH",
"310 648 OFFCURVE",
"325 645 OFFCURVE",
"340 639 CURVE",
"340 75 LINE",
"325 69 OFFCURVE",
"310 66 OFFCURVE",
"295 66 CURVE SMOOTH",
"198 66 OFFCURVE",
"142 166 OFFCURVE",
"142 357 CURVE SMOOTH",
"142 452 OFFCURVE",
"155 525 OFFCURVE",
"182 574 CURVE SMOOTH"
);
},
{
closed = 1;
nodes = (
"159 23 OFFCURVE",
"215 -10 OFFCURVE",
"286 -10 CURVE SMOOTH",
"309 -10 OFFCURVE",
"334 -7 OFFCURVE",
"359 0 CURVE",
"634 0 LINE",
"634 74 LINE",
"423 74 LINE",
"423 337 LINE",
"605 337 LINE",
"605 411 LINE",
"423 411 LINE",
"423 640 LINE",
"624 640 LINE",
"624 714 LINE",
"360 714 LINE",
"335 721 OFFCURVE",
"311 724 OFFCURVE",
"288 724 CURVE SMOOTH",
"143 724 OFFCURVE",
"56 580 OFFCURVE",
"56 357 CURVE SMOOTH",
"56 246 OFFCURVE",
"77 157 OFFCURVE",
"118 90 CURVE SMOOTH"
);
}
);
width = 680;
}
);
note = OE;
unicode = 0152;
},
{
glyphname = oe;
lastChange = "2017-11-01 11:12:47 +0000";
layers = (
{
layerId = "21C067DE-0135-4A31-BCA0-37E1E4C9B62B";
paths = (
{
closed = 1;
nodes = (
"105 562 OFFCURVE",
"41 453 OFFCURVE",
"41 276 CURVE SMOOTH",
"41 93 OFFCURVE",
"105 -10 OFFCURVE",
"225 -10 CURVE SMOOTH",
"292 -10 OFFCURVE",
"328 19 OFFCURVE",
"363 91 CURVE",
"396 24 OFFCURVE",
"453 -10 OFFCURVE",
"534 -10 CURVE SMOOTH",
"564 -10 OFFCURVE",
"594 -3 OFFCURVE",
"623 11 CURVE",
"623 92 LINE",
"585 75 OFFCURVE",
"555 66 OFFCURVE",
"533 66 CURVE SMOOTH",
"449 66 OFFCURVE",
"405 140 OFFCURVE",
"405 271 CURVE",
"636 271 LINE",
"638 305 OFFCURVE",
"639 329 OFFCURVE",
"639 344 CURVE SMOOTH",
"639 491 OFFCURVE",
"577 562 OFFCURVE",
"492 562 CURVE SMOOTH",
"432 562 OFFCURVE",
"388 530 OFFCURVE",
"361 466 CURVE",
"330 531 OFFCURVE",
"289 562 OFFCURVE",
"217 562 CURVE SMOOTH"
);
},
{
closed = 1;
nodes = (
"130 415 OFFCURVE",
"161 486 OFFCURVE",
"223 486 CURVE SMOOTH",
"286 486 OFFCURVE",
"317 417 OFFCURVE",
"317 279 CURVE SMOOTH",
"317 212 OFFCURVE",
"309 160 OFFCURVE",
"294 123 CURVE SMOOTH",
"278 85 OFFCURVE",
"254 66 OFFCURVE",
"223 66 CURVE SMOOTH",
"161 66 OFFCURVE",
"130 135 OFFCURVE",
"130 273 CURVE SMOOTH"
);
},
{
closed = 1;
nodes = (
"533 486 OFFCURVE",
"553 438 OFFCURVE",
"553 341 CURVE",
"410 341 LINE",
"411 429 OFFCURVE",
"441 486 OFFCURVE",
"492 486 CURVE SMOOTH"
);
}
);
width = 680;
}
);
note = oe;
unicode = 0153;
},
{
glyphname = Scedilla;
lastChange = "2017-11-01 11:12:47 +0000";
layers = (
{
layerId = "21C067DE-0135-4A31-BCA0-37E1E4C9B62B";
paths = (
{
closed = 1;
nodes = (
"587 282 OFFCURVE",
"542 343 OFFCURVE",
"419 383 CURVE SMOOTH",
"294 424 LINE SMOOTH",
"221 448 OFFCURVE",
"186 479 OFFCURVE",
"186 532 CURVE SMOOTH",
"186 603 OFFCURVE",
"243 648 OFFCURVE",
"354 648 CURVE SMOOTH",
"421 648 OFFCURVE",
"485 630 OFFCURVE",
"547 594 CURVE",
"565 681 LINE",
"504 710 OFFCURVE",
"433 724 OFFCURVE",
"353 724 CURVE SMOOTH",
"197 724 OFFCURVE",
"102 643 OFFCURVE",
"102 531 CURVE SMOOTH",
"102 444 OFFCURVE",
"155 383 OFFCURVE",
"262 346 CURVE SMOOTH",
"403 298 LINE SMOOTH",
"475 273 OFFCURVE",
"501 239 OFFCURVE",
"501 188 CURVE SMOOTH",
"501 112 OFFCURVE",
"434 66 OFFCURVE",
"321 66 CURVE SMOOTH",
"246 66 OFFCURVE",
"174 87 OFFCURVE",
"103 129 CURVE",
"93 40 LINE",
"158 7 OFFCURVE",
"233 -10 OFFCURVE",
"318 -10 CURVE SMOOTH",
"490 -10 OFFCURVE",
"587 66 OFFCURVE",
"587 185 CURVE SMOOTH"
);
},
{
closed = 1;
nodes = (
"254 -230 LINE",
"363 -230 LINE",
"425 -50 LINE",
"371 -50 LINE"
);
}
);
width = 680;
}
);
note = Scedilla;
unicode = 015E;
},
{
glyphname = scedilla;
lastChange = "2017-11-01 11:12:47 +0000";
layers = (
{
layerId = "21C067DE-0135-4A31-BCA0-37E1E4C9B62B";
paths = (
{
closed = 1;
nodes = (
"573 230 OFFCURVE",
"519 287 OFFCURVE",
"412 312 CURVE SMOOTH",
"289 340 LINE SMOOTH",
"229 353 OFFCURVE",
"204 375 OFFCURVE",
"204 414 CURVE SMOOTH",
"204 435 OFFCURVE",
"215 452 OFFCURVE",
"238 466 CURVE SMOOTH",
"260 479 OFFCURVE",
"295 486 OFFCURVE",
"343 486 CURVE SMOOTH",
"401 486 OFFCURVE",
"464 470 OFFCURVE",
"533 437 CURVE",
"543 526 LINE",
"484 550 OFFCURVE",
"419 562 OFFCURVE",
"348 562 CURVE SMOOTH",
"201 562 OFFCURVE",
"120 502 OFFCURVE",
"120 410 CURVE SMOOTH",
"120 333 OFFCURVE",
"171 283 OFFCURVE",
"272 258 CURVE SMOOTH",
"397 228 LINE SMOOTH",
"458 213 OFFCURVE",
"488 185 OFFCURVE",
"488 142 CURVE SMOOTH",
"488 91 OFFCURVE",
"441 66 OFFCURVE",
"346 66 CURVE SMOOTH",
"272 66 OFFCURVE",
"201 86 OFFCURVE",
"133 126 CURVE",
"122 37 LINE",
"185 6 OFFCURVE",
"260 -10 OFFCURVE",
"348 -10 CURVE SMOOTH",
"497 -10 OFFCURVE",
"573 46 OFFCURVE",
"573 141 CURVE SMOOTH"
);
},
{
closed = 1;
nodes = (
"234 -230 LINE",
"343 -230 LINE",
"405 -50 LINE",
"351 -50 LINE"
);
}
);
width = 680;
}
);
note = scedilla;
unicode = 015F;
},
{
glyphname = Scaron;
lastChange = "2017-11-01 11:12:47 +0000";
layers = (
{
layerId = "21C067DE-0135-4A31-BCA0-37E1E4C9B62B";
paths = (
{
closed = 1;
nodes = (
"587 282 OFFCURVE",
"542 343 OFFCURVE",
"419 383 CURVE SMOOTH",
"294 424 LINE SMOOTH",
"221 448 OFFCURVE",
"186 479 OFFCURVE",
"186 532 CURVE SMOOTH",
"186 603 OFFCURVE",
"243 648 OFFCURVE",
"354 648 CURVE SMOOTH",
"421 648 OFFCURVE",
"485 630 OFFCURVE",
"547 594 CURVE",
"565 681 LINE",
"504 710 OFFCURVE",
"433 724 OFFCURVE",
"353 724 CURVE SMOOTH",
"197 724 OFFCURVE",
"102 643 OFFCURVE",
"102 531 CURVE SMOOTH",
"102 444 OFFCURVE",
"155 383 OFFCURVE",
"262 346 CURVE SMOOTH",
"403 298 LINE SMOOTH",
"475 273 OFFCURVE",
"501 239 OFFCURVE",
"501 188 CURVE SMOOTH",
"501 112 OFFCURVE",
"434 66 OFFCURVE",
"321 66 CURVE SMOOTH",
"246 66 OFFCURVE",
"174 87 OFFCURVE",
"103 129 CURVE",
"93 40 LINE",
"158 7 OFFCURVE",
"233 -10 OFFCURVE",
"318 -10 CURVE SMOOTH",
"490 -10 OFFCURVE",
"587 66 OFFCURVE",
"587 185 CURVE SMOOTH"
);
},
{
closed = 1;
nodes = (
"519 934 LINE",
"461 934 LINE",
"353 833 LINE",
"246 934 LINE",
"190 934 LINE",
"313 754 LINE",
"394 754 LINE"
);
}
);
width = 680;
}
);
note = Scaron;
unicode = 0160;
},
{
glyphname = scaron;
lastChange = "2017-11-01 11:12:47 +0000";
layers = (
{
layerId = "21C067DE-0135-4A31-BCA0-37E1E4C9B62B";
paths = (
{
closed = 1;
nodes = (
"573 230 OFFCURVE",
"519 287 OFFCURVE",
"412 312 CURVE SMOOTH",
"289 340 LINE SMOOTH",
"229 353 OFFCURVE",
"204 375 OFFCURVE",
"204 414 CURVE SMOOTH",
"204 435 OFFCURVE",
"215 452 OFFCURVE",
"238 466 CURVE SMOOTH",
"260 479 OFFCURVE",
"295 486 OFFCURVE",
"343 486 CURVE SMOOTH",
"401 486 OFFCURVE",
"464 470 OFFCURVE",
"533 437 CURVE",
"543 526 LINE",
"484 550 OFFCURVE",
"419 562 OFFCURVE",
"348 562 CURVE SMOOTH",
"201 562 OFFCURVE",
"120 502 OFFCURVE",
"120 410 CURVE SMOOTH",
"120 333 OFFCURVE",
"171 283 OFFCURVE",
"272 258 CURVE SMOOTH",
"397 228 LINE SMOOTH",
"458 213 OFFCURVE",
"488 185 OFFCURVE",
"488 142 CURVE SMOOTH",
"488 91 OFFCURVE",
"441 66 OFFCURVE",
"346 66 CURVE SMOOTH",
"272 66 OFFCURVE",
"201 86 OFFCURVE",
"133 126 CURVE",
"122 37 LINE",
"185 6 OFFCURVE",
"260 -10 OFFCURVE",
"348 -10 CURVE SMOOTH",
"497 -10 OFFCURVE",
"573 46 OFFCURVE",
"573 141 CURVE SMOOTH"
);
},
{
closed = 1;
nodes = (
"503 782 LINE",
"445 782 LINE",
"337 681 LINE",
"230 782 LINE",
"174 782 LINE",
"297 602 LINE",
"378 602 LINE"
);
}
);
width = 680;
}
);
note = scaron;
unicode = 0161;
},
{
glyphname = Ydieresis;
lastChange = "2017-11-01 11:12:47 +0000";
layers = (
{
layerId = "21C067DE-0135-4A31-BCA0-37E1E4C9B62B";
paths = (
{
closed = 1;
nodes = (
"298 283 LINE",
"298 0 LINE",
"382 0 LINE",
"382 287 LINE",
"640 714 LINE",
"549 714 LINE",
"340 368 LINE",
"132 714 LINE",
"40 714 LINE"
);
},
{
closed = 1;
nodes = (
"221 787 OFFCURVE",
"233 782 OFFCURVE",
"247 782 CURVE SMOOTH",
"274 782 OFFCURVE",
"295 801 OFFCURVE",
"295 833 CURVE SMOOTH",
"295 865 OFFCURVE",
"274 884 OFFCURVE",
"247 884 CURVE SMOOTH",
"219 884 OFFCURVE",
"196 865 OFFCURVE",
"196 833 CURVE SMOOTH",
"196 817 OFFCURVE",
"201 805 OFFCURVE",
"211 796 CURVE SMOOTH"
);
},
{
closed = 1;
nodes = (
"410 787 OFFCURVE",
"422 782 OFFCURVE",
"436 782 CURVE SMOOTH",
"463 782 OFFCURVE",
"484 801 OFFCURVE",
"484 833 CURVE SMOOTH",
"484 865 OFFCURVE",
"463 884 OFFCURVE",
"436 884 CURVE SMOOTH",
"408 884 OFFCURVE",
"385 865 OFFCURVE",
"385 833 CURVE SMOOTH",
"385 817 OFFCURVE",
"390 805 OFFCURVE",
"400 796 CURVE SMOOTH"
);
}
);
width = 680;
}
);
note = Ydieresis;
unicode = 0178;
},
{
glyphname = Zcaron;
lastChange = "2017-11-01 11:12:47 +0000";
layers = (
{
layerId = "21C067DE-0135-4A31-BCA0-37E1E4C9B62B";
paths = (
{
closed = 1;
nodes = (
"584 649 LINE",
"584 714 LINE",
"96 714 LINE",
"96 640 LINE",
"481 640 LINE",
"84 65 LINE",
"84 0 LINE",
"595 0 LINE",
"595 74 LINE",
"187 74 LINE"
);
},
{
closed = 1;
nodes = (
"504 934 LINE",
"446 934 LINE",
"338 833 LINE",
"231 934 LINE",
"175 934 LINE",
"298 754 LINE",
"379 754 LINE"
);
}
);
width = 680;
}
);
note = Zcaron;
unicode = 017D;
},
{
glyphname = zcaron;
lastChange = "2017-11-01 11:12:47 +0000";
layers = (
{
layerId = "21C067DE-0135-4A31-BCA0-37E1E4C9B62B";
paths = (
{
closed = 1;
nodes = (
"548 482 LINE",
"548 552 LINE",
"144 552 LINE",
"144 482 LINE",
"446 482 LINE",
"125 62 LINE",
"125 0 LINE",
"555 0 LINE",
"555 70 LINE",
"231 70 LINE"
);
},
{
closed = 1;
nodes = (
"504 782 LINE",
"446 782 LINE",
"338 681 LINE",
"231 782 LINE",
"175 782 LINE",
"298 602 LINE",
"379 602 LINE"
);
}
);
width = 680;
}
);
note = zcaron;
unicode = 017E;
},
{
glyphname = florin;
lastChange = "2017-11-01 11:12:47 +0000";
layers = (
{
layerId = "21C067DE-0135-4A31-BCA0-37E1E4C9B62B";
paths = (
{
closed = 1;
nodes = (
"187 394 LINE",
"296 394 LINE",
"214 -67 LINE SMOOTH",
"205 -119 OFFCURVE",
"178 -145 OFFCURVE",
"132 -145 CURVE SMOOTH",
"115 -145 OFFCURVE",
"97 -142 OFFCURVE",
"76 -136 CURVE",
"69 -210 LINE",
"87 -217 OFFCURVE",
"107 -220 OFFCURVE",
"129 -220 CURVE SMOOTH",
"222 -220 OFFCURVE",
"277 -173 OFFCURVE",
"294 -79 CURVE SMOOTH",
"379 394 LINE",
"529 394 LINE",
"552 464 LINE",
"392 464 LINE",
"405 542 LINE SMOOTH",
"417 613 OFFCURVE",
"456 648 OFFCURVE",
"521 648 CURVE SMOOTH",
"549 648 OFFCURVE",
"576 643 OFFCURVE",
"602 634 CURVE",
"611 710 LINE",
"585 719 OFFCURVE",
"556 724 OFFCURVE",
"523 724 CURVE SMOOTH",
"412 724 OFFCURVE",
"342 659 OFFCURVE",
"325 558 CURVE SMOOTH",
"309 464 LINE",
"200 464 LINE"
);
}
);
width = 680;
}
);
note = florin;
unicode = 0192;
},
{
glyphname = NJ;
lastChange = "2017-11-01 11:12:47 +0000";
layers = (
{
layerId = "21C067DE-0135-4A31-BCA0-37E1E4C9B62B";
paths = (
{
closed = 1;
nodes = (
"505 714 LINE",
"505 414 LINE",
"509 180 LINE",
"185 714 LINE",
"95 714 LINE",
"95 0 LINE",
"174 0 LINE",
"174 358 LINE",
"170 588 LINE",
"519 0 LINE",
"585 0 LINE",
"585 714 LINE"
);
}
);
width = 680;
}
);
note = NJ;
unicode = 01CA;
},
{
glyphname = dotlessj;
lastChange = "2017-11-01 11:12:47 +0000";
layers = (
{
layerId = "21C067DE-0135-4A31-BCA0-37E1E4C9B62B";
paths = (
{
closed = 1;
nodes = (
"377 -99 OFFCURVE",
"334 -145 OFFCURVE",
"247 -145 CURVE SMOOTH",
"204 -145 OFFCURVE",
"162 -136 OFFCURVE",
"121 -118 CURVE",
"121 -197 LINE",
"164 -213 OFFCURVE",
"207 -221 OFFCURVE",
"250 -221 CURVE SMOOTH",
"379 -221 OFFCURVE",
"459 -151 OFFCURVE",
"459 -18 CURVE SMOOTH",
"459 552 LINE",
"147 552 LINE",
"147 482 LINE",
"377 482 LINE",
"377 -7 LINE SMOOTH"
);
}
);
width = 680;
}
);
note = dotlessj;
unicode = 0237;
},
{
glyphname = circumflex;
lastChange = "2017-11-01 11:12:47 +0000";
layers = (
{
layerId = "21C067DE-0135-4A31-BCA0-37E1E4C9B62B";
paths = (
{
closed = 1;
nodes = (
"338 703 LINE",
"446 602 LINE",
"504 602 LINE",
"379 782 LINE",
"298 782 LINE",
"175 602 LINE",
"231 602 LINE"
);
}
);
width = 680;
}
);
note = circumflex;
unicode = 02C6;
},
{
glyphname = caron;
lastChange = "2017-11-01 11:12:47 +0000";
layers = (
{
layerId = "21C067DE-0135-4A31-BCA0-37E1E4C9B62B";
paths = (
{
closed = 1;
nodes = (
"504 782 LINE",
"446 782 LINE",
"338 681 LINE",
"231 782 LINE",
"175 782 LINE",
"298 602 LINE",
"379 602 LINE"
);
}
);
width = 680;
}
);
note = caron;
unicode = 02C7;
},
{
glyphname = breve;
lastChange = "2017-11-01 11:12:47 +0000";
layers = (
{
layerId = "21C067DE-0135-4A31-BCA0-37E1E4C9B62B";
paths = (
{
closed = 1;
nodes = (
"188 662 OFFCURVE",
"243 602 OFFCURVE",
"340 602 CURVE SMOOTH",
"437 602 OFFCURVE",
"492 662 OFFCURVE",
"505 782 CURVE",
"456 782 LINE",
"442 709 OFFCURVE",
"403 673 OFFCURVE",
"340 673 CURVE SMOOTH",
"277 673 OFFCURVE",
"238 709 OFFCURVE",
"224 782 CURVE",
"175 782 LINE"
);
}
);
width = 680;
}
);
note = breve;
unicode = 02D8;
},
{
glyphname = dotaccent;
lastChange = "2017-11-01 11:12:47 +0000";
layers = (
{
layerId = "21C067DE-0135-4A31-BCA0-37E1E4C9B62B";
paths = (
{
closed = 1;
nodes = (
"279 652 OFFCURVE",
"306 629 OFFCURVE",
"341 629 CURVE SMOOTH",
"376 629 OFFCURVE",
"400 652 OFFCURVE",
"400 691 CURVE SMOOTH",
"400 731 OFFCURVE",
"376 753 OFFCURVE",
"341 753 CURVE SMOOTH",
"306 753 OFFCURVE",
"279 731 OFFCURVE",
"279 691 CURVE SMOOTH"
);
}
);
width = 680;
}
);
note = dotaccent;
unicode = 02D9;
},
{
glyphname = ring;
lastChange = "2017-11-01 11:12:47 +0000";
layers = (
{
layerId = "21C067DE-0135-4A31-BCA0-37E1E4C9B62B";
paths = (
{
closed = 1;
nodes = (
"449 763 OFFCURVE",
"403 809 OFFCURVE",
"339 809 CURVE SMOOTH",
"275 809 OFFCURVE",
"231 765 OFFCURVE",
"231 705 CURVE SMOOTH",
"231 641 OFFCURVE",
"274 600 OFFCURVE",
"339 600 CURVE SMOOTH",
"404 600 OFFCURVE",
"449 643 OFFCURVE",
"449 706 CURVE SMOOTH"
);
},
{
closed = 1;
nodes = (
"369 653 OFFCURVE",
"356 648 OFFCURVE",
"339 648 CURVE SMOOTH",
"303 648 OFFCURVE",
"282 670 OFFCURVE",
"282 705 CURVE SMOOTH",
"282 738 OFFCURVE",
"306 762 OFFCURVE",
"339 762 CURVE SMOOTH",
"372 762 OFFCURVE",
"396 738 OFFCURVE",
"396 705 CURVE SMOOTH",
"396 688 OFFCURVE",
"391 675 OFFCURVE",
"380 664 CURVE SMOOTH"
);
}
);
width = 680;
}
);
note = ring;
unicode = 02DA;
},
{
glyphname = ogonek;
lastChange = "2017-11-01 11:12:47 +0000";
layers = (
{
layerId = "21C067DE-0135-4A31-BCA0-37E1E4C9B62B";
paths = (
{
closed = 1;
nodes = (
"319 -79 OFFCURVE",
"345 -37 OFFCURVE",
"396 0 CURVE",
"347 0 LINE",
"294 -35 OFFCURVE",
"257 -87 OFFCURVE",
"257 -140 CURVE SMOOTH",
"257 -199 OFFCURVE",
"298 -240 OFFCURVE",
"371 -240 CURVE SMOOTH",
"388 -240 OFFCURVE",
"405 -236 OFFCURVE",
"423 -229 CURVE",
"421 -176 LINE",
"405 -181 OFFCURVE",
"390 -184 OFFCURVE",
"375 -184 CURVE SMOOTH",
"340 -184 OFFCURVE",
"319 -161 OFFCURVE",
"319 -125 CURVE SMOOTH"
);
}
);
width = 680;
}
);
note = ogonek;
unicode = 02DB;
},
{
glyphname = tilde;
lastChange = "2017-11-01 11:12:47 +0000";
layers = (
{
layerId = "21C067DE-0135-4A31-BCA0-37E1E4C9B62B";
paths = (
{
closed = 1;
nodes = (
"464 636 OFFCURVE",
"497 675 OFFCURVE",
"504 739 CURVE",
"453 757 LINE",
"446 722 OFFCURVE",
"432 705 OFFCURVE",
"411 705 CURVE SMOOTH",
"401 705 OFFCURVE",
"380 713 OFFCURVE",
"349 728 CURVE SMOOTH",
"317 743 OFFCURVE",
"292 751 OFFCURVE",
"275 751 CURVE SMOOTH",
"222 751 OFFCURVE",
"182 711 OFFCURVE",
"175 646 CURVE",
"226 630 LINE",
"233 666 OFFCURVE",
"246 682 OFFCURVE",
"273 682 CURVE SMOOTH",
"284 682 OFFCURVE",
"306 674 OFFCURVE",
"339 659 CURVE SMOOTH",
"371 644 OFFCURVE",
"395 636 OFFCURVE",
"412 636 CURVE SMOOTH"
);
}
);
width = 680;
}
);
note = tilde;
unicode = 02DC;
},
{
glyphname = hungarumlaut;
lastChange = "2017-11-01 11:12:47 +0000";
layers = (
{
layerId = "21C067DE-0135-4A31-BCA0-37E1E4C9B62B";
paths = (
{
closed = 1;
nodes = (
"339 782 LINE",
"230 782 LINE",
"170 602 LINE",
"224 602 LINE"
);
},
{
closed = 1;
nodes = (
"509 782 LINE",
"400 782 LINE",
"340 602 LINE",
"394 602 LINE"
);
}
);
width = 680;
}
);
note = hungarumlaut;
unicode = 02DD;
},
{
glyphname = dotbelow;
lastChange = "2017-11-01 11:12:47 +0000";
layers = (
{
layerId = "21C067DE-0135-4A31-BCA0-37E1E4C9B62B";
paths = (
{
closed = 1;
nodes = (
"314 -185 OFFCURVE",
"326 -190 OFFCURVE",
"341 -190 CURVE SMOOTH",
"369 -190 OFFCURVE",
"390 -171 OFFCURVE",
"390 -139 CURVE SMOOTH",
"390 -107 OFFCURVE",
"369 -88 OFFCURVE",
"341 -88 CURVE SMOOTH",
"313 -88 OFFCURVE",
"290 -107 OFFCURVE",
"290 -139 CURVE SMOOTH",
"290 -155 OFFCURVE",
"295 -167 OFFCURVE",
"305 -176 CURVE"
);
}
);
width = 680;
}
);
note = dotbelow;
unicode = 0323;
},
{
glyphname = uni0394;
lastChange = "2017-11-01 11:12:47 +0000";
layers = (
{
layerId = "21C067DE-0135-4A31-BCA0-37E1E4C9B62B";
paths = (
{
closed = 1;
nodes = (
"300 714 LINE",
"43 0 LINE",
"637 0 LINE",
"381 714 LINE"
);
},
{
closed = 1;
nodes = (
"339 623 LINE",
"406 422 LINE",
"525 73 LINE",
"152 73 LINE",
"278 437 LINE"
);
}
);
width = 680;
}
);
note = uni0394;
unicode = 0394;
},
{
glyphname = uni03A9;
lastChange = "2017-11-01 11:12:47 +0000";
layers = (
{
layerId = "21C067DE-0135-4A31-BCA0-37E1E4C9B62B";
paths = (
{
closed = 1;
nodes = (
"84 567 OFFCURVE",
"58 485 OFFCURVE",
"58 384 CURVE SMOOTH",
"58 245 OFFCURVE",
"122 135 OFFCURVE",
"211 68 CURVE",
"108 74 LINE",
"45 74 LINE",
"45 0 LINE",
"291 0 LINE",
"291 71 LINE",
"192 158 OFFCURVE",
"146 247 OFFCURVE",
"146 383 CURVE SMOOTH",
"146 554 OFFCURVE",
"223 648 OFFCURVE",
"340 648 CURVE SMOOTH",
"457 648 OFFCURVE",
"534 554 OFFCURVE",
"534 383 CURVE SMOOTH",
"534 247 OFFCURVE",
"488 158 OFFCURVE",
"389 71 CURVE",
"389 0 LINE",
"635 0 LINE",
"635 74 LINE",
"572 74 LINE",
"468 68 LINE",
"557 136 OFFCURVE",
"622 245 OFFCURVE",
"622 384 CURVE SMOOTH",
"622 585 OFFCURVE",
"507 724 OFFCURVE",
"340 724 CURVE SMOOTH",
"257 724 OFFCURVE",
"189 693 OFFCURVE",
"137 630 CURVE SMOOTH"
);
}
);
width = 680;
}
);
note = uni03A9;
unicode = 03A9;
},
{
glyphname = uni03BC;
lastChange = "2017-11-01 11:12:47 +0000";
layers = (
{
layerId = "21C067DE-0135-4A31-BCA0-37E1E4C9B62B";
paths = (
{
closed = 1;
nodes = (
"194 -220 LINE",
"194 -134 LINE",
"185 37 LINE",
"216 6 OFFCURVE",
"258 -10 OFFCURVE",
"313 -10 CURVE SMOOTH",
"384 -10 OFFCURVE",
"448 26 OFFCURVE",
"485 87 CURVE",
"485 0 LINE",
"568 0 LINE",
"568 552 LINE",
"484 552 LINE",
"484 304 LINE SMOOTH",
"484 160 OFFCURVE",
"442 66 OFFCURVE",
"326 66 CURVE SMOOTH",
"238 66 OFFCURVE",
"194 118 OFFCURVE",
"194 221 CURVE SMOOTH",
"194 552 LINE",
"111 552 LINE",
"111 -220 LINE"
);
}
);
width = 680;
}
);
note = uni03BC;
unicode = 03BC;
},
{
glyphname = pi;
lastChange = "2017-11-01 11:12:47 +0000";
layers = (
{
layerId = "21C067DE-0135-4A31-BCA0-37E1E4C9B62B";
paths = (
{
closed = 1;
nodes = (
"47 552 LINE",
"47 482 LINE",
"157 482 LINE",
"157 0 LINE",
"239 0 LINE",
"239 482 LINE",
"403 482 LINE",
"403 142 LINE SMOOTH",
"403 42 OFFCURVE",
"456 -10 OFFCURVE",
"552 -10 CURVE SMOOTH",
"573 -10 OFFCURVE",
"592 -7 OFFCURVE",
"611 0 CURVE",
"608 78 LINE",
"592 70 OFFCURVE",
"574 66 OFFCURVE",
"555 66 CURVE SMOOTH",
"508 66 OFFCURVE",
"485 92 OFFCURVE",
"485 144 CURVE SMOOTH",
"485 482 LINE",
"614 482 LINE",
"624 552 LINE"
);
}
);
width = 680;
}
);
note = pi;
unicode = 03C0;
},
{
glyphname = endash;
lastChange = "2017-11-01 11:12:47 +0000";
layers = (
{
layerId = "21C067DE-0135-4A31-BCA0-37E1E4C9B62B";
paths = (
{
closed = 1;
nodes = (
"570 391 LINE",
"110 391 LINE",
"110 323 LINE",
"570 323 LINE"
);
}
);
width = 680;
}
);
note = endash;
unicode = 2013;
},
{
glyphname = emdash;
lastChange = "2017-11-01 11:12:47 +0000";
layers = (
{
layerId = "21C067DE-0135-4A31-BCA0-37E1E4C9B62B";
paths = (
{
closed = 1;
nodes = (
"650 391 LINE",
"30 391 LINE",
"30 323 LINE",
"650 323 LINE"
);
}
);
width = 680;
}
);
note = emdash;
unicode = 2014;
},
{
glyphname = quoteleft;
lastChange = "2017-11-01 11:12:47 +0000";
layers = (
{
layerId = "21C067DE-0135-4A31-BCA0-37E1E4C9B62B";
paths = (
{
closed = 1;
nodes = (
"305 734 LINE",
"215 486 LINE",
"314 486 LINE",
"365 734 LINE"
);
}
);
width = 680;
}
);
note = quoteleft;
unicode = 2018;
},
{
glyphname = quoteright;
lastChange = "2017-11-01 11:12:47 +0000";
layers = (
{
layerId = "21C067DE-0135-4A31-BCA0-37E1E4C9B62B";
paths = (
{
closed = 1;
nodes = (
"315 466 LINE",
"405 714 LINE",
"306 714 LINE",
"255 466 LINE"
);
}
);
width = 680;
}
);
note = quoteright;
unicode = 2019;
},
{
glyphname = quotesinglbase;
lastChange = "2017-11-01 11:12:47 +0000";
layers = (
{
layerId = "21C067DE-0135-4A31-BCA0-37E1E4C9B62B";
paths = (
{
closed = 1;
nodes = (
"315 -138 LINE",
"405 118 LINE",
"306 118 LINE",
"255 -138 LINE"
);
}
);
width = 680;
}
);
note = quotesinglbase;
unicode = 201A;
},
{
glyphname = quotedblleft;
lastChange = "2017-11-01 11:12:47 +0000";
layers = (
{
layerId = "21C067DE-0135-4A31-BCA0-37E1E4C9B62B";
paths = (
{
closed = 1;
nodes = (
"435 714 LINE",
"345 466 LINE",
"444 466 LINE",
"495 714 LINE"
);
},
{
closed = 1;
nodes = (
"265 714 LINE",
"175 466 LINE",
"274 466 LINE",
"325 714 LINE"
);
}
);
width = 680;
}
);
note = quotedblleft;
unicode = 201C;
},
{
glyphname = quotedblright;
lastChange = "2017-11-01 11:12:47 +0000";
layers = (
{
layerId = "21C067DE-0135-4A31-BCA0-37E1E4C9B62B";
paths = (
{
closed = 1;
nodes = (
"245 466 LINE",
"335 714 LINE",
"236 714 LINE",
"185 466 LINE"
);
},
{
closed = 1;
nodes = (
"415 466 LINE",
"505 714 LINE",
"406 714 LINE",
"355 466 LINE"
);
}
);
width = 680;
}
);
note = quotedblright;
unicode = 201D;
},
{
glyphname = quotedblbase;
lastChange = "2017-11-01 11:12:47 +0000";
layers = (
{
layerId = "21C067DE-0135-4A31-BCA0-37E1E4C9B62B";
paths = (
{
closed = 1;
nodes = (
"237 -138 LINE",
"327 118 LINE",
"228 118 LINE",
"177 -138 LINE"
);
},
{
closed = 1;
nodes = (
"407 -138 LINE",
"497 118 LINE",
"398 118 LINE",
"347 -138 LINE"
);
}
);
width = 680;
}
);
note = quotedblbase;
unicode = 201E;
},
{
glyphname = dagger;
lastChange = "2017-11-01 11:12:47 +0000";
layers = (
{
layerId = "21C067DE-0135-4A31-BCA0-37E1E4C9B62B";
paths = (
{
closed = 1;
nodes = (
"306 -220 LINE",
"374 -220 LINE",
"374 484 LINE",
"591 484 LINE",
"591 552 LINE",
"374 552 LINE",
"374 742 LINE",
"306 742 LINE",
"306 552 LINE",
"89 552 LINE",
"89 484 LINE",
"306 484 LINE"
);
}
);
width = 680;
}
);
note = dagger;
unicode = 2020;
},
{
glyphname = daggerdbl;
lastChange = "2017-11-01 11:12:47 +0000";
layers = (
{
layerId = "21C067DE-0135-4A31-BCA0-37E1E4C9B62B";
paths = (
{
closed = 1;
nodes = (
"306 68 LINE",
"89 68 LINE",
"89 0 LINE",
"306 0 LINE",
"306 -220 LINE",
"374 -220 LINE",
"374 0 LINE",
"591 0 LINE",
"591 68 LINE",
"374 68 LINE",
"374 484 LINE",
"591 484 LINE",
"591 552 LINE",
"374 552 LINE",
"374 742 LINE",
"306 742 LINE",
"306 552 LINE",
"89 552 LINE",
"89 484 LINE",
"306 484 LINE"
);
}
);
width = 680;
}
);
note = daggerdbl;
unicode = 2021;
},
{
glyphname = bullet;
lastChange = "2017-11-01 11:12:47 +0000";
layers = (
{
layerId = "21C067DE-0135-4A31-BCA0-37E1E4C9B62B";
paths = (
{
closed = 1;
nodes = (
"252 202 OFFCURVE",
"293 185 OFFCURVE",
"340 185 CURVE SMOOTH",
"435 185 OFFCURVE",
"512 262 OFFCURVE",
"512 357 CURVE SMOOTH",
"512 452 OFFCURVE",
"435 529 OFFCURVE",
"340 529 CURVE SMOOTH",
"245 529 OFFCURVE",
"168 452 OFFCURVE",
"168 357 CURVE SMOOTH",
"168 310 OFFCURVE",
"185 269 OFFCURVE",
"219 236 CURVE SMOOTH"
);
}
);
width = 680;
}
);
note = bullet;
unicode = 2022;
},
{
glyphname = ellipsis;
lastChange = "2017-11-01 11:12:47 +0000";
layers = (
{
layerId = "21C067DE-0135-4A31-BCA0-37E1E4C9B62B";
paths = (
{
closed = 1;
nodes = (
"62 14 OFFCURVE",
"89 -10 OFFCURVE",
"121 -10 CURVE SMOOTH",
"152 -10 OFFCURVE",
"178 14 OFFCURVE",
"178 49 CURVE SMOOTH",
"178 85 OFFCURVE",
"152 108 OFFCURVE",
"121 108 CURVE SMOOTH",
"89 108 OFFCURVE",
"62 85 OFFCURVE",
"62 49 CURVE SMOOTH"
);
},
{
closed = 1;
nodes = (
"282 14 OFFCURVE",
"309 -10 OFFCURVE",
"341 -10 CURVE SMOOTH",
"372 -10 OFFCURVE",
"398 14 OFFCURVE",
"398 49 CURVE SMOOTH",
"398 85 OFFCURVE",
"372 108 OFFCURVE",
"341 108 CURVE SMOOTH",
"309 108 OFFCURVE",
"282 85 OFFCURVE",
"282 49 CURVE SMOOTH"
);
},
{
closed = 1;
nodes = (
"502 14 OFFCURVE",
"529 -10 OFFCURVE",
"561 -10 CURVE SMOOTH",
"592 -10 OFFCURVE",
"618 14 OFFCURVE",
"618 49 CURVE SMOOTH",
"618 85 OFFCURVE",
"592 108 OFFCURVE",
"561 108 CURVE SMOOTH",
"529 108 OFFCURVE",
"502 85 OFFCURVE",
"502 49 CURVE SMOOTH"
);
}
);
width = 680;
}
);
note = ellipsis;
unicode = 2026;
},
{
glyphname = perthousand;
lastChange = "2017-11-01 11:12:47 +0000";
layers = (
{
layerId = "21C067DE-0135-4A31-BCA0-37E1E4C9B62B";
paths = (
{
closed = 1;
nodes = (
"589 485 LINE",
"49 360 LINE",
"60 295 LINE",
"603 420 LINE"
);
},
{
closed = 1;
nodes = (
"117 631 OFFCURVE",
"144 661 OFFCURVE",
"189 661 CURVE SMOOTH",
"234 661 OFFCURVE",
"264 630 OFFCURVE",
"264 579 CURVE SMOOTH",
"264 528 OFFCURVE",
"234 496 OFFCURVE",
"189 496 CURVE SMOOTH",
"144 496 OFFCURVE",
"117 528 OFFCURVE",
"117 579 CURVE SMOOTH"
);
},
{
closed = 1;
nodes = (
"331 666 OFFCURVE",
"274 724 OFFCURVE",
"189 724 CURVE SMOOTH",
"102 724 OFFCURVE",
"50 671 OFFCURVE",
"50 579 CURVE SMOOTH",
"50 491 OFFCURVE",
"108 432 OFFCURVE",
"189 432 CURVE SMOOTH",
"274 432 OFFCURVE",
"331 488 OFFCURVE",
"331 579 CURVE SMOOTH"
);
},
{
closed = 1;
nodes = (
"117 189 OFFCURVE",
"144 219 OFFCURVE",
"189 219 CURVE SMOOTH",
"234 219 OFFCURVE",
"264 188 OFFCURVE",
"264 137 CURVE SMOOTH",
"264 86 OFFCURVE",
"234 54 OFFCURVE",
"189 54 CURVE SMOOTH",
"144 54 OFFCURVE",
"117 86 OFFCURVE",
"117 137 CURVE SMOOTH"
);
},
{
closed = 1;
nodes = (
"331 224 OFFCURVE",
"274 282 OFFCURVE",
"189 282 CURVE SMOOTH",
"102 282 OFFCURVE",
"50 229 OFFCURVE",
"50 137 CURVE SMOOTH",
"50 49 OFFCURVE",
"108 -10 OFFCURVE",
"189 -10 CURVE SMOOTH",
"274 -10 OFFCURVE",
"331 46 OFFCURVE",
"331 137 CURVE SMOOTH"
);
},
{
closed = 1;
nodes = (
"426 189 OFFCURVE",
"453 219 OFFCURVE",
"498 219 CURVE SMOOTH",
"543 219 OFFCURVE",
"573 188 OFFCURVE",
"573 137 CURVE SMOOTH",
"573 86 OFFCURVE",
"543 54 OFFCURVE",
"498 54 CURVE SMOOTH",
"453 54 OFFCURVE",
"426 86 OFFCURVE",
"426 137 CURVE SMOOTH"
);
},
{
closed = 1;
nodes = (
"640 224 OFFCURVE",
"583 282 OFFCURVE",
"498 282 CURVE SMOOTH",
"411 282 OFFCURVE",
"359 229 OFFCURVE",
"359 137 CURVE SMOOTH",
"359 49 OFFCURVE",
"417 -10 OFFCURVE",
"498 -10 CURVE SMOOTH",
"583 -10 OFFCURVE",
"640 46 OFFCURVE",
"640 137 CURVE SMOOTH"
);
}
);
width = 680;
}
);
note = perthousand;
unicode = 2030;
},
{
glyphname = guilsinglleft;
lastChange = "2017-11-01 11:12:47 +0000";
layers = (
{
layerId = "21C067DE-0135-4A31-BCA0-37E1E4C9B62B";
paths = (
{
closed = 1;
nodes = (
"471 50 LINE",
"286 268 LINE",
"471 486 LINE",
"382 486 LINE",
"199 268 LINE",
"382 50 LINE"
);
}
);
width = 680;
}
);
note = guilsinglleft;
unicode = 2039;
},
{
glyphname = guilsinglright;
lastChange = "2017-11-01 11:12:47 +0000";
layers = (
{
layerId = "21C067DE-0135-4A31-BCA0-37E1E4C9B62B";
paths = (
{
closed = 1;
nodes = (
"394 268 LINE",
"209 50 LINE",
"298 50 LINE",
"481 268 LINE",
"298 486 LINE",
"209 486 LINE"
);
}
);
width = 680;
}
);
note = guilsinglright;
unicode = 203A;
},
{
glyphname = fraction;
lastChange = "2017-11-01 11:12:47 +0000";
layers = (
{
layerId = "21C067DE-0135-4A31-BCA0-37E1E4C9B62B";
paths = (
{
closed = 1;
nodes = (
"590 388 LINE",
"90 388 LINE",
"90 326 LINE",
"590 326 LINE"
);
}
);
width = 680;
}
);
note = fraction;
unicode = 2044;
},
{
glyphname = zerosuperior;
lastChange = "2017-11-01 11:12:47 +0000";
layers = (
{
layerId = "21C067DE-0135-4A31-BCA0-37E1E4C9B62B";
paths = (
{
closed = 1;
nodes = (
"426 729 OFFCURVE",
"388 748 OFFCURVE",
"340 748 CURVE SMOOTH",
"243 748 OFFCURVE",
"186 671 OFFCURVE",
"186 519 CURVE SMOOTH",
"186 367 OFFCURVE",
"243 288 OFFCURVE",
"340 288 CURVE SMOOTH",
"436 288 OFFCURVE",
"493 367 OFFCURVE",
"493 519 CURVE SMOOTH",
"493 595 OFFCURVE",
"480 652 OFFCURVE",
"453 691 CURVE SMOOTH"
);
},
{
closed = 1;
nodes = (
"422 409 OFFCURVE",
"395 354 OFFCURVE",
"340 354 CURVE SMOOTH",
"285 354 OFFCURVE",
"258 409 OFFCURVE",
"258 519 CURVE SMOOTH",
"258 628 OFFCURVE",
"285 683 OFFCURVE",
"340 683 CURVE SMOOTH",
"395 683 OFFCURVE",
"422 628 OFFCURVE",
"422 519 CURVE SMOOTH"
);
}
);
width = 680;
}
);
note = zerosuperior;
unicode = 2070;
},
{
glyphname = foursuperior;
lastChange = "2017-11-01 11:12:47 +0000";
layers = (
{
layerId = "21C067DE-0135-4A31-BCA0-37E1E4C9B62B";
paths = (
{
closed = 1;
nodes = (
"448 742 LINE",
"377 742 LINE",
"171 448 LINE",
"171 390 LINE",
"379 390 LINE",
"379 294 LINE",
"448 294 LINE",
"448 390 LINE",
"509 390 LINE",
"509 457 LINE",
"448 457 LINE"
);
},
{
closed = 1;
nodes = (
"379 651 LINE",
"379 457 LINE",
"250 457 LINE",
"315 551 LINE"
);
}
);
width = 680;
}
);
note = foursuperior;
unicode = 2074;
},
{
glyphname = fivesuperior;
lastChange = "2017-11-01 11:12:47 +0000";
layers = (
{
layerId = "21C067DE-0135-4A31-BCA0-37E1E4C9B62B";
paths = (
{
closed = 1;
nodes = (
"231 300 OFFCURVE",
"276 288 OFFCURVE",
"326 288 CURVE SMOOTH",
"426 288 OFFCURVE",
"489 353 OFFCURVE",
"489 441 CURVE SMOOTH",
"489 525 OFFCURVE",
"425 583 OFFCURVE",
"330 583 CURVE SMOOTH",
"309 583 OFFCURVE",
"291 582 OFFCURVE",
"276 579 CURVE",
"285 678 LINE",
"446 678 LINE",
"460 742 LINE",
"225 742 LINE",
"206 503 LINE",
"247 518 OFFCURVE",
"285 526 OFFCURVE",
"320 526 CURVE SMOOTH",
"380 526 OFFCURVE",
"418 493 OFFCURVE",
"418 442 CURVE SMOOTH",
"418 387 OFFCURVE",
"385 354 OFFCURVE",
"326 354 CURVE SMOOTH",
"281 354 OFFCURVE",
"240 368 OFFCURVE",
"203 396 CURVE",
"190 325 LINE"
);
}
);
width = 680;
}
);
note = fivesuperior;
unicode = 2075;
},
{
glyphname = sixsuperior;
lastChange = "2017-11-01 11:12:47 +0000";
layers = (
{
layerId = "21C067DE-0135-4A31-BCA0-37E1E4C9B62B";
paths = (
{
closed = 1;
nodes = (
"442 741 OFFCURVE",
"408 748 OFFCURVE",
"371 748 CURVE SMOOTH",
"258 748 OFFCURVE",
"188 656 OFFCURVE",
"188 485 CURVE SMOOTH",
"188 360 OFFCURVE",
"241 288 OFFCURVE",
"344 288 CURVE SMOOTH",
"428 288 OFFCURVE",
"491 353 OFFCURVE",
"491 437 CURVE SMOOTH",
"491 520 OFFCURVE",
"428 578 OFFCURVE",
"355 578 CURVE SMOOTH",
"315 578 OFFCURVE",
"283 562 OFFCURVE",
"259 531 CURVE",
"263 626 OFFCURVE",
"307 683 OFFCURVE",
"371 683 CURVE SMOOTH",
"400 683 OFFCURVE",
"431 674 OFFCURVE",
"464 655 CURVE",
"473 726 LINE"
);
},
{
closed = 1;
nodes = (
"260 485 OFFCURVE",
"294 518 OFFCURVE",
"342 518 CURVE SMOOTH",
"389 518 OFFCURVE",
"421 483 OFFCURVE",
"421 438 CURVE SMOOTH",
"421 390 OFFCURVE",
"391 354 OFFCURVE",
"343 354 CURVE SMOOTH",
"292 354 OFFCURVE",
"260 391 OFFCURVE",
"260 440 CURVE SMOOTH"
);
}
);
width = 680;
}
);
note = sixsuperior;
unicode = 2076;
},
{
glyphname = sevensuperior;
lastChange = "2017-11-01 11:12:47 +0000";
layers = (
{
layerId = "21C067DE-0135-4A31-BCA0-37E1E4C9B62B";
paths = (
{
closed = 1;
nodes = (
"492 742 LINE",
"187 742 LINE",
"187 678 LINE",
"422 678 LINE",
"350 528 LINE",
"231 294 LINE",
"313 294 LINE",
"492 691 LINE"
);
}
);
width = 680;
}
);
note = sevensuperior;
unicode = 2077;
},
{
glyphname = eightsuperior;
lastChange = "2017-11-01 11:12:47 +0000";
layers = (
{
layerId = "21C067DE-0135-4A31-BCA0-37E1E4C9B62B";
paths = (
{
closed = 1;
nodes = (
"190 340 OFFCURVE",
"249 288 OFFCURVE",
"341 288 CURVE SMOOTH",
"430 288 OFFCURVE",
"490 343 OFFCURVE",
"490 415 CURVE SMOOTH",
"490 465 OFFCURVE",
"460 505 OFFCURVE",
"401 535 CURVE",
"450 554 OFFCURVE",
"475 586 OFFCURVE",
"475 631 CURVE SMOOTH",
"475 700 OFFCURVE",
"417 748 OFFCURVE",
"338 748 CURVE SMOOTH",
"263 748 OFFCURVE",
"204 696 OFFCURVE",
"204 628 CURVE SMOOTH",
"204 586 OFFCURVE",
"226 552 OFFCURVE",
"271 525 CURVE",
"217 500 OFFCURVE",
"190 462 OFFCURVE",
"190 411 CURVE SMOOTH"
);
},
{
closed = 1;
nodes = (
"401 463 OFFCURVE",
"420 441 OFFCURVE",
"420 416 CURVE SMOOTH",
"420 380 OFFCURVE",
"388 354 OFFCURVE",
"341 354 CURVE SMOOTH",
"293 354 OFFCURVE",
"259 381 OFFCURVE",
"259 418 CURVE SMOOTH",
"259 453 OFFCURVE",
"280 480 OFFCURVE",
"322 499 CURVE",
"363 482 LINE"
);
},
{
closed = 1;
nodes = (
"272 659 OFFCURVE",
"299 683 OFFCURVE",
"338 683 CURVE SMOOTH",
"377 683 OFFCURVE",
"406 660 OFFCURVE",
"406 628 CURVE SMOOTH",
"406 598 OFFCURVE",
"387 575 OFFCURVE",
"350 559 CURVE",
"321 572 LINE SMOOTH",
"288 586 OFFCURVE",
"272 605 OFFCURVE",
"272 628 CURVE SMOOTH"
);
}
);
width = 680;
}
);
note = eightsuperior;
unicode = 2078;
},
{
glyphname = ninesuperior;
lastChange = "2017-11-01 11:12:47 +0000";
layers = (
{
layerId = "21C067DE-0135-4A31-BCA0-37E1E4C9B62B";
paths = (
{
closed = 1;
nodes = (
"237 295 OFFCURVE",
"271 288 OFFCURVE",
"308 288 CURVE SMOOTH",
"424 288 OFFCURVE",
"491 376 OFFCURVE",
"491 551 CURVE SMOOTH",
"491 676 OFFCURVE",
"438 748 OFFCURVE",
"335 748 CURVE SMOOTH",
"251 748 OFFCURVE",
"188 683 OFFCURVE",
"188 599 CURVE SMOOTH",
"188 516 OFFCURVE",
"251 458 OFFCURVE",
"324 458 CURVE SMOOTH",
"364 458 OFFCURVE",
"396 474 OFFCURVE",
"420 505 CURVE",
"416 406 OFFCURVE",
"375 353 OFFCURVE",
"308 353 CURVE SMOOTH",
"279 353 OFFCURVE",
"248 362 OFFCURVE",
"215 381 CURVE",
"206 310 LINE"
);
},
{
closed = 1;
nodes = (
"419 551 OFFCURVE",
"385 518 OFFCURVE",
"337 518 CURVE SMOOTH",
"290 518 OFFCURVE",
"258 553 OFFCURVE",
"258 598 CURVE SMOOTH",
"258 646 OFFCURVE",
"288 682 OFFCURVE",
"336 682 CURVE SMOOTH",
"387 682 OFFCURVE",
"419 645 OFFCURVE",
"419 596 CURVE SMOOTH"
);
}
);
width = 680;
}
);
note = ninesuperior;
unicode = 2079;
},
{
glyphname = parenleftsuperior;
lastChange = "2017-11-01 11:12:47 +0000";
layers = (
{
layerId = "21C067DE-0135-4A31-BCA0-37E1E4C9B62B";
paths = (
{
closed = 1;
nodes = (
"297 352 OFFCURVE",
"322 314 OFFCURVE",
"355 277 CURVE",
"426 277 LINE",
"358 360 OFFCURVE",
"325 430 OFFCURVE",
"325 518 CURVE SMOOTH",
"325 607 OFFCURVE",
"358 676 OFFCURVE",
"426 759 CURVE",
"355 759 LINE",
"290 684 OFFCURVE",
"253 615 OFFCURVE",
"253 518 CURVE SMOOTH",
"253 469 OFFCURVE",
"262 426 OFFCURVE",
"280 389 CURVE SMOOTH"
);
}
);
width = 680;
}
);
note = parenleftsuperior;
unicode = 207D;
},
{
glyphname = parenrightsuperior;
lastChange = "2017-11-01 11:12:47 +0000";
layers = (
{
layerId = "21C067DE-0135-4A31-BCA0-37E1E4C9B62B";
paths = (
{
closed = 1;
nodes = (
"382 684 OFFCURVE",
"356 721 OFFCURVE",
"323 759 CURVE",
"253 759 LINE",
"321 676 OFFCURVE",
"353 607 OFFCURVE",
"353 518 CURVE SMOOTH",
"353 430 OFFCURVE",
"321 362 OFFCURVE",
"253 277 CURVE",
"323 277 LINE",
"390 353 OFFCURVE",
"426 419 OFFCURVE",
"426 518 CURVE SMOOTH",
"426 567 OFFCURVE",
"417 610 OFFCURVE",
"400 647 CURVE SMOOTH"
);
}
);
width = 680;
}
);
note = parenrightsuperior;
unicode = 207E;
},
{
glyphname = Euro;
lastChange = "2017-11-01 11:12:47 +0000";
layers = (
{
layerId = "21C067DE-0135-4A31-BCA0-37E1E4C9B62B";
paths = (
{
closed = 1;
nodes = (
"180 391 OFFCURVE",
"180 376 OFFCURVE",
"180 356 CURVE SMOOTH",
"180 344 OFFCURVE",
"181 328 OFFCURVE",
"182 308 CURVE",
"61 308 LINE",
"61 240 LINE",
"193 240 LINE",
"233 83 OFFCURVE",
"356 -10 OFFCURVE",
"515 -10 CURVE SMOOTH",
"580 -10 OFFCURVE",
"639 2 OFFCURVE",
"691 25 CURVE",
"681 109 LINE",
"626 80 OFFCURVE",
"570 66 OFFCURVE",
"515 66 CURVE SMOOTH",
"407 66 OFFCURVE",
"319 128 OFFCURVE",
"284 240 CURVE",
"494 240 LINE",
"524 308 LINE",
"270 308 LINE",
"269 327 OFFCURVE",
"268 342 OFFCURVE",
"268 354 CURVE SMOOTH",
"268 375 OFFCURVE",
"269 391 OFFCURVE",
"270 401 CURVE",
"564 401 LINE",
"594 469 LINE",
"281 469 LINE",
"312 586 OFFCURVE",
"397 648 OFFCURVE",
"509 648 CURVE SMOOTH",
"558 648 OFFCURVE",
"605 638 OFFCURVE",
"651 617 CURVE",
"681 692 LINE",
"634 713 OFFCURVE",
"576 724 OFFCURVE",
"509 724 CURVE SMOOTH",
"346 724 OFFCURVE",
"228 629 OFFCURVE",
"192 469 CURVE",
"61 469 LINE",
"61 401 LINE",
"181 401 LINE"
);
}
);
width = 751;
}
);
note = Euro;
unicode = 20AC;
},
{
glyphname = trademark;
lastChange = "2017-11-01 11:12:47 +0000";
layers = (
{
layerId = "21C067DE-0135-4A31-BCA0-37E1E4C9B62B";
paths = (
{
closed = 1;
nodes = (
"605 425 LINE",
"605 333 LINE",
"670 333 LINE",
"670 714 LINE",
"603 714 LINE",
"496 520 LINE",
"391 714 LINE",
"324 714 LINE",
"324 333 LINE",
"386 333 LINE",
"386 422 LINE",
"384 602 LINE",
"470 433 LINE",
"520 433 LINE",
"607 600 LINE"
);
},
{
closed = 1;
nodes = (
"273 714 LINE",
"11 714 LINE",
"11 653 LINE",
"109 653 LINE",
"109 333 LINE",
"175 333 LINE",
"175 653 LINE",
"273 653 LINE"
);
}
);
width = 680;
}
);
note = trademark;
unicode = 2122;
},
{
glyphname = Omega;
lastChange = "2017-11-01 11:12:47 +0000";
layers = (
{
layerId = "21C067DE-0135-4A31-BCA0-37E1E4C9B62B";
paths = (
{
closed = 1;
nodes = (
"84 567 OFFCURVE",
"58 485 OFFCURVE",
"58 384 CURVE SMOOTH",
"58 245 OFFCURVE",
"122 135 OFFCURVE",
"211 68 CURVE",
"108 74 LINE",
"45 74 LINE",
"45 0 LINE",
"291 0 LINE",
"291 71 LINE",
"192 158 OFFCURVE",
"146 247 OFFCURVE",
"146 383 CURVE SMOOTH",
"146 554 OFFCURVE",
"223 648 OFFCURVE",
"340 648 CURVE SMOOTH",
"457 648 OFFCURVE",
"534 554 OFFCURVE",
"534 383 CURVE SMOOTH",
"534 247 OFFCURVE",
"488 158 OFFCURVE",
"389 71 CURVE",
"389 0 LINE",
"635 0 LINE",
"635 74 LINE",
"572 74 LINE",
"468 68 LINE",
"557 136 OFFCURVE",
"622 245 OFFCURVE",
"622 384 CURVE SMOOTH",
"622 585 OFFCURVE",
"507 724 OFFCURVE",
"340 724 CURVE SMOOTH",
"257 724 OFFCURVE",
"189 693 OFFCURVE",
"137 630 CURVE SMOOTH"
);
}
);
width = 680;
}
);
note = Omega;
unicode = 2126;
},
{
glyphname = onethird;
lastChange = "2017-11-01 11:12:47 +0000";
layers = (
{
layerId = "21C067DE-0135-4A31-BCA0-37E1E4C9B62B";
paths = (
{
closed = 1;
nodes = (
"199 832 LINE",
"238 779 LINE",
"273 805 LINE",
"331 857 LINE",
"331 494 LINE",
"400 494 LINE",
"400 942 LINE",
"342 942 LINE"
);
},
{
closed = 1;
nodes = (
"590 388 LINE",
"90 388 LINE",
"90 326 LINE",
"590 326 LINE"
);
},
{
closed = 1;
nodes = (
"233 -211 OFFCURVE",
"280 -226 OFFCURVE",
"331 -226 CURVE SMOOTH",
"427 -226 OFFCURVE",
"489 -173 OFFCURVE",
"489 -92 CURVE SMOOTH",
"489 -37 OFFCURVE",
"451 8 OFFCURVE",
"394 17 CURVE",
"449 36 OFFCURVE",
"476 68 OFFCURVE",
"476 111 CURVE SMOOTH",
"476 182 OFFCURVE",
"414 234 OFFCURVE",
"333 234 CURVE SMOOTH",
"288 234 OFFCURVE",
"246 221 OFFCURVE",
"205 195 CURVE",
"216 125 LINE",
"257 154 OFFCURVE",
"296 168 OFFCURVE",
"333 168 CURVE SMOOTH",
"377 168 OFFCURVE",
"404 142 OFFCURVE",
"404 109 CURVE SMOOTH",
"404 70 OFFCURVE",
"372 43 OFFCURVE",
"307 43 CURVE SMOOTH",
"253 43 LINE",
"253 -14 LINE",
"310 -14 LINE SMOOTH",
"382 -14 OFFCURVE",
"417 -46 OFFCURVE",
"417 -90 CURVE SMOOTH",
"417 -131 OFFCURVE",
"386 -160 OFFCURVE",
"331 -160 CURVE SMOOTH",
"290 -160 OFFCURVE",
"249 -143 OFFCURVE",
"210 -110 CURVE",
"190 -181 LINE"
);
}
);
width = 680;
}
);
note = onethird;
unicode = 2153;
},
{
glyphname = twothirds;
lastChange = "2017-11-01 11:12:47 +0000";
layers = (
{
layerId = "21C067DE-0135-4A31-BCA0-37E1E4C9B62B";
paths = (
{
closed = 1;
nodes = (
"251 868 OFFCURVE",
"289 882 OFFCURVE",
"326 882 CURVE SMOOTH",
"371 882 OFFCURVE",
"402 856 OFFCURVE",
"402 815 CURVE SMOOTH",
"402 795 OFFCURVE",
"396 775 OFFCURVE",
"383 756 CURVE SMOOTH",
"370 736 OFFCURVE",
"344 706 OFFCURVE",
"304 666 CURVE SMOOTH",
"189 550 LINE",
"189 494 LINE",
"490 494 LINE",
"490 558 LINE",
"283 558 LINE",
"359 631 LINE SMOOTH",
"450 718 OFFCURVE",
"474 755 OFFCURVE",
"474 814 CURVE SMOOTH",
"474 895 OFFCURVE",
"415 948 OFFCURVE",
"327 948 CURVE SMOOTH",
"281 948 OFFCURVE",
"239 936 OFFCURVE",
"201 911 CURVE",
"211 841 LINE"
);
},
{
closed = 1;
nodes = (
"590 388 LINE",
"90 388 LINE",
"90 326 LINE",
"590 326 LINE"
);
},
{
closed = 1;
nodes = (
"233 -211 OFFCURVE",
"280 -226 OFFCURVE",
"331 -226 CURVE SMOOTH",
"427 -226 OFFCURVE",
"489 -173 OFFCURVE",
"489 -92 CURVE SMOOTH",
"489 -37 OFFCURVE",
"451 8 OFFCURVE",
"394 17 CURVE",
"449 36 OFFCURVE",
"476 68 OFFCURVE",
"476 111 CURVE SMOOTH",
"476 182 OFFCURVE",
"414 234 OFFCURVE",
"333 234 CURVE SMOOTH",
"288 234 OFFCURVE",
"246 221 OFFCURVE",
"205 195 CURVE",
"216 125 LINE",
"257 154 OFFCURVE",
"296 168 OFFCURVE",
"333 168 CURVE SMOOTH",
"377 168 OFFCURVE",
"404 142 OFFCURVE",
"404 109 CURVE SMOOTH",
"404 70 OFFCURVE",
"372 43 OFFCURVE",
"307 43 CURVE SMOOTH",
"253 43 LINE",
"253 -14 LINE",
"310 -14 LINE SMOOTH",
"382 -14 OFFCURVE",
"417 -46 OFFCURVE",
"417 -90 CURVE SMOOTH",
"417 -131 OFFCURVE",
"386 -160 OFFCURVE",
"331 -160 CURVE SMOOTH",
"290 -160 OFFCURVE",
"249 -143 OFFCURVE",
"210 -110 CURVE",
"190 -181 LINE"
);
}
);
width = 680;
}
);
note = twothirds;
unicode = 2154;
},
{
glyphname = arrowleft;
lastChange = "2017-11-01 11:12:47 +0000";
layers = (
{
layerId = "21C067DE-0135-4A31-BCA0-37E1E4C9B62B";
paths = (
{
closed = 1;
nodes = (
"328 85 LINE",
"328 170 LINE",
"138 328 LINE",
"386 323 LINE",
"650 323 LINE",
"650 391 LINE",
"386 391 LINE",
"138 386 LINE",
"328 544 LINE",
"328 629 LINE",
"30 379 LINE",
"30 336 LINE"
);
}
);
width = 680;
}
);
note = arrowleft;
unicode = 2190;
},
{
glyphname = arrowright;
lastChange = "2017-11-01 11:12:47 +0000";
layers = (
{
layerId = "21C067DE-0135-4A31-BCA0-37E1E4C9B62B";
paths = (
{
closed = 1;
nodes = (
"542 386 LINE",
"294 391 LINE",
"30 391 LINE",
"30 323 LINE",
"294 323 LINE",
"542 328 LINE",
"352 170 LINE",
"352 85 LINE",
"650 336 LINE",
"650 379 LINE",
"352 629 LINE",
"352 544 LINE"
);
}
);
width = 680;
}
);
note = arrowright;
unicode = 2192;
},
{
glyphname = arrowboth;
lastChange = "2017-11-01 11:12:47 +0000";
layers = (
{
layerId = "21C067DE-0135-4A31-BCA0-37E1E4C9B62B";
paths = (
{
closed = 1;
nodes = (
"1162 386 LINE",
"914 391 LINE",
"386 391 LINE",
"138 386 LINE",
"328 544 LINE",
"328 629 LINE",
"30 379 LINE",
"30 336 LINE",
"328 85 LINE",
"328 170 LINE",
"138 328 LINE",
"386 323 LINE",
"914 323 LINE",
"1162 328 LINE",
"972 170 LINE",
"972 85 LINE",
"1270 336 LINE",
"1270 379 LINE",
"972 629 LINE",
"972 544 LINE"
);
}
);
width = 1300;
}
);
note = arrowboth;
unicode = 2194;
},
{
glyphname = partialdiff;
lastChange = "2017-11-01 11:12:47 +0000";
layers = (
{
layerId = "21C067DE-0135-4A31-BCA0-37E1E4C9B62B";
paths = (
{
closed = 1;
nodes = (
"580 572 OFFCURVE",
"546 650 OFFCURVE",
"479 693 CURVE SMOOTH",
"446 714 OFFCURVE",
"406 724 OFFCURVE",
"361 724 CURVE SMOOTH",
"307 724 OFFCURVE",
"263 713 OFFCURVE",
"230 691 CURVE",
"237 612 LINE",
"276 637 OFFCURVE",
"316 649 OFFCURVE",
"359 649 CURVE SMOOTH",
"450 649 OFFCURVE",
"497 581 OFFCURVE",
"497 456 CURVE SMOOTH",
"497 452 OFFCURVE",
"497 446 OFFCURVE",
"496 437 CURVE SMOOTH",
"495 428 OFFCURVE",
"495 422 OFFCURVE",
"495 417 CURVE",
"465 474 OFFCURVE",
"418 503 OFFCURVE",
"354 503 CURVE SMOOTH",
"298 503 OFFCURVE",
"249 484 OFFCURVE",
"207 446 CURVE SMOOTH",
"142 387 OFFCURVE",
"99 293 OFFCURVE",
"99 196 CURVE SMOOTH",
"99 68 OFFCURVE",
"171 -10 OFFCURVE",
"278 -10 CURVE SMOOTH",
"439 -10 OFFCURVE",
"580 154 OFFCURVE",
"580 457 CURVE SMOOTH"
);
},
{
closed = 1;
nodes = (
"220 66 OFFCURVE",
"187 112 OFFCURVE",
"187 189 CURVE SMOOTH",
"187 312 OFFCURVE",
"265 429 OFFCURVE",
"365 429 CURVE SMOOTH",
"434 429 OFFCURVE",
"469 380 OFFCURVE",
"469 315 CURVE SMOOTH",
"469 280 OFFCURVE",
"462 246 OFFCURVE",
"448 213 CURVE SMOOTH",
"412 128 OFFCURVE",
"354 66 OFFCURVE",
"283 66 CURVE SMOOTH"
);
}
);
width = 680;
}
);
note = partialdiff;
unicode = 2202;
},
{
glyphname = Delta;
lastChange = "2017-11-01 11:12:47 +0000";
layers = (
{
layerId = "21C067DE-0135-4A31-BCA0-37E1E4C9B62B";
paths = (
{
closed = 1;
nodes = (
"300 714 LINE",
"43 0 LINE",
"637 0 LINE",
"381 714 LINE"
);
},
{
closed = 1;
nodes = (
"339 623 LINE",
"406 422 LINE",
"525 73 LINE",
"152 73 LINE",
"278 437 LINE"
);
}
);
width = 680;
}
);
note = Delta;
unicode = 2206;
},
{
glyphname = product;
lastChange = "2017-11-01 11:12:47 +0000";
layers = (
{
layerId = "21C067DE-0135-4A31-BCA0-37E1E4C9B62B";
paths = (
{
closed = 1;
nodes = (
"109 -220 LINE",
"192 -220 LINE",
"192 640 LINE",
"488 640 LINE",
"488 -220 LINE",
"571 -220 LINE",
"571 714 LINE",
"109 714 LINE"
);
}
);
width = 680;
}
);
note = product;
unicode = 220F;
},
{
glyphname = summation;
lastChange = "2017-11-01 11:12:47 +0000";
layers = (
{
layerId = "21C067DE-0135-4A31-BCA0-37E1E4C9B62B";
paths = (
{
closed = 1;
nodes = (
"585 640 LINE",
"585 714 LINE",
"97 714 LINE",
"97 649 LINE",
"361 271 LINE",
"84 -155 LINE",
"84 -220 LINE",
"615 -220 LINE",
"615 -146 LINE",
"185 -146 LINE",
"459 274 LINE",
"200 640 LINE"
);
}
);
width = 680;
}
);
note = summation;
unicode = 2211;
},
{
glyphname = minus;
lastChange = "2017-11-01 11:12:47 +0000";
layers = (
{
layerId = "21C067DE-0135-4A31-BCA0-37E1E4C9B62B";
paths = (
{
closed = 1;
nodes = (
"574 324 LINE",
"574 391 LINE",
"105 391 LINE",
"105 324 LINE"
);
}
);
width = 680;
}
);
note = minus;
unicode = 2212;
},
{
glyphname = radical;
lastChange = "2017-11-01 11:12:47 +0000";
layers = (
{
layerId = "21C067DE-0135-4A31-BCA0-37E1E4C9B62B";
paths = (
{
closed = 1;
nodes = (
"277 126 LINE",
"165 449 LINE",
"84 449 LINE",
"243 0 LINE",
"308 0 LINE",
"595 828 LINE",
"523 828 LINE"
);
}
);
width = 680;
}
);
note = radical;
unicode = 221A;
},
{
glyphname = infinity;
lastChange = "2017-11-01 11:12:47 +0000";
layers = (
{
layerId = "21C067DE-0135-4A31-BCA0-37E1E4C9B62B";
paths = (
{
closed = 1;
nodes = (
"634 435 OFFCURVE",
"572 504 OFFCURVE",
"489 504 CURVE SMOOTH",
"432 504 OFFCURVE",
"383 470 OFFCURVE",
"344 401 CURVE",
"304 471 OFFCURVE",
"253 506 OFFCURVE",
"192 506 CURVE SMOOTH",
"107 506 OFFCURVE",
"45 436 OFFCURVE",
"45 352 CURVE SMOOTH",
"45 264 OFFCURVE",
"108 198 OFFCURVE",
"192 198 CURVE SMOOTH",
"246 198 OFFCURVE",
"293 233 OFFCURVE",
"334 302 CURVE",
"374 231 OFFCURVE",
"426 196 OFFCURVE",
"489 196 CURVE SMOOTH",
"572 196 OFFCURVE",
"634 269 OFFCURVE",
"634 350 CURVE SMOOTH"
);
},
{
closed = 1;
nodes = (
"145 262 OFFCURVE",
"111 302 OFFCURVE",
"111 351 CURVE SMOOTH",
"111 402 OFFCURVE",
"146 443 OFFCURVE",
"195 443 CURVE SMOOTH",
"236 443 OFFCURVE",
"272 413 OFFCURVE",
"305 352 CURVE",
"270 292 OFFCURVE",
"233 262 OFFCURVE",
"196 262 CURVE SMOOTH"
);
},
{
closed = 1;
nodes = (
"534 441 OFFCURVE",
"567 399 OFFCURVE",
"567 350 CURVE SMOOTH",
"567 299 OFFCURVE",
"532 260 OFFCURVE",
"484 260 CURVE SMOOTH",
"443 260 OFFCURVE",
"406 290 OFFCURVE",
"373 350 CURVE",
"407 411 OFFCURVE",
"444 441 OFFCURVE",
"483 441 CURVE SMOOTH"
);
}
);
width = 680;
}
);
note = infinity;
unicode = 221E;
},
{
glyphname = integral;
lastChange = "2017-11-01 11:12:47 +0000";
layers = (
{
layerId = "21C067DE-0135-4A31-BCA0-37E1E4C9B62B";
paths = (
{
closed = 1;
nodes = (
"381 640 OFFCURVE",
"404 666 OFFCURVE",
"451 666 CURVE SMOOTH",
"468 666 OFFCURVE",
"486 664 OFFCURVE",
"507 659 CURVE",
"507 732 LINE",
"488 739 OFFCURVE",
"469 742 OFFCURVE",
"448 742 CURVE SMOOTH",
"352 742 OFFCURVE",
"299 690 OFFCURVE",
"299 590 CURVE SMOOTH",
"299 -67 LINE SMOOTH",
"299 -119 OFFCURVE",
"276 -145 OFFCURVE",
"229 -145 CURVE SMOOTH",
"212 -145 OFFCURVE",
"194 -143 OFFCURVE",
"173 -138 CURVE",
"173 -211 LINE",
"192 -218 OFFCURVE",
"211 -221 OFFCURVE",
"232 -221 CURVE SMOOTH",
"328 -221 OFFCURVE",
"381 -169 OFFCURVE",
"381 -69 CURVE SMOOTH",
"381 588 LINE SMOOTH"
);
}
);
width = 680;
}
);
note = integral;
unicode = 222B;
},
{
glyphname = approxequal;
lastChange = "2017-11-01 11:12:47 +0000";
layers = (
{
layerId = "21C067DE-0135-4A31-BCA0-37E1E4C9B62B";
paths = (
{
closed = 1;
nodes = (
"177 515 OFFCURVE",
"139 503 OFFCURVE",
"105 478 CURVE",
"105 398 LINE",
"139 431 OFFCURVE",
"177 448 OFFCURVE",
"220 448 CURVE SMOOTH",
"247 448 OFFCURVE",
"282 439 OFFCURVE",
"323 421 CURVE SMOOTH",
"373 400 OFFCURVE",
"418 389 OFFCURVE",
"459 389 CURVE SMOOTH",
"502 389 OFFCURVE",
"540 401 OFFCURVE",
"574 426 CURVE",
"574 506 LINE",
"540 473 OFFCURVE",
"502 456 OFFCURVE",
"459 456 CURVE SMOOTH",
"433 456 OFFCURVE",
"399 465 OFFCURVE",
"356 483 CURVE SMOOTH",
"303 504 OFFCURVE",
"258 515 OFFCURVE",
"220 515 CURVE SMOOTH"
);
},
{
closed = 1;
nodes = (
"177 317 OFFCURVE",
"139 305 OFFCURVE",
"105 280 CURVE",
"105 200 LINE",
"139 233 OFFCURVE",
"177 250 OFFCURVE",
"220 250 CURVE SMOOTH",
"247 250 OFFCURVE",
"282 241 OFFCURVE",
"323 223 CURVE SMOOTH",
"373 202 OFFCURVE",
"418 191 OFFCURVE",
"459 191 CURVE SMOOTH",
"502 191 OFFCURVE",
"540 203 OFFCURVE",
"574 228 CURVE",
"574 308 LINE",
"540 275 OFFCURVE",
"502 258 OFFCURVE",
"459 258 CURVE SMOOTH",
"433 258 OFFCURVE",
"399 267 OFFCURVE",
"356 285 CURVE SMOOTH",
"303 306 OFFCURVE",
"258 317 OFFCURVE",
"220 317 CURVE SMOOTH"
);
}
);
width = 680;
}
);
note = approxequal;
unicode = 2248;
},
{
glyphname = notequal;
lastChange = "2017-11-01 11:12:47 +0000";
layers = (
{
layerId = "21C067DE-0135-4A31-BCA0-37E1E4C9B62B";
paths = (
{
closed = 1;
nodes = (
"251 224 LINE",
"198 91 LINE",
"256 67 LINE",
"319 224 LINE",
"574 224 LINE",
"574 291 LINE",
"346 291 LINE",
"399 424 LINE",
"574 424 LINE",
"574 491 LINE",
"426 491 LINE",
"479 623 LINE",
"421 647 LINE",
"358 491 LINE",
"105 491 LINE",
"105 424 LINE",
"331 424 LINE",
"278 291 LINE",
"105 291 LINE",
"105 224 LINE"
);
}
);
width = 680;
}
);
note = notequal;
unicode = 2260;
},
{
glyphname = lessequal;
lastChange = "2017-11-01 11:12:47 +0000";
layers = (
{
layerId = "21C067DE-0135-4A31-BCA0-37E1E4C9B62B";
paths = (
{
closed = 1;
nodes = (
"574 243 LINE",
"198 398 LINE",
"574 553 LINE",
"574 631 LINE",
"105 423 LINE",
"105 373 LINE",
"574 165 LINE"
);
},
{
closed = 1;
nodes = (
"574 70 LINE",
"574 137 LINE",
"105 137 LINE",
"105 70 LINE"
);
}
);
width = 680;
}
);
note = lessequal;
unicode = 2264;
},
{
glyphname = greaterequal;
lastChange = "2017-11-01 11:12:47 +0000";
layers = (
{
layerId = "21C067DE-0135-4A31-BCA0-37E1E4C9B62B";
paths = (
{
closed = 1;
nodes = (
"575 70 LINE",
"575 137 LINE",
"106 137 LINE",
"106 70 LINE"
);
},
{
closed = 1;
nodes = (
"106 553 LINE",
"482 398 LINE",
"106 243 LINE",
"106 165 LINE",
"575 373 LINE",
"575 423 LINE",
"106 631 LINE"
);
}
);
width = 680;
}
);
note = greaterequal;
unicode = 2265;
},
{
glyphname = lozenge;
lastChange = "2017-11-01 11:12:47 +0000";
layers = (
{
layerId = "21C067DE-0135-4A31-BCA0-37E1E4C9B62B";
paths = (
{
closed = 1;
nodes = (
"583 356 LINE",
"362 714 LINE",
"317 714 LINE",
"97 356 LINE",
"317 0 LINE",
"362 0 LINE"
);
},
{
closed = 1;
nodes = (
"340 613 LINE",
"495 357 LINE",
"340 100 LINE",
"185 357 LINE"
);
}
);
width = 680;
}
);
note = lozenge;
unicode = 25CA;
},
{
glyphname = commaaccent;
lastChange = "2017-11-01 11:12:47 +0000";
layers = (
{
layerId = "21C067DE-0135-4A31-BCA0-37E1E4C9B62B";
paths = (
{
closed = 1;
nodes = (
"425 -50 LINE",
"316 -50 LINE",
"254 -230 LINE",
"308 -230 LINE"
);
}
);
width = 680;
}
);
note = commaaccent;
unicode = F6C3;
},
